<svg width="1024" height="786" fill="none" xmlns="http://www.w3.org/2000/svg"><path d="m490.654 364.302-19.812 129.656h121.207s-50.359-92.957-42.539-124.621l-58.856-5.035Z" fill="#FFB9B9"/><path d="M156.207 697.511c-22.739 18.308-29.183 50.521-29.183 50.521s30.423 2.53 53.161-15.779c22.739-18.308 29.184-50.521 29.184-50.521s-30.423-2.529-53.162 15.779Z" fill="#2F2E41"/><path d="M165.679 706.107c-10.929 28.267-38.299 42.834-38.299 42.834s-9.651-31.264 1.277-59.532c10.929-28.268 38.299-42.835 38.299-42.835s9.652 31.265-1.277 59.533Z" fill="#14FF00"/><path d="M518 389.652c39.765 0 72-39.781 72-88.854s-32.235-88.854-72-88.854-72 39.781-72 88.854 32.235 88.854 72 88.854Z" fill="#FEB8B8"/><path d="M592.56 226.137c-11.106-21.593-28.491-37.504-48.808-44.67l-9.12 7.968v-10.347a66.16 66.16 0 0 0-14.751-1.028l-7.868 8.523v-7.815c-11.65 1.733-22.873 6.337-32.962 13.522-10.089 7.185-18.825 16.795-25.658 28.224-17.087 29.493-19.971 70.522-3.165 100.251 4.613-16.975 10.213-32.902 14.827-49.876 3.626.592 7.301.613 10.931.064l5.613-15.681 1.568 15.017c17.397-1.814 43.202-5.799 59.694-9.449l-1.604-11.521 9.595 9.573c5.053-1.392 8.053-2.656 7.805-3.621 12.266 23.676 27.278 38.797 39.543 62.473 4.659-33.384 10.02-61.143-5.64-91.607Z" fill="#2F2E41"/><path d="M692 540.397c-2.831-17.774-5.751-35.89-13.666-51.902-5.202-10.488-13.459-20.482-24.591-22.556a22.98 22.98 0 0 1-6.403-1.547c-3.261-1.64-47.092-27.754-54.058-32.302-5.982-3.905-15.424-11.135-20.185-11.135-4.79-.11-23.156 4.352-94.841-1.497 0 0-19.693 8.102-34.931 17.925-.231-.159-74.402 41.411-77.189 41.302-5.277-.232-10.182 3.294-13.207 7.735-3.025 4.441-4.444 9.938-5.929 15.253 16.2 37.654 31.023 75.357 47.225 113.01a9.982 9.982 0 0 1 1.171 4.638 11.556 11.556 0 0 1-2.015 4.638c-7.945 13.32-7.693 30.075-6.825 45.73.869 15.656 1.943 32.193-4.761 46.226-1.823 3.853-4.195 7.379-5.929 11.232-4.061 8.726-5.529 36.634-3.157 46.009l297.196 8.886C663.515 763.709 692 540.397 692 540.397Z" fill="#BDFF00"/><path d="M321.228 610.276a61.229 61.229 0 0 0-.178 13.983l4.262 66.103c.4 6.23.793 12.445 1.335 18.66 1.022 12.061 2.55 24.026 4.446 35.974.042 1.696.707 3.305 1.846 4.473 1.14 1.168 2.662 1.8 4.233 1.757 18.759 4.287 38.141 4.116 57.286 2.948 29.214-1.761 103.955-5.093 108.522-11.5 4.566-6.407 1.905-16.77-4.049-21.951-5.954-5.181-104.586-17.811-104.586-17.811.964-8.249 3.871-16.018 6.629-23.85 4.953-13.89 9.58-28.237 9.669-43.118.089-14.88-5.101-30.525-16.387-39.05-9.284-6.998-21.236-8.297-32.549-8.008-8.231.255-22.452-1.875-29.97 1.601-5.949 2.83-9.398 13.497-10.509 19.789Z" fill="#FBBEBE"/><path d="M346.071 492.729a16.806 16.806 0 0 0-3.291 5.686c-11.987 29.179-19.068 60.43-20.909 92.29a9.845 9.845 0 0 1-.964 4.469 19.153 19.153 0 0 1-2.18 2.547 9.062 9.062 0 0 0-1.544 3.02 9.51 9.51 0 0 0-.356 3.429 9.377 9.377 0 0 0 .886 3.314 8.742 8.742 0 0 0 2.408 3.05c2.447-4.973 8.304-6.599 13.51-7.031 24.927-2.13 49.277 10.396 74.279 9.451-1.764-6.583-4.301-12.91-5.739-19.572-6.363-29.584 9.505-61.794-.223-90.288-1.943-5.703-5.19-11.309-10.306-13.807a25.848 25.848 0 0 0-6.598-1.887c-6.318-1.233-18.895-6.503-25.003-4.388-2.254.785-3.143 3.075-5.012 4.459-2.839 1.958-6.605 2.678-8.958 5.258Z" fill="#BDFF00"/><path d="M692.263 590.487c-7.518-3.476-21.739-1.346-29.97-1.602-11.313-.288-23.265 1.011-32.549 8.009-11.285 8.525-16.476 24.17-16.387 39.05.089 14.881 4.716 29.228 9.67 43.118 2.757 7.832 5.665 15.601 6.628 23.85 0 0-98.632 12.63-104.586 17.811-5.954 5.181-8.615 15.544-4.048 21.951 4.566 6.407 147.048 12.839 165.807 8.552 1.571.043 3.093-.589 4.233-1.757 1.14-1.168 1.804-2.777 1.847-4.473 1.896-11.948 3.423-23.913 4.445-35.974.542-6.215.936-12.43 1.336-18.66l4.261-66.103a61.172 61.172 0 0 0-.178-13.983c-1.111-6.292-4.559-16.959-10.509-19.789Z" fill="#FBBEBE"/><path d="M668.971 487.471c-1.869-1.384-2.758-3.674-5.012-4.459-6.108-2.115-18.685 3.155-25.002 4.388-2.264.33-4.481.964-6.599 1.887-5.116 2.498-8.363 8.104-10.306 13.807-9.728 28.494 6.14 60.704-.223 90.288-1.438 6.662-3.975 12.989-5.739 19.572 25.002.945 49.352-11.581 74.279-9.451 5.206.432 11.064 2.058 13.51 7.031a8.742 8.742 0 0 0 2.408-3.05 9.382 9.382 0 0 0 .886-3.315 9.505 9.505 0 0 0-.356-3.428 9.062 9.062 0 0 0-1.544-3.02 19.153 19.153 0 0 1-2.18-2.547 9.831 9.831 0 0 1-.963-4.469c-1.842-31.86-8.923-63.111-20.909-92.29a16.808 16.808 0 0 0-3.292-5.686c-2.353-2.58-6.119-3.3-8.958-5.258Z" fill="#BDFF00"/><path d="M490.566 754.383c12.276 0 22.228-10.749 22.228-24.009s-9.952-24.009-22.228-24.009c-12.277 0-22.229 10.749-22.229 24.009s9.952 24.009 22.229 24.009ZM539.786 754.383c12.276 0 22.228-10.749 22.228-24.009s-9.952-24.009-22.228-24.009c-12.276 0-22.228 10.749-22.228 24.009s9.952 24.009 22.228 24.009Z" fill="#FBBEBE"/><path d="M676.995 784.475H371.612c-3.566-.005-6.984-1.536-9.505-4.259-2.521-2.723-3.94-6.415-3.944-10.266V569.843c.004-3.851 1.423-7.543 3.944-10.266s5.939-4.255 9.505-4.259h305.383c3.566.004 6.984 1.536 9.505 4.259 2.521 2.723 3.94 6.415 3.944 10.266V769.95c-.004 3.851-1.423 7.543-3.944 10.266s-5.939 4.254-9.505 4.259Z" fill="#3F3D56"/><path d="M1024 744.112H0V778.1h60.568v7.9h902.886v-7.9H1024v-33.988Z" fill="#7A2712"/><path d="M450.961 335.812c-13.233 0-23.961-12.528-23.961-27.983v-13.991c0-15.454 10.728-27.983 23.961-27.983v69.957ZM592.159 266.085c13.233 0 23.961 12.528 23.961 27.983v13.991c0 15.454-10.728 27.982-23.961 27.982v-69.956Z" fill="#101833"/><path d="M605 295.806h-3.542c0-55.921-36.542-101.416-81.458-101.416s-81.458 45.495-81.458 101.416H435c0-58.352 38.131-105.826 85-105.826s85 47.474 85 105.826Z" fill="#000"/><g clip-path="url(#a)"><path d="M520.13 614.934a3.425 3.425 0 0 1-.014-.32c0-1.566.949-2.839 2.116-2.839 1.194 0 2.129 1.247 2.129 2.839 0 .36-.05.708-.144 1.029.35-.601.553-1.357.553-2.149 0-1.904-1.127-3.453-2.512-3.453s-2.511 1.549-2.511 3.453c0 .468.068.926.202 1.365l.181.075ZM513.878 611.924c.076-.012.145-.018.214-.018.928 0 1.761.985 1.979 2.341.022.149.036.297.042.443.06-.033.122-.064.184-.093.031-.235.046-.455.046-.677 0-1.756-.861-3.239-1.88-3.239-.868 0-1.6 1.032-1.808 2.427.237-.636.67-1.084 1.223-1.184ZM531.366 647.344c.233-1.069.698-3.8.258-7.103-.556-4.174-5.994-17.172-6.929-18.623-.546.082-1.997.987-3.173 1.721-1.364.852-2.775 1.732-3.735 2.031-.2.062-.409.092-.625.092-1.402 0-2.92-1.28-3.898-2.289-.171 1.957-1.137 4.44-2.181 5.716-.66.818-1.25 2.685-1.82 4.491-.529 1.672-1.075 3.402-1.744 4.542-1.353 2.278-2.129 6.701-1.144 9.217.476 1.219 2.205 2.66 3.731 3.93 1.866 1.554 3.478 2.895 3.655 4.248.208 1.6-.58 2.487-1.368 2.907l1.999 2.47c.308.05 1.052.147 2.217.147 1.363 0 2.876-.128 4.495-.383 3.977-.636 6.747-4.176 7.294-4.927.003-.996.031-5.426.3-6.811.105-.533.506-1.426 2.02-1.426.236 0 .46.022.648.05Z" fill="#fff"/><path d="M514.014 619.924c.078.327.768 1.165 1.841 1.926.153.105.296.21.43.309.595.437.86.616 1.288.554.63-.089 2.952-1.61 3.944-2.259l.246-.162c.369-.242.665-.408.902-.542.469-.263.512-.306.532-.402-.054-.15-.492-.549-1.333-.861-.267-.103-.646-.267-1.085-.456-.95-.41-2.251-.971-2.779-1.071a.298.298 0 0 0-.067-.006c-.449 0-1.356.608-2.258 1.513-.444.433-1.311 1.165-1.661 1.457ZM506.084 653.52c-.391-.706-.728-1.316-.91-1.621-.719-1.207-1.965-2.556-2.559-2.556a.173.173 0 0 0-.098.024c-.317.195-.583.79-.841 1.364-.357.794-.761 1.695-1.507 2.183-.552.362-1.396.56-2.212.751-.581.136-1.94.455-2.004.752-.088.402-.006.816.098 1.341.122.619.275 1.389.145 2.335-.092.593-.258 1.159-.42 1.707-.224.762-.479 1.627-.259 1.893.27.258 1.903.543 3.096.752 1.499.262 3.048.533 3.998.962l.251.115c1.7.771 4.864 2.208 6.463 2.208.145 0 .269-.013.369-.037.276-.201 1.444-1.107 1.663-2.221.3-1.436-.918-3.111-1.671-3.982-.835-.969-2.434-3.86-3.602-5.97ZM542.216 656.96l-.195-.111c-1.338-.764-2.041-2.837-1.948-4.4a1.886 1.886 0 0 0-.07-.682c-.247.439-.6.993-1.019 1.446-.713.77-2.452 1.6-4.019 1.6a3.683 3.683 0 0 1-1.584-.331c-1.565-.737-1.778-2.85-1.782-3.91a.341.341 0 0 0-.064.025c-.095.365-.003 1.596.06 2.425.033.444.068.902.088 1.323.089 1.853-.458 4.997-.932 7.308-.451 2.263.387 3.849 1.405 4.192a.952.952 0 0 0 .307.046c.937 0 2.49-1.047 3.862-2.607.975-1.108 3.145-2.304 5.06-3.361 1.079-.595 2.195-1.211 2.513-1.524.07-.071.081-.11.081-.111-.02-.34-1.286-1.058-1.763-1.328Z" fill="#E69629"/><path d="M545.385 655.624c-1.88-.831-2.684-1.935-2.606-3.581.08-1.922-.929-3.329-1.409-3.886.29-1.195 1.136-5.328.001-8.919-1.22-3.843-4.944-9.712-8.786-15.482-1.573-2.369-1.648-4.945-1.734-7.927-.082-2.845-.175-6.069-1.644-9.653-1.597-3.903-4.801-6.141-8.791-6.141-2.374 0-4.811.802-6.686 2.199-3.839 2.862-3.332 9.102-2.996 13.231.046.566.089 1.1.115 1.556.223 4.044.02 6.176-.246 6.823-.172.424-1.02 1.629-1.916 2.904-.928 1.32-1.979 2.815-2.841 4.209-1.029 1.677-1.859 4.24-2.661 6.718-.588 1.814-1.143 3.527-1.683 4.551a6.644 6.644 0 0 0-.556 4.655c-.388.29-.948.863-1.42 1.942-.571 1.317-1.731 2.024-4.141 2.525-1.107.244-1.871.747-2.27 1.495-.581 1.087-.265 2.454.024 3.388.427 1.372.161 2.241-.323 3.819-.111.364-.237.777-.365 1.231-.202.718-.129 1.37.215 1.939.91 1.503 3.566 2.033 6.301 2.382 1.632.209 3.419.915 5.147 1.597 1.693.668 3.444 1.359 5.036 1.569.242.033.481.049.712.049 2.403 0 3.489-1.722 3.833-2.429.863-.191 3.84-.8 6.909-.882 3.063-.094 6.027.559 6.866.762.264.546.96 1.792 2.069 2.435.61.36 1.459.566 2.328.566.928 0 2.694-.237 4.091-1.825 1.394-1.595 4.876-3.632 7.419-5.119.568-.332 1.098-.642 1.564-.922 1.428-.856 2.208-2.078 2.138-3.353a2.82 2.82 0 0 0-1.694-2.426Zm-23.127-45.583c1.385 0 2.512 1.549 2.512 3.453 0 .792-.203 1.548-.553 2.149a3.67 3.67 0 0 0 .144-1.029c0-1.592-.935-2.839-2.129-2.839-1.167 0-2.116 1.273-2.116 2.839 0 .107.005.213.014.32a11.14 11.14 0 0 1-.181-.075 4.665 4.665 0 0 1-.202-1.365c0-1.904 1.126-3.453 2.511-3.453ZM518 616.96c.527.101 1.828.662 2.779 1.071.439.19.818.353 1.085.457.841.312 1.279.711 1.332.86-.02.097-.062.139-.532.403-.237.133-.532.299-.901.542l-.247.161c-.991.65-3.313 2.17-3.943 2.259-.428.063-.693-.117-1.289-.554-.134-.098-.277-.203-.429-.309-1.073-.761-1.764-1.598-1.842-1.926.35-.292 1.218-1.023 1.662-1.456.901-.905 1.808-1.514 2.257-1.514.024 0 .045.002.068.006Zm-3.538-6.28c1.02 0 1.881 1.484 1.881 3.24 0 .221-.015.442-.046.677-.062.029-.124.06-.184.093a4.196 4.196 0 0 0-.042-.443c-.218-1.356-1.051-2.341-1.98-2.341a1.35 1.35 0 0 0-.213.018c-.553.099-.986.548-1.224 1.183.209-1.394.941-2.427 1.808-2.427Zm-3.105 52.792c-.219 1.114-1.387 2.02-1.663 2.221a1.61 1.61 0 0 1-.369.037c-1.599 0-4.763-1.437-6.463-2.208l-.252-.115c-.949-.43-2.499-.7-3.997-.962-1.193-.209-2.826-.494-3.096-.752-.22-.266.035-1.131.259-1.893.162-.548.329-1.114.42-1.707.13-.946-.023-1.716-.145-2.335-.104-.525-.186-.939-.098-1.341.064-.297 1.423-.615 2.004-.752.816-.191 1.66-.389 2.212-.751.746-.488 1.15-1.389 1.506-2.183.259-.574.525-1.169.842-1.364a.171.171 0 0 1 .097-.024c.595 0 1.841 1.349 2.56 2.556.182.305.519.914.91 1.621 1.168 2.111 2.767 5.001 3.602 5.97.753.871 1.971 2.546 1.671 3.982Zm17.342-14.752c-.269 1.385-.297 5.815-.3 6.811-.548.751-3.318 4.291-7.294 4.927-1.62.254-3.133.383-4.496.383-1.165 0-1.908-.097-2.217-.147l-1.998-2.47c.787-.42 1.575-1.307 1.368-2.907-.178-1.353-1.789-2.694-3.655-4.248-1.526-1.271-3.256-2.71-3.732-3.93-.985-2.516-.209-6.939 1.145-9.217.668-1.14 1.215-2.87 1.743-4.542.57-1.806 1.16-3.674 1.82-4.491 1.045-1.276 2.01-3.759 2.181-5.716.979 1.008 2.496 2.289 3.898 2.289.216 0 .426-.031.626-.092.959-.299 2.37-1.18 3.734-2.031 1.177-.734 2.627-1.639 3.173-1.722.936 1.452 6.374 14.45 6.929 18.624.44 3.303-.024 6.033-.258 7.103a4.445 4.445 0 0 0-.647-.05c-1.515 0-1.916.893-2.02 1.426Zm15.199 9.68c-.317.313-1.433.929-2.513 1.524-1.915 1.056-4.085 2.253-5.06 3.36-1.372 1.56-2.924 2.608-3.862 2.608a.933.933 0 0 1-.307-.047c-1.017-.342-1.855-1.929-1.405-4.191.474-2.312 1.021-5.455.932-7.309-.02-.421-.054-.879-.088-1.322-.062-.829-.155-2.06-.059-2.426a.46.46 0 0 1 .063-.024c.004 1.059.217 3.173 1.782 3.91.466.22.999.331 1.584.331 1.567 0 3.307-.83 4.019-1.6.42-.453.773-1.008 1.02-1.447.054.171.087.395.069.682-.093 1.563.611 3.637 1.949 4.401l.195.111c.476.27 1.742.988 1.763 1.328-.001 0-.011.04-.082.111Z" fill="#000"/></g><path d="M851.375 737.46s-6.135 3.571 4.366 4.78c12.722 1.453 19.224 1.244 33.244-1.412 0 0 3.686 2.314 8.834 4.317-31.429 13.484-71.13-.781-46.444-7.685ZM847.534 719.864s-6.881 5.099 3.628 6.187c13.591 1.404 24.323 1.519 42.894-2.061 0 0 2.569 2.607 6.608 4.032-37.999 11.123-80.324.877-53.13-8.158Z" fill="#213340"/><path d="M879.911 690.017c7.744 8.925-2.035 16.956-2.035 16.956s19.663-10.161 10.633-22.885c-8.434-11.866-14.902-17.762 20.113-38.091 0 0-54.962 13.741-28.711 44.02Z" fill="#E76F00"/><path d="M921.478 750.474s4.54 3.745-5 6.642c-18.142 5.501-75.506 7.163-91.442.219-5.728-2.494 5.014-5.956 8.393-6.683 3.525-.765 5.538-.622 5.538-.622-6.37-4.492-41.177 8.821-17.679 12.634 64.08 10.402 116.811-4.685 100.19-12.19ZM854.325 701.634s-29.179 6.937-10.333 9.457c7.958 1.066 23.82.825 38.596-.415 12.076-1.019 24.201-3.187 24.201-3.187s-4.258 1.825-7.338 3.931c-29.631 7.801-86.873 4.172-70.394-3.808 13.937-6.743 25.268-5.978 25.268-5.978ZM906.669 730.922c30.121-15.668 16.194-30.725 6.473-28.697-2.382.497-3.444.927-3.444.927s.884-1.387 2.573-1.987c19.231-6.768 34.021 19.96-6.208 30.547 0 0 .467-.417.606-.79Z" fill="#213340"/><path d="M888.509 613.173s16.681 16.704-15.822 42.391c-26.065 20.605-5.944 32.353-.011 45.776-15.214-13.741-26.38-25.837-18.889-37.095 10.994-16.526 41.452-24.538 34.722-51.072Z" fill="#E76F00"/><path d="M857.285 773.379c28.912 1.853 73.311-1.028 74.363-14.723 0 0-2.022 5.192-23.895 9.315-24.678 4.649-55.114 4.106-73.166 1.127 0-.001 3.695 3.061 22.698 4.281Z" fill="#213340"/><path d="M192.028 271c-33.256 0-31.179 14.497-31.179 14.497l.037 15.019h31.735v4.51H148.28S127 302.6 127 336.331s18.574 32.535 18.574 32.535h11.085v-15.653s-.597-18.671 18.278-18.671h31.475s17.685.287 17.685-17.181v-28.882S226.782 271 192.028 271Zm-17.499 10.1c3.157 0 5.709 2.565 5.709 5.739s-2.552 5.739-5.709 5.739c-3.158 0-5.71-2.565-5.71-5.739s2.552-5.739 5.71-5.739Z" fill="url(#b)"/><path d="M192.972 402c33.256 0 31.179-14.497 31.179-14.497l-.037-15.019h-31.735v-4.51h44.34S258 370.4 258 336.669s-18.574-32.535-18.574-32.535h-11.085v15.653s.597 18.671-18.278 18.671h-31.476s-17.684-.287-17.684 17.181v28.882S158.218 402 192.972 402Zm17.499-10.1c-3.157 0-5.709-2.565-5.709-5.739s2.552-5.739 5.709-5.739c3.157 0 5.709 2.565 5.709 5.739s-2.552 5.739-5.709 5.739Z" fill="url(#c)"/><g clip-path="url(#d)"><path d="M922.384 176.25c.997-1.727 1.616-3.673 1.616-5.421V110.17c0-1.747-.618-3.693-1.615-5.42L860.5 140.5l61.884 35.75Z" fill="#00599C"/><path d="m865.999 210.689 52.502-30.329c1.512-.874 2.887-2.383 3.883-4.11L860.5 140.5l-61.884 35.75c.996 1.727 2.371 3.236 3.883 4.11l52.502 30.329c3.024 1.747 7.974 1.747 10.998 0Z" fill="#004482"/><path d="M922.385 104.75c-.997-1.728-2.372-3.236-3.884-4.11l-52.502-30.33c-3.024-1.747-7.974-1.747-10.998 0l-52.502 30.33c-3.025 1.747-5.499 6.036-5.499 9.53v60.659c0 1.748.619 3.694 1.616 5.421L860.5 140.5l61.885-35.75Z" fill="#659AD2"/><path d="M860.5 182.858c-23.343 0-42.333-19.002-42.333-42.358 0-23.356 18.99-42.358 42.333-42.358 15.062 0 29.11 8.11 36.66 21.166l-18.321 10.607c-3.779-6.534-10.806-10.594-18.339-10.594-11.672 0-21.167 9.501-21.167 21.179 0 11.678 9.495 21.179 21.167 21.179 7.534 0 14.561-4.06 18.341-10.596l18.32 10.608c-7.55 13.056-21.598 21.167-36.661 21.167Z" fill="#fff"/><path d="M902.833 138.147h-4.704v-4.707h-4.703v4.707h-4.704v4.706h4.704v4.707h4.703v-4.707h4.704v-4.706ZM920.472 138.147h-4.704v-4.707h-4.703v4.707h-4.704v4.706h4.704v4.707h4.703v-4.707h4.704v-4.706Z" fill="#fff"/></g><defs><linearGradient id="b" x1="139.589" y1="282.451" x2="204.704" y2="347.443" gradientUnits="userSpaceOnUse"><stop stop-color="#387EB8"/><stop offset="1" stop-color="#366994"/></linearGradient><linearGradient id="c" x1="179.436" y1="324.012" x2="249.353" y2="390.647" gradientUnits="userSpaceOnUse"><stop stop-color="#FFE052"/><stop offset="1" stop-color="#FFC331"/></linearGradient><clipPath id="a"><path fill="#fff" transform="translate(487.662 600.035)" d="M0 0h64.1v69.234H0z"/></clipPath><clipPath id="d"><path fill="#fff" transform="translate(797 69)" d="M0 0h127v143H0z"/></clipPath></defs></svg>