<svg width="1024" height="768" fill="none" xmlns="http://www.w3.org/2000/svg"><path d="M516.112 729.004c116.8 0 211.484-3.382 211.484-7.553 0-4.172-94.684-7.553-211.484-7.553-116.799 0-211.484 3.381-211.484 7.553 0 4.171 94.685 7.553 211.484 7.553Z" fill="#3F3D56"/><path d="M426.658 151.352c41.793 0 75.673-33.882 75.673-75.676C502.331 33.88 468.451 0 426.658 0s-75.672 33.881-75.672 75.676c0 41.794 33.879 75.676 75.672 75.676Z" fill="#FF6584"/><path d="M328.486 696c54.398 0 98.496-2.686 98.496-6s-44.098-6-98.496-6c-54.397 0-98.496 2.686-98.496 6s44.099 6 98.496 6Z" fill="#3F3D56"/><path d="M444.56 721.967s52.935-141.165 23.753-228.036c-29.182-86.871-52.256-83.477-52.256-83.477s-39.362-10.18-88.225 19.681c-48.863 29.862-61.757 38.685-89.582 26.469-27.825-12.216-33.254-31.219-101.119-29.183 0 0 35.968-19.682 71.258-2.036 35.29 17.645 59.043 27.147 95.011 0 35.969-27.147 85.511-62.439 133.695-41.4 0 0-35.29-34.612-46.827-34.612-11.537 0-65.829-5.43-83.474-23.754 0 0-25.11-17.646-69.901 25.79-44.791 43.435-33.933 43.435-73.973 40.042-40.041-3.394-71.259-23.075-71.259-23.075s46.827 19.003 75.331 9.501c28.503-9.501 52.934-45.471 78.045-57.688 25.11-12.216 40.04-28.504 73.972-10.858 0 0-14.251-58.367-41.397-53.616-27.146 4.751 12.894-13.574 12.894-13.574s-7.465-99.087-21.717-105.874c-14.251-6.786-5.429-24.432-31.896-27.825 0 0 32.575-4.073 38.683 18.324 6.108 22.396 48.184 143.201 48.184 143.201s25.789 51.58 54.292 39.364c28.503-12.217-10.858-80.763-10.858-80.763l-48.863-22.397s36.647-1.357 59.042 19.682c22.396 21.039 23.753 88.907 23.753 88.907s56.328 8.144 69.901 38.685c0 0 8.823-27.147-8.144-43.436-4.241-4.072-8.695-11.156-12.989-19.491-16.424-31.874-21.995-68.209-16.829-103.692 2.529-17.364 4.085-34.342 1.315-38.342-6.108-8.823-31.896-63.118-33.932-77.37C398.412 56.862 402.484 27 402.484 27s.678 36.649 8.822 48.186c8.144 11.538 31.218 68.547 31.218 68.547s0 71.94 19.002 107.231 55.65 74.655 53.614 100.445v14.931s40.719-38.685 38.004-51.58c-2.715-12.895-6.108-43.435-31.897-61.76-25.788-18.324-42.755-47.507-24.431-89.585 18.324-42.079 18.324-49.544 18.324-49.544l-12.216 52.258s-6.787 46.829 12.216 63.117c19.002 16.289 44.112 46.151 44.112 46.151l-5.429-97.73 17.645 38.685s38.004-48.865 82.795-65.154c44.791-16.288 72.616-73.297 72.616-73.297l38.004-29.862-31.218 37.328s-9.501 44.114-63.114 75.333c-53.614 31.219-88.225 77.369-90.261 105.874-2.036 28.504-4.072 53.615-4.072 53.615s100.441-3.393 122.836-47.507c22.396-44.114 24.432-131.664 46.148-145.916 21.717-14.252 62.436-31.898 62.436-31.898l-45.469 37.327s-9.501 30.541-7.466 52.259c2.036 21.717-14.93 42.078-14.93 42.078l-12.894 38.006-14.252 32.576s58.364 1.358 88.903 35.97c30.54 34.613 106.549 44.793 106.549 44.793l-42.755 11.538s-40.719-13.574-79.403-38.685c-38.683-25.111-34.611-47.508-82.795-22.396-48.184 25.111-114.013 46.15-114.013 46.15s38.004-17.646 106.548 25.111c68.544 42.757-33.933-7.466-64.472 8.823-30.539 16.288-44.791-4.072-57.007 36.648-12.215 40.721-34.611 152.025-8.822 214.463l25.789 62.438H444.56Z" fill="#7A2712"/><path opacity=".1" d="M700.084 272.682c-18.195 35.84-87.903 44.802-113.413 46.903-.715 9.2-1.187 15.018-1.187 15.018s100.44-3.393 122.836-47.507c22.395-44.114 24.431-131.664 46.148-145.916a179.187 179.187 0 0 1 7.481-4.624c.746-2.739 1.249-4.361 1.249-4.361l45.47-37.327s-40.719 17.646-62.436 31.898c-21.717 14.252-23.753 101.802-46.148 145.916ZM583.05 204.118c-.148 16.709-2.316 26.647-2.316 26.647s37.988-48.844 82.767-65.142a256.625 256.625 0 0 1 8.079-4.923c53.614-31.219 63.115-75.334 63.115-75.334l31.218-37.327-38.005 29.862s-27.824 57.009-72.615 73.297c-30.532 11.103-57.905 37.338-72.243 52.92ZM524.406 365.823v14.931s40.719-38.685 38.004-51.58c-2.076-9.862-4.562-30.04-17.145-47.185 5.672 12.957 7.398 25.596 8.909 32.771 1.946 9.247-18.441 31.754-30.132 43.75.41 2.414.532 4.869.364 7.313ZM469.785 263.359c.322.688.655 1.365 1.007 2.019 10.407 19.328 26.096 39.873 37.835 58.745-9.487-18.689-25.998-40.06-38.842-60.764ZM502.87 234.465c-5.472-13.41-6.374-29.366-.087-48.064-.078-6.776.313-13.55 1.171-20.272l10.686-45.714c-1.971 6.592-6.479 19.31-16.794 43-13.06 29.989-8.186 53.424 5.024 71.05ZM802.56 333.084c-21.179-24.004-55.735-32.012-74.931-34.667l-5.736 13.111s58.364 1.358 88.903 35.97c16.936 19.195 47.85 30.872 72.035 37.47l26.277-7.091s-76.009-10.18-106.548-44.793ZM387.318 323.745c28.503-12.217-10.858-80.763-10.858-80.763l-1.077-.494c9.813 20.705 24.045 58.122 3.699 66.843-19.039 8.159-36.864-12.141-46.604-26.524l.548 1.574s25.789 51.58 54.292 39.364ZM480.293 367.859s8.589-26.475-7.546-42.822c3.957 14.082-.69 28.408-.69 28.408-10.5-23.626-46.578-33.847-62.381-37.265.612 7.866.716 12.994.716 12.994s56.328 8.144 69.901 38.685ZM514.64 120.415c1.529-5.117 1.529-6.544 1.529-6.544l-1.529 6.544ZM175.846 392.421c.136-.044.275-.085.411-.13 28.504-9.501 52.935-45.471 78.045-57.688 25.11-12.216 40.041-28.504 73.973-10.858 0 0-5.936-24.301-17.44-40.266a158.355 158.355 0 0 1 9.204 25.852c-33.933-17.646-48.863-1.358-73.973 10.858-25.11 12.217-49.541 48.187-78.045 57.688-28.503 9.502-75.33-9.501-75.33-9.501s31.218 19.681 71.258 23.075c4.581.388 8.489.73 11.897.97ZM458.784 721.967c12.434-38.12 42.339-143.533 18.795-213.622-10.168-30.268-19.593-49.569-27.56-61.883 5.958 11.657 12.473 27.075 19.323 47.469 29.182 86.871-23.752 228.036-23.752 228.036h13.194ZM193.751 432.88a69.25 69.25 0 0 1 23.904 6.919c27.871 13.936 48.55 22.774 73.729 12.509 5.736-3.03 12.152-6.78 19.551-11.244.577-.421 1.148-.825 1.731-1.265 35.969-27.147 85.51-62.439 133.694-41.4 0 0-9.738-9.548-20.654-18.615-44.164-10.835-88.392 20.782-121.276 45.601-35.968 27.147-59.721 17.645-95.011 0-35.29-17.646-71.258 2.036-71.258 2.036 26.221-.787 43.117 1.569 55.59 5.459ZM262.636 129.679a17.797 17.797 0 0 0 2.791 3.568 19.98 19.98 0 0 0-2.791-3.568ZM386.639 240.267a33.054 33.054 0 0 1 2.942 3.172c-2.972-7.146-6.644-13.326-11.178-17.586-22.395-21.039-59.043-19.682-59.043-19.682l45.96 21.066a65.634 65.634 0 0 1 21.319 13.03ZM435.41 148.484c2.769 4 1.213 20.978-1.315 38.342-5.167 35.483.405 71.818 16.828 103.692a120.892 120.892 0 0 0 7.231 12.414c-15.638-31.39-20.882-66.948-15.823-101.692 2.528-17.364 4.084-34.342 1.315-38.342-6.108-8.823-31.897-63.118-33.933-77.37-.61-5.53-.752-11.1-.425-16.653C404.016 53.917 403.513 27 403.513 27s-4.072 29.862-2.036 44.114c2.036 14.252 27.825 68.547 33.933 77.37ZM499.078 54.659a19.434 19.434 0 0 0-1.232-3.905s.521 1.465 1.232 3.905ZM259.375 123.011c5.981.732 12.861 2.567 18.109 6.823a151.727 151.727 0 0 1-.878-3.068c-6.108-22.397-38.684-18.324-38.684-18.324 14.722 1.887 18.524 8.184 21.453 14.569Z" fill="#000"/><path d="M428.051 692.969c4.839 17.888 21.413 28.966 21.413 28.966s8.728-17.923 3.89-35.811c-4.839-17.887-21.413-28.966-21.413-28.966s-8.728 17.924-3.89 35.811Z" fill="#3F3D56"/><path d="M435.161 689.125c13.278 12.926 14.9 32.796 14.9 32.796s-19.906-1.087-33.183-14.013c-13.278-12.926-14.9-32.796-14.9-32.796s19.906 1.087 33.183 14.013Z" fill="#2FC123"/><path d="M391.154 204.134c-1.154 18.495-15.171 32.672-15.171 32.672s-12.145-15.81-10.99-34.304c1.154-18.495 15.17-32.671 15.17-32.671s12.145 15.809 10.991 34.303Z" fill="#0C9800"/><path d="M245.047 87.215c15.675 9.882 21.392 28.981 21.392 28.981s-19.697 3.075-35.371-6.807c-15.675-9.883-21.392-28.982-21.392-28.982s19.696-3.075 35.371 6.808Z" fill="#14FF00"/><path d="M210.043 312.691c15.675 9.883 21.392 28.981 21.392 28.981s-19.697 3.076-35.371-6.807c-15.675-9.883-21.392-28.981-21.392-28.981s19.696-3.076 35.371 6.807Z" fill="#0C9800"/><path d="M293.435 399.175c15.674 9.883 21.392 28.981 21.392 28.981s-19.697 3.076-35.372-6.807c-15.674-9.883-21.391-28.981-21.391-28.981s19.696-3.076 35.371 6.807Z" fill="#14FF00"/><path d="M528.703 120.177c-4.727 17.918-21.232 29.099-21.232 29.099s-8.84-17.868-4.113-35.786c4.727-17.917 21.231-29.099 21.231-29.099s8.841 17.869 4.114 35.786Z" fill="#0C9800"/><path d="M677.815 134.148c-5.556 17.678-22.563 28.079-22.563 28.079s-7.999-18.26-2.443-35.938c5.556-17.678 22.563-28.08 22.563-28.08s7.999 18.261 2.443 35.939Z" fill="#14FF00"/><path d="M838.982 330.897c-10.064 15.559-29.227 21.053-29.227 21.053s-2.846-19.731 7.219-35.291c10.064-15.559 29.227-21.053 29.227-21.053s2.845 19.731-7.219 35.291Z" fill="#0C9800"/><path d="M917.983 744.107c58.552 0 106.017-3.382 106.017-7.554 0-4.171-47.465-7.553-106.017-7.553-58.551 0-106.016 3.382-106.016 7.553 0 4.172 47.465 7.554 106.016 7.554ZM106.017 747.107c58.551 0 106.016-3.382 106.016-7.554 0-4.171-47.465-7.553-106.016-7.553C47.465 732 0 735.382 0 739.553c0 4.172 47.465 7.554 106.017 7.554Z" fill="#2FC123"/><path fill-rule="evenodd" clip-rule="evenodd" d="m334.338 557.331 1.575-.331h2.701l1.65.331c1.101.23 2.201.621 3.301 1.172 1.101.552 2.041 1.193 2.821 1.925a8.573 8.573 0 0 1 1.831 2.435c.45.902.675 2.205.675 3.909 0 1.704-.3 3.508-.901 5.412-.6 1.904-1.235 3.568-1.905 4.991-.68 1.433-1.03 2.165-1.05 2.195-.03.02-.07.08-.12.18l-.075.15-.075.151-.075.15-.045.03-.03.045.03.045.045.03.045.031.03.045.03.045.045.03.045.03.03.045 2.55.451c1.701.301 3.451.777 5.252 1.428 1.8.652 3.326 1.228 4.576 1.729 1.25.501 3.076.977 5.476 1.428 2.401.451 8.002 1.178 16.805 2.18 8.802 1.002 14.753 1.654 17.854 1.954 3.101.301 5.852.526 8.252.677 2.401.15 3.891.341 4.472.571.57.221.98.481 1.23.782.25.301.4.526.45.676.05.151.09.226.12.226h.03v1.954l-.6 1.774c-.4 1.173-1.175 1.759-2.326 1.759-1.15 0-2.425-.175-3.826-.526-1.4-.351-2.725-.702-3.976-1.052a32.28 32.28 0 0 0-3.826-.827c-1.3-.201-2.826-.251-4.576-.151-1.75.101-3.501.376-5.251.827-1.751.451-3.126.927-4.126 1.428-1.001.501-1.751 1.178-2.251 2.03-.5.852-.975 1.478-1.425 1.879-.45.401-1.426.601-2.926.601-1.5 0-2.676-.075-3.526-.225-.85-.15-2.501-.201-4.951-.15-2.451.05-5.002.275-7.652.676-2.651.401-4.401.777-5.252 1.128-.85.35-1.365.741-1.545 1.172-.17.421-.205 1.032-.105 1.834.1.802.125 2.03.075 3.683-.05 1.654-.25 3.057-.6 4.21-.35 1.152-.84 2.32-1.471 3.503-.62 1.172-1.105 2.024-1.455 2.555-.35.521-.575.782-.675.782-.1 0-.475.361-1.125 1.082-.651.732-1.566 1.634-2.746 2.706-1.17 1.083-1.906 1.85-2.206 2.301-.3.451-.385.786-.255 1.007.12.23.605.746 1.456 1.548.85.802 1.975 1.378 3.376 1.729 1.4.351 2.75.852 4.051 1.503 1.3.652 2.7 1.504 4.201 2.556 1.5 1.052 3.961 2.415 7.382 4.089 3.43 1.684 5.531 2.751 6.301 3.202.78.451 1.17.727 1.17.827 0 .1.301.391.901.872.6.471 1.29 1.243 2.07 2.315.77 1.083 1.681 2.526 2.731 4.33 1.05 1.804 2.075 3.858 3.076 6.163 1 2.306 2.025 5.162 3.076 8.57 1.05 3.407 2.01 7.075 2.88 11.004.881 3.939 2.996 6.359 6.347 7.261 3.351.902 5.401 1.529 6.152 1.879.75.351 1.2.552 1.35.602l.225.075.03.045.045.03.045.03.03.045.03.045.045.03.045.03.03.045.15.046.15.03-.03.15-.045.15-.045.03-.03.045-.03.046-.045.03-.045.03-.03.045-.03.045-.045.03-.045.03-.03.045-.15.075-.15.075-.03.046c-.03.02-.23.14-.6.36-.38.231-.971.446-1.771.647-.8.2-3.151.3-7.052.3s-6.876.151-8.927.451c-2.05.301-4.351.451-6.902.451-2.55 0-4.836-1.388-6.856-4.164-2.031-2.786-3.346-4.881-3.946-6.284-.601-1.403-1.201-3.132-1.801-5.186-.6-2.055-1.15-3.884-1.65-5.487-.5-1.604-.976-2.807-1.426-3.608-.45-.802-1.15-1.679-2.1-2.631a13.8 13.8 0 0 0-3.121-2.361c-1.12-.631-2.431-1.172-3.931-1.623-1.5-.451-2.776-.727-3.826-.827l-1.575-.15-.481 2.901c-.33 1.924-.66 2.977-.99 3.157-.32.171-.53.281-.63.331l-.15.075h-.45l-.15-.075-.15-.075-.15-.075c-.1-.051-.34-.261-.72-.632-.371-.381-.506-.997-.406-1.849.1-.852.175-1.904.226-3.157.05-1.253.01-2.33-.121-3.232-.12-.902-.555-1.463-1.305-1.684-.75-.23-1.5-.371-2.25-.421-.751-.05-1.351.025-1.801.226-.45.2-.785.486-1.005.857-.23.38-.37 1.999-.42 4.855-.05 2.857-.125 4.886-.225 6.089-.1 1.203-.585 1.894-1.456 2.074-.88.171-1.68.041-2.4-.39-.731-.421-1.096-1.108-1.096-2.06s.025-2.756.075-5.412c.05-2.656-.01-4.044-.18-4.164-.18-.131-.845-.246-1.995-.346-1.15-.1-2.076-.276-2.776-.526a8.137 8.137 0 0 0-2.25-.451c-.801-.05-1.801.075-3.001.376-1.201.3-2.851.927-4.952 1.879a53.343 53.343 0 0 0-5.851 3.082 31.365 31.365 0 0 0-5.101 3.908c-1.601 1.504-3.041 2.691-4.321 3.563-1.271.882-2.891 1.764-4.862 2.646a85.538 85.538 0 0 0-6.046 2.962c-2.051 1.102-3.576 2.079-4.576 2.931-1.001.852-2.061 1.945-3.181 3.278a128.8 128.8 0 0 1-3.541 3.968c-1.22 1.333-2.331 2.351-3.331 3.052-1 .702-1.951 1.203-2.851 1.503-.9.301-2.2.451-3.901.451-1.7 0-3.451-.235-5.251-.706l-2.701-.722-.93 2.781c-.63 1.855-.96 2.807-.99 2.857l-.03.075h-.45v-.075l-.601-.075-.6-.076-.675-.075c-.45-.05-.9-.125-1.35-.225-.45-.1-1.701-.602-3.751-1.504-2.051-.902-3.126-1.538-3.226-1.909l-.15-.571v-2.405h.075l.075-.978c.05-.651.1-1.152.15-1.503.05-.351.325-1.228.825-2.631.5-1.403 1.1-2.631 1.801-3.683.7-1.052 1.275-1.804 1.725-2.255.45-.451 1.06-1.037 1.831-1.759.78-.731 2.295-1.874 4.546-3.427 2.25-1.554 4.426-3.057 6.526-4.51 2.101-1.454 4.362-3.298 6.782-5.533 2.431-2.225 4.221-3.763 5.372-4.615 1.15-.852 2.74-1.689 4.771-2.511 2.02-.831 3.381-1.423 4.081-1.774.7-.35 1.54-.992 2.52-1.924.971-.922 3.021-3.127 6.152-6.615 3.121-3.477 4.921-5.682 5.401-6.614.471-.922.981-1.935 1.531-3.037.55-1.102 1.14-1.994 1.77-2.676.62-.671 1.491-1.423 2.611-2.255 1.13-.822 2.931-1.934 5.401-3.337 2.481-1.403 3.811-2.556 3.991-3.458.17-.902.205-1.503.105-1.804-.1-.301-.435-.742-1.005-1.323a8.088 8.088 0 0 0-2.07-1.458c-.801-.401-1.701-.627-2.701-.677-1-.05-3.101.276-6.302.977-3.201.702-5.326 1.078-6.376 1.128-1.051.05-1.736-.241-2.056-.872-.33-.621-.895-1.884-1.695-3.788-.801-1.905-1.401-3.558-1.801-4.961-.4-1.404-.625-2.631-.675-3.684-.05-1.052-.025-1.804.075-2.255.1-.451.3-1.002.6-1.653.3-.652.785-1.418 1.456-2.3.68-.872 2.32-2.486 4.921-4.841 2.601-2.355 4.551-4.059 5.851-5.112a48.473 48.473 0 0 1 3.901-2.856c1.301-.852 2.801-1.628 4.502-2.33 1.7-.702 3.375-1.178 5.026-1.428 1.65-.251 3.126-.501 4.426-.752 1.3-.25 2.651-.727 4.051-1.428a20.291 20.291 0 0 0 3.976-2.631c1.25-1.052 1.886-1.764 1.906-2.135.03-.38-.23-1.673-.781-3.878-.55-2.205-.825-3.909-.825-5.112 0-1.202.175-2.179.525-2.931.35-.752.8-1.403 1.351-1.954.55-.552 1.26-1.068 2.13-1.549a11.17 11.17 0 0 1 2.896-1.052Z" fill="#000" stroke="#201E1E" stroke-width=".5"/><path d="M897.972 709.761c1.197 5.379 1.944 10.718 1.134 15.822 0 0-1.726 4.479-1.037 6.535.721 2.155 2.931 3.159 4.721 4.011 2.523 1.203 5.087-.054 8.691 1.26 4.583 1.671 4.609 3.194 7.016 4.384 1.819.899 4.431 1.934 6.393 2.085 1.572.121 2.84.521 3.848-.941.943-1.368 1.054-3.257.319-4.8-1.134-2.383-3.781-3.492-6.208-4.617-2.878-1.335-5.192-4.144-7.299-6.864-4.832-6.236-5.6-16.786-5.273-16.531-1.041-8.873 1.467-18.763 2.545-28.899.807-7.588-2.078-10.532-3.728-12.682-1.484-1.933 1.709-7.686 1.827-11.332.147-4.518-3.031-5.709-3.031-5.709.136-1.434.516-2.859-.306-4.331 2.555-10.187 5.375-20.488 4.648-29.504-.242-3.01 1.427-1.795 1.988-1.191 8.624 9.279 13.499 2.788 16.051-.073 1.04-1.165 1.345-.996 2.371-.806 2.623 1.187 4.567 1.77 5.975 1.875.269 1.093.86 2.149 1.753 3.172-.078 2.623.391 5.739 1.655 8.404 0 0 2.782 5.087 3.741 7.886.679 1.981.545 4.325 1.394 6.208 1.618 3.589 3.689 7.474 6.787 9.117 2.945 1.561 6.597 1.099 9.648-.131 2.784-1.123 4.71-4.236 7.1-6.296 1.114-.961 2.015-2.627 3.374-2.829 3.581-.531 2.078-3.266 2.154-5.204.087-2.206.373-3.495 1.106-5.315 1.099-2.726 3.205-4.93 3.744-7.891.409-2.248-.998-4.657-.5-6.878.189-.842 1.043-1.301 1.254-2.136.172-.681-.203-1.45-.044-2.135.539-2.326 2.682-3.777 3.243-6.095.842-3.487.309-7.287-.027-10.896-.204-2.182-.193-4.598-1.198-6.429-.252-.458-.947-.447-1.112-.96-.379-1.172 1.076-2.552.639-3.695-.312-.817-1.514-.575-1.964-1.293-.749-1.196-.074-3.197-.83-4.387-.296-.467-1.012-.344-1.29-.827-.319-.552.034-1.404-.224-2.001-.21-.487-1.006-1.115-1.006-1.115.012-2.18.804-4.14 1.566-6.108 1.54 1.829 2.507.433 3.657-.35.942-.641 1.506-1.102 2.178-1.783 4.528-4.58 2.955-6.829 1.791-6.875 0 0 5.906-7.907 6.621-12.89.436-3.036-.239-6.438-1.609-9.037-1.996-3.788-5.28-7.045-8.884-8.141-4.41-1.342-9.284.431-13.478 2.554-1.637.828-6.665 8.08-7.095 12.572 0 0-.437 2.332-.95 3.329-.476.925-1.901 2.323-1.901 2.323s-2.844-4.958-4.949-6.383c-1.601-1.083-3.979.074-5.392-1.34-.657-.658-.312-2.208-.973-2.86-2.768-2.728-7.756.3-10.527-2.424-.758-.745-.458-2.406-1.123-3.27-.937-1.219-2.355-1.833-3.689-2.244-.612-.188-1.362.337-1.895-.074-.489-.378-.254-1.586-.781-1.882-.954-.538-2.022.794-3.073.884-1.447.123-2.885-.42-4.335-.488-.919-.044-1.875.357-2.759.05-4.227-1.469-6.723-7.888-11.073-8.669-1.91-.344-3.707 1.308-5.567 1.931-1.571.526-3.287.597-4.725 1.524-1.426.919-2.164 3.088-3.65 3.858-1.8.933-4.042 1.554-5.853.651-2.781-1.388-3.612-5.859-5.786-8.373-1.354-1.566-3.21-2.447-4.47-4.125-.471-.627-.596-1.581-1.109-2.159-.43-.485-1.221-.416-1.563-.996-1.271-2.156-.101-5.434-.999-7.849-1.263-3.392-4.577-5.228-5.896-8.589-1.061-2.7.156-6.502-1.426-8.8-7.692-11.173-25.771-32.382-25.972-33.46-.224-1.194-2.055-.254-4.093 2.994 0 0-1.557-2.367-2.281-3.598-.772-1.313-1.212-2.951-2.197-4.036-1.497-1.649-3.904-1.757-5.363-3.455-1.565-1.82-3.439-6.042-6.14-4.966-3.603 1.435-4.658 6.928-5.5 10.255-.497 1.961-.436 4.068-.574 6.112-.09 1.335-.302 2.684-.167 4.013.212 2.071 1.362 3.18 3.215 4.692.496.405.22 2.018 1.56 2.195 1.451.191 3.641-.667 3.902-2.402.256-1.701-1.72-1.445-1.215-2.005.73-.81-.122-1.996.224-2.336.696-.684 2.174-.845 3.239-.56 2.343.627 6.029 4.751 6.029 4.751-.994 2.24-2.858 2.455-2.983 6.722 3.87 8.122 5.199 5.867 6.702 9.555 0 0 4.036 10.655 6.418 15.749 3.294 7.043 7.52 13.406 10.859 20.419 3.078 6.465 5.157 13.599 8.435 19.918 2.962 5.712 8.856 9.564 10.084 16.14 1.622 8.692 8.948 21.225 9.722 20.374.258 3.374.493 6.782.473 10.561 0 0-3.166 4.716-3.531 7.582-1.335 10.501 4.028 19.409 4.028 19.409s.458 12.347.843 18.509c.286 4.57 1.136 9.104 1.09 13.687-.028 2.742-.897 5.426-.819 8.165.061 2.13.869 4.154.998 6.28.166 2.736-.195 5.481-.295 8.221-.071 1.949.118 3.937-.216 5.845-1.674 9.541-5.433 30.241-5.103 30.667 6.192 2.079 12.27 3.261 18.303 4.07Z" fill="#000"/><path fill-rule="evenodd" clip-rule="evenodd" d="M26.772 527.697 29.17 527h4.796l2.725.827c1.817.537 3.38 1.205 4.688 2.003a18.411 18.411 0 0 1 3.532 2.786c1.06 1.044 1.882 2.292 2.463 3.743.581 1.452 1.2 3.664 1.853 6.639a92.041 92.041 0 0 1 1.483 8.554c.32 2.714 1.57 4.034 3.75 3.962 2.18-.073 4.796-.363 7.848-.871 3.052-.508 6.286-.726 9.701-.653 3.416.073 6.141.327 8.176.762s4.796 1.27 8.284 2.503c3.489 1.233 8.176 2.975 14.062 5.224 5.886 2.249 14.861 5.405 26.925 9.468 12.063 4.063 18.385 6.022 18.967 5.877.581-.145 1.584-.747 3.008-1.807 1.41-1.044 2.355-1.77 2.834-2.176.465-.392 1.279-.552 2.442-.479 1.163.072 2.98.544 5.45 1.415 2.471.87 5.124 1.487 7.958 1.85 2.834.363 7.812.508 14.934.435 7.121-.072 13.48-.363 19.076-.87 5.595-.508 10.682-1.052 15.26-1.633 4.579-.58 9.738-1.125 15.479-1.632 5.741-.508 9.811-.726 12.209-.653 2.398.072 5.632.653 9.701 1.741 4.07 1.088 6.723 1.705 7.958 1.85 1.235.145 4.178.254 8.829.327 4.651.072 7.849.399 9.593.979 1.744.58 2.652.892 2.725.936l.109.043v4.571h-.043c-.044 0-.175.798-.393 2.395a28.378 28.378 0 0 1-1.09 4.788c-.509 1.596-1.105 2.917-1.788 3.962-.697 1.059-1.337 1.625-1.918 1.697-.582.073-1.381-.036-2.398-.326-1.018-.29-2.384-1.038-4.099-2.242-1.7-1.19-3.299-2.162-4.796-2.917a22.078 22.078 0 0 0-4.84-1.806c-1.744-.436-3.27-.689-4.578-.762-1.308-.073-2.166.16-2.573.696-.392.552-.879 1.662-1.461 3.331-.581 1.668-.981 4.099-1.199 7.291-.218 3.193-.45 5.551-.697 7.074-.262 1.524-.538 2.3-.829 2.329-.29.044-1.925.066-4.905.066-2.979 0-8.539-.363-16.678-1.089-8.139-.725-14.134-1.197-17.986-1.414-3.851-.218-11.409.399-22.673 1.85-11.264 1.451-18.386 2.43-21.365 2.938-2.98.508-6.577 1.705-10.792 3.592-4.215 1.886-7.667 3.591-10.355 5.115l-4.034 2.285-.043.065-.066.044-.065.043-.044.066-.218.108-.218.109-.218.066-.218.043.044.218.065.217.066.044.043.065.327.109.327.109.218.109.218.109 12.1 3.482c8.066 2.322 14.207 4.245 18.422 5.768 4.215 1.524 7.085 2.685 8.612 3.483 1.526.798 2.361 1.233 2.507 1.306l.218.109.043.065.066.043.065.044.044.065.043.066.066.043.065.044.044.065.043.065.066.044v.217l-.066.044-.043.065-.044.066-.065.043-.066.044-.043.065-.044.065-.065.044-.066.043-.043.066-.044.065-.065.043-.066.044-.043.065-.044.066-.065.043-.066.044-.043.065-.044.065-.065.044-.066.043-.043.066-.218.108a5.383 5.383 0 0 0-.545.327c-.218.145-.654.254-1.308.326-.655.073-1.345 0-2.072-.217-.726-.218-2.361-.363-4.905-.436-2.543-.072-4.941.037-7.194.327-2.253.29-4.688.762-7.304 1.415-2.616.653-4.869 1.451-6.758 2.394-1.889.943-3.089 1.632-3.597 2.068-.509.435-1.141 1.211-1.897 2.329-.77 1.132-1.664 3.185-2.681 6.16-1.018 2.974-1.963 5.441-2.835 7.4a32.866 32.866 0 0 1-3.052 5.442c-1.163 1.668-5.138 5.855-11.925 12.559-6.802 6.718-10.457 10.346-10.966 10.883-.509.551-1.235 1.175-2.18 1.872-.945.682-1.563 1.19-1.853 1.523-.291.32-.742.661-1.352 1.023-.625.363-1.955 1.089-3.99 2.177-2.034 1.088-4.338 2.01-6.911 2.764-2.587.769-4.788 1.335-6.605 1.698l-2.725.544V702h-3.053v-.109l-.872-.109-.872-.108-.327-.109a87.082 87.082 0 0 1-1.526-.544c-.8-.291-1.838-.893-3.117-1.807-1.265-.9-2.37-1.857-3.314-2.873-.945-1.016-1.672-2.032-2.18-3.047-.509-1.016-.945-2.213-1.308-3.592-.364-1.378-.582-3.845-.654-7.4-.073-3.556.218-8.163.872-13.822.654-5.659 1.002-9.758 1.046-12.298l.044-3.809-.218.044-.218.065-1.417.109c-.945.072-2.108.254-3.489.544-1.38.29-3.197.472-5.45.544-2.253.073-3.779.058-4.578-.043-.8-.117-1.403-.864-1.81-2.242-.392-1.379-.625-3.447-.697-6.204l-.11-4.135-.108-.218-.11-.218-.065-.043-.043-.065h-.436c-.291 0-.8.072-1.526.217-.727.145-2.762.762-6.105 1.85a235.457 235.457 0 0 1-9.701 2.939c-3.125.87-5.632 1.342-7.522 1.415-1.89.072-3.233 0-4.033-.218-.8-.218-1.671-.58-2.616-1.088-.945-.508-1.693-1.031-2.246-1.568l-.806-.827-.066-.043-.043-.065.043-.066.066-.043.109-.218c.073-.145.254-.435.545-.871.29-.435.654-.87 1.09-1.306.436-.435 1.184-.783 2.245-1.044 1.047-.247 3.46-.661 7.238-1.241 3.78-.58 7.994-1.379 12.645-2.394 4.651-1.016 8.067-1.959 10.247-2.83 2.18-.871 3.67-1.632 4.469-2.285l1.199-.98.044-.065.065-.044.065-.043.044-.066.044-.065.065-.043v-.653l-.065-.044-.044-.065-.044-.065a1.458 1.458 0 0 1-.218-.218c-.116-.102-1.155-.929-3.117-2.481-1.962-1.568-2.958-2.424-2.987-2.569-.044-.145-.61-.617-1.7-1.415-1.09-.798-3.256-2.343-6.497-4.636l-4.84-3.417-.218-.109-.218-.109h-.436l-.044.065-.065.044-.11.544c-.072.363-.508 1.887-1.307 4.571-.8 2.685-1.635 4.861-2.507 6.53-.872 1.669-1.563 2.793-2.072 3.374-.508.58-1.148 1.102-1.918 1.567a5.474 5.474 0 0 1-2.55.827c-.945.073-1.745 0-2.399-.218-.654-.217-1.562-.74-2.725-1.567-1.163-.842-1.759-1.335-1.788-1.48-.043-.145-.305-.399-.785-.762-.465-.363-.734-.631-.806-.805-.073-.189-.509-.885-1.308-2.09-.8-1.19-1.272-1.785-1.417-1.785-.146 0-.763-1.102-1.853-3.308a57.857 57.857 0 0 1-2.9-7.096c-.828-2.496-1.482-5.195-1.962-8.097l-.698-4.353v-6.748h.11l.108-1.414c.073-.944.255-2.104.545-3.483.291-1.378.8-2.829 1.526-4.353.727-1.524 2.18-3.41 4.36-5.659 2.18-2.25 3.561-3.955 4.143-5.115.581-1.161 1.054-2.757 1.417-4.789.363-2.031.436-3.882.218-5.55-.218-1.669-.814-3.338-1.788-5.007-.988-1.668-1.555-2.503-1.7-2.503-.146 0-.509-.42-1.09-1.262a84.597 84.597 0 0 1-2.18-3.309c-.872-1.378-1.614-2.989-2.224-4.832-.625-1.857-.938-3.874-.938-6.051 0-2.176.218-3.809.654-4.897.436-1.088 1.09-2.104 1.962-3.047.873-.943 1.796-1.72 2.77-2.329.988-.624 2.281-1.176 3.88-1.654Zm103.992 117.276-.218.108h-1.308l-.044-.065-.065-.043v-1.089l.654-2.612c.436-1.741.966-3.265 1.591-4.571.61-1.305.988-1.958 1.134-1.958.145 0 .596-.508 1.351-1.524.771-1.016 1.759-2.09 2.965-3.221 1.192-1.118 1.875-1.655 2.05-1.611.189.029.356.95.501 2.764.145 1.814.073 3.41-.218 4.789a12.045 12.045 0 0 1-1.461 3.765c-.697 1.118-1.446 2.039-2.245 2.765-.8.725-1.744 1.305-2.834 1.741-1.09.435-1.708.689-1.853.762Z" fill="#000" stroke="#000" stroke-width=".5"/><path d="M696.121 667.291a3.82 3.82 0 0 0-.375-.797c-.427-.681-.734-1.427-1.095-2.143-12.23-25.626-15.228-27.191-24.324-36.338-3.054-3.07-9.625-9.285-9.625-9.285.034-.249.049-.5.035-.749-.277-.425-.107-.646-.364-1.745-1.062-1.979-1.693-2.334-2.219-3.508-.194-.387-1.955-3.142-3.061-3.933-.718-.584-2.678-3.465-3.654-4.787a9.533 9.533 0 0 1-.024-.231c-.598-1.229-1.673-2.144-2.837-2.818a.444.444 0 0 1-.321-.445c-.712-1.318.125-1.085-2.717-2.365l-.227-.033a2.532 2.532 0 0 0-.929-.37c-.195-.114-.424-.081-.635-.078.099-.12.089-.248.005-.37-.194-.283.031-1.08.059-1.399.071-.786.063-1.576.147-2.36-.052-.196-.078-.441-.164-.624-.087-.184-.273-.311-.327-.512-.117-.43.67-1.706.595-2.813-.021-.306-.143-.587-.236-.875-.203-.628.34-.817.439-2.147l-.006.127c.45-2.106 2.895-7.313 3.587-8.415 1.041-1.656 5.264-8.546 5.578-10.468.037-.061 2.299-5.83 2.201-7.9.443.202 2.884 3.177 3.21 3.557 2.342 2.727 3.051 3.014 6.557 4.876 1.502.798 1.567 1.028 3.51 1.641 2.12.67 2.772 2.021 6.056 2.455 1.084.143 2.286.293 3.377.194.449-.041.875.186 1.329.11 1.773-.294 3.263-1.811 3.823-3.461.241-.71.38-1.447.519-2.178.227-.655.128-1.354.15-2.032-.007-.493.052-1.022-.211-1.464-.167-.782-.591-1.166-.519-2.211-.201-.412.03-.875-.156-1.285-.012-.525.137-1.038.094-1.563-.029-.339.189-.672.039-1-.154-.489.013-.969-.031-1.458-.103-1.164-1.399-2.747-1.546-3.243-.196-.698-2.088-2.586-2.768-3.773-.553-1.008-1.356-1.898-2.351-2.481-.314-.275-.75-.468-.87-.901-.242-.7-.445-1.413-.737-2.094-.548-2.3-2.564-4.384-3.425-5.651-.477-.679-1.158-1.164-1.785-1.692-1.353-1.187-2.858-3.626-4.36-4.734-.222-.85-.019-1.734-.166-2.593-.076-.37-.075-.746-.093-1.12-.415-3.04-1.876-4.591-2.825-6.797-2.094-3.805-4.45-7.941-8.505-9.553-.562-.216-1.175-.269-1.738-.476-2.069-1.186-5.107-1.58-6.731-1.358-3.779.476-1.528-.934-10.7-1.259-1.326-.097-2.615-.429-3.928-.607-.519-.113-1.08-.04-1.56-.295.08-.498-.083-.976-.128-1.466-.216-.441-.29-.984-.69-1.309-.696-.435-1.589-.637-2.381-.362-.286.134-.503.368-.765.537.128-.443.114-.909.226-1.355.162-.646-.347-1.263-.139-1.899.247-1.069-.716-2.838-1.473-3.285.005-.412.082-.824.009-1.234-.056-.489-.363-.894-.521-1.349-.187-.434-.317-.893-.522-1.318-.406-.469-.573-1.14-1.16-1.437-.223-.41-.067-.887-.188-1.319 0 0-.141-4.561-2.183-13.718-.42-1.125-.335-2.361-.738-3.488-.213-.899-.319-1.822-.565-2.715-.353-1.449-1.431-2.549-2.052-3.875-.457-1.053-1.283-1.873-2.007-2.741-.408-.451-.499-1.095-.899-1.547-.767-.37-1.539-.74-2.231-1.242-.482-.363-1.041-.6-1.535-.942-.592-.39-1.283-.57-1.928-.847-.476-.187-.896-.484-1.358-.701-.829-.217-1.642-.521-2.499-.607-.36-.032-.673-.295-1.043-.237-.626.07-1.246.211-1.877.216-.661-.021-1.315-.224-1.977-.119-1.157.116-.293.202-3.039.021-.549-.049-1.077.183-1.626.13-.576-.054-1.192.219-1.502.71-.216.501-.479 1.15-1.083 1.252-.718.064-1.518.08-2.095.575-.371.329-.835.564-1.112.988-.523.718-1.41.997-2.095 1.521-.548.406-1.27.22-1.871.467-.562.223-1.173.385-1.627.804-2.145 1.738-4.296 2.352-4.452 5.972-.308.473-1.945 3.33-1.992 5.581-.111.267-.137.561-.236.833-1.08 1.713-.892 3.962-.908 5.415-.004.374.332.904.54 1.206.085.394.48.586.649.933.141.321.395.57.655.801.305 1.018.014.52.786 1.953.782 1.451.386.802 2.245 2.705.12 1.162.19.801.452 2.295.068.391.308.617.457.976.217.523 1.268.426 1.222 1.286.118.277.321.502.561.683-.032.872.1 1.764-.145 2.613-.628 2.334.799 3 .965 3.142.636.527 1.497.796 2.318.63.045.685.274 1.384.028 2.061.091 1.03 1.004 1.749 1.831 2.247.164.272.218.585.261.896.096.414.374.914.879.829.326.338.578.74.893 1.091.641.758.326 3.196 1.681 3.816.891.485 1.877-.057 2.814-.027.673.03 1.311-.264 1.983-.236.775.04 1.615-.307 1.729.023 2.208 7.261 2.266 6.778 2.002 6.942-2.864 2.296-5.703 5.352-5.973 5.688-1.329 1.44-.346.662-1.767 1.501-.299.099-.629.001-.929.099-.883.25-1.961 1.28-3.393 1.962-.3.184-.629.316-.923.507-1.807 1.179-1.725 1.351-2.946 2.511-.201.166-.293.409-.413.63-.599.751-.717.369-2.454 3.173-.979 1.656-2.656 4.088-2.884 5.306-.772 1.371-1.009 5.611-1.212 6.347-.145.528-.458.82-.659 1.679-.509 1.233-.6 2.566-1.276 3.63-1.221 1.918-4.419 4.613-5.298 7.082-.039.062-.992 1.41-1.116 1.761-.035.062-1.029 1.727-1.223 2.199-.641 2-.375 1.854-.634 3.028-.509.614-.425.823-1.439 1.137-.658.298-7.342 2.05-9.757 3.78-.399.287-.872.437-1.311.647-.289.193-.589.371-.928.46-.333.2-1.555.562-2.098.815-.792.483-1.739.629-2.569 1.042-2.319 1.257-3.349 2.182-4.07 2.33-.739.617-1.582.824-1.984 1.057-2.983 1.195-2.328 1.211-3.9 1.375-.704.18-1.443.025-2.144.248-.279.105-.571.203-.873.199-.492-.018-.96.165-1.452.137l-.132.064c-1.022.135-2.019.423-3.025.644-.462.269-3.441 1.231-3.606 1.291-1.853.792-2.154.377-3.035.754-.489.122-1.053.317-2.211.003-1.844-1.545-3.045-1.222-5.128-2.409-.196-.112-.449-.341-.687-.341-2.021-.737-1.63-.547-2.108-.692-.696-.177-.731-.306-1.166-.402-.734-.397-1.429-.914-1.887-1.621-.513-.864-1.673-.941-2.298-1.692-.287-.358-.667-.638-.918-1.027-.152-.409-.436-.754-.57-1.167-.576-1.091-.229-.707-.965-1.093-.349-.016-.7-.013-1.049-.008-.659.448-2.625 1.407-.546 5.284.342.786.82 1.59 1.599 2.009.447.241.816.736 1.166 1.095.106.109.553.422.577.556.032.179-1.614 1.451-2.552 1.451-.228.103-.496.043-.714.174-.398.004-.79.069-1.156.231-1.887.359-.719-.234-3.93 1.054-.338.172-.735.118-1.08.274-1.824.847-1.116-.344-3.485 1.001-1.323.444-3.344.44-3.774 1.231-.417.766.083 2.868 2.276 2.825 2.411-.048 7.853-1.417 7.791-1.409.618-.073 1.213.008 1.828-.142.513-.053 1.017-.185 1.537-.144-.701.556-1.5.992-2.131 1.636-.524.318-.881.831-1.387 1.171-.19.635-.927.814-1.37 1.234-.274-.108-.556-.055-.818.056-.653.212-1.396.114-1.979.532l-.228.033c-1.303.601-2.516.284-3.412.634-1.204.471-.821 2.286.103 2.684.201 0 .346.088.434.214l.133.093c.006.631-.032.444.478 1.082.217.273.454.416.806.401.673-.027 1.831.135 3.381-1.023.155-.117.246-.321.412-.421.315-.189.672-.292.994-.466.42-.226.766-.235 1.249-.285.699-.073 1.727-.574 1.682-.611.703.573 1.781-.447 5.257-.31.281.011.363.085.509.307l.041-.029a.586.586 0 0 0-.03.045c.075.122.156.331.19.574.103.146.039.356.059.529a5.445 5.445 0 0 1-.082.126.445.445 0 0 1-.151.217c-.702.963-.66.624-1.019 1.026-.411.469-1.037.65-1.49 1.07-.886.879-1.84 1.021-3.662 2.353-.373.096-.627.306-.925.532-.421.319-1.086.446-1.261 1.025-.259 1.219 1.32 2.063 3.217 1.133.738-.385 1.497-.727 2.23-1.122 1.065-.511 2.011-1.251 3.123-1.668.319-.116.609-.3.85-.538.42-.412.945-.69 1.375-1.089 1.273-1.158 2.592-.875 3.158-.944 9.668-1.171 8.765-2.076 10.991-3.632.362-.164.762-.227 1.129-.381.512-.224 1.093-.076 1.614-.275.711-.272 1.525-.286 2.272-.367.674-.074 1.287-.332 1.953-.364 4.221-.204 13.232-.328 21.705-1.919 4.248-.798 4.28-.847 8.905-3.255 0 0 2.36-1.905 6.644-4.418.731-.192 1.405-.572 1.987-1.05.387-.309.496-.816.791-1.193.573-.668 1.036-1.432 1.702-2.019.477-.505 1.121-.813 1.575-1.342 1.443-1.601 8.429-6.917 9.642-9.321.262-.531.735-.909 1.066-1.392.786-1.331 1.579-2.662 2.467-3.932.362-.486.525-1.08.834-1.598.544-.939.67-2.135 1.196-2.062.059.376 1.027 3.672 1.094 3.86.311 1.274.991 2.405 1.551 3.577 1.088 2.98.323 1.999 1.436 4.149.425.826-.107.287.057 2.175.149.844.102 1.733.463 2.531.248.518.216 1.102.138 1.657-.447.417-.69.994-.812 1.583-.085.494-.615.704-.809 1.138-.638 1.52-.491 2.288-.119 2.924-.582.717-.623-.381-2.116 4.379-.149.376.102.736.113 1.113-.388.14-.677.484-.807.867.045.398.255.765.248 1.176-.31.139-.739.151-.899.498-.258.415.053.887.128 1.311-.899.388-3.092.594-4.093 1.015-.439.142-.442.67-.569 1.038-1.228.501-1.542.469-1.565.824-.664.067-2.026 1.172-2.4 1.435-.429.303-.812.704-.98 1.211-.124.647-.196 1.31-.103 1.968-.635.69-1.122.691-1.644 2.005l-.275.091c.039 1.267.354.373.128 2.412-.062.423-.429.4-1.928 1.347-.524.33-.984.769-1.564 1.007-.432.182-.893.306-1.289.565-1.793 1.142-3.493 1.809-3.684 2.393-.155.465-.352.92-.403 1.413-1.037 1.076-1.18.553-1.78.951-1.293.8-3.77 4.249-4.467 4.705-1.109.78-1.991 1.818-2.854 2.852-.488.498-2.111 2.056-3.258 3.711-2.692 2.899-1.658 1.226-4.121 4.753-.401.702-.967 1.293-1.337 2.015-.413.781-1.233 1.185-1.862 1.761-.542.464-2.205 2.565-2.753 3.077-.613.672-1.321 1.288-1.692 2.137a43.483 43.483 0 0 1-2.434 2.701c-.764.759-.974 1.864-1.593 2.722 0 0-.82 1.524-3.255 4.877-.833 1.142-1.319 2.507-2.227 3.597-.467.687-1.036 1.296-1.504 1.984-1.478 2.006-5.901 9-7.603 10.805-1.516 1.708-2.728 3.698-4.498 5.169-.163.166-.233.392-.313.608-.267.769-.482.782-1.776 2.658-1.186 1.663-.676 4.417-1.229 6.358-.154.746-.694 1.321-.975 2.017-.369.679-.476 1.456-.821 2.146-.832 2.302-4.59 8.708-6.04 13.804-.13.453-.418.831-.635 1.244-.386.705-2.12 5.921-2.242 6.737-.058.468-.485.751-.685 1.156-.345.668-.917 1.214-1.117 1.957-.125.506-.593.836-.715 1.345-.204.671.12 1.337.283 1.979.152.701-.101 1.395-.323 2.051-.503 1.196.224.934-2.185 3.612-.867-.043-1.918.269-2.234 1.167-.229.84.012 1.709.019 2.563.056 6.859 1.354 6.849-.702 9.674-.438.58-.712 1.262-.982 1.931-.112.453-.027.931-.092 1.395-.307.21-.583.494-.65.877-.092.58-.371 1.104-.613 1.633-.697 1.119-1.542 3.871-3.275 5.42-.692.583-.974 1.49-1.616 2.117-.426.511-.949.94-1.304 1.509-.175.25-.362.499-.605.69-.706.145-1.493-.014-2.131.391-.492.311-1.096.417-1.545.795-1.203 1.303-2.956 2.102-5.672 4.341-.505.345-1.181.279-1.681.646-3.671 2.679-6.579.423-10.563 2.593-.534.309-1.133.48-1.735.599-.562.091-.952.552-1.478.738-2.766 1.108-2.484 3.698-3.015 4.079-.821.612-.673 2.335-.284 2.899.52.76.443 1.145 2.436 2.731 2.002.822.427 1.84 6.499 2.01 2.666.074 5.108-.387 7.654-1.089 1.023-.282 2.168-.374 3.145-.725 1.433-.513 2.991-.693 4.44-1.24 3.559-1.345 8.938-4.346 18.474-5.467 1.386-.163 2.767-.678 4.146-.978 2.459-.536 2.102-1.339 1.776-3.943a3.065 3.065 0 0 1-.488-.556c.659-1.755.667-2.459.282-3.222-.537-1.037.029-3.363.041-3.657-.106-.442-.466-.752-.728-1.102.168-.046.326-.12.349-.31 1.795-5.476 3.394-5.841 4.22-7.091.373-.44.668-.999 1.224-1.233.717-.358 1.542-.342 2.288-.611 3.314-1.327 3.383-1.957 5.181-2.989.54-.43 1.112-.816 1.63-1.272.54-.39.883-.978 1.378-1.414.651-.605 1.463-1.006 2.087-1.641.707-.706 1.522-1.283 2.294-1.91.52-.43 1.131-.722 1.712-1.055.635-.36 1.112-.949 1.782-1.254 1.045-.443 2.644-2.413 3.62-2.765.39-.387.929-.595 1.289-1.016.44-.355.96-.604 1.362-1.006.33-.289.617-.633 1.001-.855.537-.308.903-.823 1.343-1.245.682-.662 1.33-2.639 2-2.879.185-.517.641-.842.965-1.261.043-.79.86-1.147 1.313-1.69 1.167-1.046 2.164-2.268 3.313-3.335.341-.33.557-.759.858-1.12.36-.44.79-.832 1.043-1.35.124.016.254.04.381.064l-.211-.132c.757-1.238 1.812-2.246 2.724-3.36.24-.354.248-.805.477-1.163.461-.724 1.093-1.316 1.581-2.02 1.145-1.492 3.067-4.869 3.121-5.14.164-.726.926-1.468 1.484-1.955l2.481-2.922c.357-.42.322-.517.513-1.018.246-.644.913-.976 1.11-1.679.178-.697 1.489-1.504 1.914-2.301.217-.393.562-.702.729-1.124.192-.468.459-.905.592-1.395.569-1.874 1.928-2.252 3.841-3.971 0 0 3.62-2.999 4.598-3.759 0 0 7.576-5.615 11.366-9.951.062-.059 3.502-3.381 3.832-3.739 1.658-1.879 4.925-3.159 6.239-4.146.717-.279 1.31-.779 1.993-1.121 1.097-.322 2.211-.639 3.361-.691 2.132-.088 2.232-1.656 3.249-1.746 1.314-.179 2.637-.384 3.968-.315 2.118.328 5.633 3.201 6.81 3.741.766.357 1.263 1.069 1.947 1.545 1.348.941 2.62 2.978 3.725 3.248.727.227 1.321.734 2.045.966 3.343 1.322 1.688 1.165 6.396 3.658.827.414 1.751.745 2.343 1.496.537.51.885 1.191 1.475 1.649a27.488 27.488 0 0 1 1.701 1.679c.449.484 1.06.797 1.452 1.338.243.343.683.498.871.892.267.493.63.923.962 1.375.482.559.816 1.272 1.492 1.642.29.134.451.53.246.802-1.259 1.732-1.225 2.902-1.381 3.496-.211 1.081-.863 1.003-.929 3.754-1.314.597-2.83.872-3.887 1.925-.86.757-.052 1.51.812 6.479.087.503.074 1.664.444 2.049 1.484 1.545.701 4.659.725 6.159-1.719 1.469-3.852 1.194-3.566 3.388.051.403.291.745.511 1.077.356.535.396 1.203.69 1.768.283.535.48 1.119.608 1.707-.068.396.742 1.352.08 3.07-.269.679-.261 1.417-.315 2.134-.066.804 1.11.767.316 3.21-.332.55-.774 1.03-1.065 1.606-.231.461.181.983-.083 1.437-.306.766-1.066 1.191-1.547 1.826-.754.996-1.73 1.648-2.652 2.452-1.815 1.582-4.031 7.518-2.895 10.928.269.716.779 1.3 1.308 1.839 2.13 2.171 3.893 4.338 6.735 5.618 2.062.928 2.528 2.91 3.613 3.928.705.662 1.281 1.483 1.563 2.416.208.797.225.428 1.471 3.407.821 2.298.547 5.148 2.106 7.332.801 1.123.454 2.078 2.03 2.481 1.715.438 3.468.793 5.126 1.422.76.298 1.625.231 2.334.675 2.095.848 6.913.533 9.143.285 2.663-.073 4.403-.787 4.611-1.549-.026-.459-.249-.873-.403-1.294 1.414-1.555-1.564-4.764-2.531-5.81-.426-.461-.754-1.005-1.209-1.436-1.045-.988-2.098-1.954-3.004-3.066-.766-.941-1.896-1.562-2.462-2.663-.415-1.242-.076-1.653-1.679-2.752-.454-.286-.597-.837-.808-1.296-.155-.336-.534-.417-.715-.705-.446-.706.242-1.436-.339-3.175-.217-.649-.652-1.139-.652-1.847-.182-.584-.408-1.15-.608-1.725-.264-.704.301-1.367-1.389-2.213-.211-.64-.277-1.325-.474-1.969-.234-.474-.523-.928-.692-1.428.183-.654.451-1.293.572-1.967 1.336-5.654.618-3.526 1.481-4.719.39-.59.963-1.072 1.127-1.786.066-.289 2.188-.073 2.457-.09.951-.057 1.882-.199 2.822-.347 2.155-.34-.137.371 5.232-1.04 3.297-.825 7.79-2.447 11.294-4.548 2.509-1.351 1.908-1.223 2.531-2.84.18-.466.206-1.016.623-1.351.168-.677.447-1.332.47-2.036-.006-.427.307-.747.417-1.136.289-2.233 1.348-3.258 1.75-4.784.249-1.016.905-1.438 1.187-3.589.464-.476.788-1.062 1.185-1.59.97-1.537 1.787-5.18 2.248-5.552 5.575-5.346 8.44-15.086 8.485-15.528.633-4.628-.476-8.221-1.732-11.905Z" fill="#000"/></svg>