<svg width="1024" height="768" fill="none" xmlns="http://www.w3.org/2000/svg"><g clip-path="url(#a)"><path d="M263.753 677.506s4.93-20.561 39.442-13.707c34.512 6.853 39.442 13.707 39.442 13.707h-78.884ZM93.659 650.581s4.93-20.561 39.442-13.707c34.512 6.854 39.442 13.707 39.442 13.707H93.659ZM382.079 677.506s-27.609-16.645-39.442 0h39.442ZM253.399 630.51s-27.609-16.645-39.442 0h39.442Z" fill="#3F3D56"/><path d="M98.515 615.217c8.22 15.137 25.666 21.634 25.666 21.634s4.118-18.043-4.102-33.179c-8.22-15.137-25.665-21.634-25.665-21.634s-4.119 18.043 4.101 33.179Z" fill="#2F2E41"/><path d="M104.165 610.237c14.84 8.866 20.556 26.474 20.556 26.474s-18.346 3.236-33.186-5.629c-14.84-8.866-20.555-26.474-20.555-26.474s18.345-3.236 33.185 5.629Z" fill="#14FF00"/><path d="M918.985 665.267s4.931-20.56 39.442-13.707c34.512 6.854 39.442 13.707 39.442 13.707h-78.884Z" fill="#3F3D56"/><path d="M840.101 677.506c-23.978-3.727-47.033-6.898-69.165-9.511l8.523-16.924c-2.958-.98-15.777 8.811-15.777 8.811l10.846-48.954c-14.79 1.958-21.693 51.892-21.693 51.892l-16.763-16.645 8.252 18.845c-67.723-7.066-126.162-9.271-175.287-8.765l7.295-14.486c-2.958-.979-15.777 8.812-15.777 8.812l10.846-48.954c-14.79 1.958-21.693 51.891-21.693 51.891l-16.763-16.644 8.74 19.959a990.92 990.92 0 0 0-100.599 8.044c7.278-22.515 32.696-44.158 32.696-44.158-19.544 6.037-29.712 15.873-34.974 24.991a390.628 390.628 0 0 1 21.169-136.117s-39.442 88.117-33.525 146.862l.75 10.436c-34.314 5.315-51.532 10.615-51.532 10.615h464.431Z" fill="#2F2E41"/><path d="M582.741 722.054s181.434-26.435 293.844 0ZM315.521 758.28s181.434-26.435 293.844 0ZM651.765 768s107.46-27.061 174.038 0ZM951.908 659.352l-1.752-.898c22.76-43.691 10.589-100.43-3.628-140.334a428.72 428.72 0 0 0-36.757-77.03l1.666-1.046a430.914 430.914 0 0 1 36.95 77.422c14.348 40.269 26.604 97.574 3.521 141.886ZM968.788 440.395l-12.793 69.52 1.939.352 12.793-69.52-1.939-.352Z" fill="#3F3D56"/><path d="m883.717 499.624-1.445 1.335 66.066 70.494 1.444-1.335-66.065-70.494ZM1002.49 577.06l-33.514 46.028 1.598 1.147 33.506-46.028-1.59-1.147Z" fill="#3F3D56"/><path d="M974.697 421.965c5.446 0 9.861-4.384 9.861-9.791s-4.415-9.791-9.861-9.791c-5.445 0-9.86 4.384-9.86 9.791s4.415 9.791 9.86 9.791Z" fill="#F9A826"/><path d="M867.217 497.355c5.446 0 9.861-4.384 9.861-9.791 0-5.408-4.415-9.791-9.861-9.791-5.445 0-9.86 4.383-9.86 9.791 0 5.407 4.415 9.791 9.86 9.791ZM910.604 507.145c5.446 0 9.86-4.383 9.86-9.791 0-5.407-4.414-9.791-9.86-9.791s-9.861 4.384-9.861 9.791c0 5.408 4.415 9.791 9.861 9.791Z" fill="#3F3D56"/><path d="M890.883 545.329c5.446 0 9.861-4.383 9.861-9.79 0-5.408-4.415-9.791-9.861-9.791-5.446 0-9.861 4.383-9.861 9.791 0 5.407 4.415 9.79 9.861 9.79Z" fill="#F9A826"/><path d="M1014.14 569.807c5.45 0 9.86-4.384 9.86-9.791 0-5.408-4.41-9.791-9.86-9.791-5.45 0-9.86 4.383-9.86 9.791 0 5.407 4.41 9.791 9.86 9.791ZM981.6 580.576c5.446 0 9.86-4.383 9.86-9.79 0-5.408-4.414-9.791-9.86-9.791s-9.861 4.383-9.861 9.791c0 5.407 4.415 9.79 9.861 9.79ZM1004.28 611.907c5.44 0 9.86-4.383 9.86-9.791 0-5.407-4.42-9.791-9.86-9.791-5.447 0-9.862 4.384-9.862 9.791 0 5.408 4.415 9.791 9.862 9.791ZM900.743 433.714c5.446 0 9.861-4.384 9.861-9.791s-4.415-9.791-9.861-9.791c-5.445 0-9.86 4.384-9.86 9.791s4.415 9.791 9.86 9.791Z" fill="#3F3D56"/><path d="M323.685 372.024c0 121.025-72.459 163.282-161.843 163.282C72.459 535.306 0 493.049 0 372.024 0 251 161.842 97.037 161.842 97.037S323.685 251 323.685 372.024Z" fill="#70FF00"/><path d="m155.947 516.793 1.657-101.286 68.981-125.306-68.721 109.416.745-45.542 47.542-90.658-47.345 78.606 1.341-81.91 50.908-72.176-50.698 59.296.837-150.196-5.261 198.831.431-8.202-51.758-78.667 50.929 94.413-4.823 91.479-.144-2.428-59.669-82.784 59.489 91.362-.603 11.441-.108.172.049.939-12.236 232.092h16.348l1.961-119.88 59.343-91.138-59.195 82.126Z" fill="#3F3D56"/><path d="M857.518 335.945c0 147.853-88.522 199.478-197.719 199.478-109.197 0-197.719-51.625-197.719-199.478S659.799 0 659.799 0s197.719 188.092 197.719 335.945Z" fill="#14FF00"/><path d="m652.597 512.806 2.024-123.739 84.273-153.084-83.955 133.672.911-55.638 58.08-110.754-57.84 96.03 1.637-100.068 62.195-88.174-61.937 72.438L659.008 0l-6.429 242.907.529-10.021-63.233-96.104 62.219 115.34-5.893 111.759-.174-2.966L573.13 259.78l72.676 111.614-.738 13.977-.131.21.06 1.148-14.948 283.542h19.971l2.397-146.456 72.497-111.341-72.317 100.332Z" fill="#3F3D56"/><path d="m500.094 548.891 9.01 27.69s-8.152 25.987-4.291 54.955c3.862 28.968 1.717 29.82 1.717 29.82s-38.581-2.206-34.72 9.296c3.862 11.503 41.584 4.762 41.584 4.762s7.245-1.937 10.677-22.385c3.433-20.448 12.062-59.833 12.062-59.833l-8.115-37.181-27.924-7.124Z" fill="#FFB8B8"/><path d="M503.097 492.233s-16.303 5.964-16.303 22.152c0 16.188 6.006 38.341 9.868 39.619 3.861 1.278 29.603 18.744 34.322 6.39 4.719-12.354-27.887-68.161-27.887-68.161Z" fill="#DBF926"/><path d="m639.53 683.934 34.322-1.278 26.172-3.834-7.723 25.56-63.497 1.703 10.726-22.151Z" fill="#FFB8B8"/><path d="M688.868 687.342s-.429-9.372-4.29-8.946c-3.861.426-1.287-3.408 2.145-4.26 3.433-.852 13.3-5.112 13.3-5.112l39.042 2.556s25.313 22.152 15.017 34.08c-10.297 11.928-36.897 1.278-36.897 1.278l-28.746.426s-9.438-15.336.429-20.022Z" fill="#2F2E41"/><path d="m704.314 654.539 12.441 57.937 25.743-5.112-14.588-72.421-15.445-8.094-8.151 27.69Z" fill="#FFB8B8"/><path d="M556.297 647.298s-72.077 32.376-41.616 65.178c0 0 0 15.336 32.178 12.354 32.177-2.982 94.387-8.52 97.39-6.816 3.003 1.704 12.442-33.654 4.29-35.358-8.151-1.704-18.019-3.834-18.019-3.834s8.581-1.278 8.581-8.52c0 0 24.455-1.704 31.748-17.04 7.294-15.336 14.158-26.838 14.158-26.838l16.733 42.6s19.306-35.358 33.893-19.596c0 0-16.303-101.815-28.745-111.187s-21.023-12.354-32.607-3.834c-11.583 8.52-22.309 30.246-22.309 30.246l-95.675 82.645ZM728.339 695.01a96.406 96.406 0 0 0-8.58 7.242c-3.433 3.408-8.152 1.704-8.581 0-.429-1.704-8.152 1.278-9.01 13.632-.858 12.354-6.006 23.43 7.723 27.264 13.729 3.834 13.3 14.91 13.3 14.91a46.576 46.576 0 0 0 34.751 2.13c19.307-6.39 12.442-13.206 12.442-13.206l-25.742-42.174s-6.864-12.78-16.303-9.798Z" fill="#2F2E41"/><path d="M657.12 483.713s41.187 14.058 45.478 17.04c4.29 2.982 23.597 17.04 14.158 24.282-9.439 7.242-17.161 11.928-35.61 6.39-18.448-5.538-39.042-22.578-39.042-22.578l15.016-25.134Z" fill="#FFB8B8"/><path d="M615.933 464.969s16.303-2.982 27.887 3.408c11.584 6.39 21.451 19.17 21.451 19.17s-10.725 22.578-18.448 25.986c-7.723 3.408-21.881-13.632-21.881-13.632l-9.009-34.932Z" fill="#DBF926"/><path d="M540.852 452.615s.429 16.614-1.287 18.318c-1.716 1.704 20.594 51.973 45.049 29.821 24.454-22.153 5.577-31.099 5.577-31.099s-9.01-16.614-8.581-18.318c.429-1.704-39.9 0-39.9 0l-.858 1.278Z" fill="#FFB8B8"/><path opacity=".1" d="M540.852 452.615s.429 16.614-1.287 18.318c-1.716 1.704 20.594 51.973 45.049 29.821 24.454-22.153 5.577-31.099 5.577-31.099s-9.01-16.614-8.581-18.318c.429-1.704-39.9 0-39.9 0l-.858 1.278Z" fill="#000"/><path d="M547.716 484.565s16.304 11.076 23.168 8.52c6.865-2.556 15.445-13.632 16.304-14.484.858-.852 44.619 86.478 44.619 86.478s-6.436 31.95-23.597 41.322c-17.161 9.372-16.947 16.827-19.092 23.217-2.145 6.39-29.818-20.235-29.818-20.235l-17.59-74.124v-45.156l6.006-5.538Z" fill="#DBF926"/><path d="M540.637 464.756s-5.362-1.065-10.94 3.621c-5.577 4.686-31.748 22.152-30.461 23.856 1.287 1.704 12.871 25.986 15.445 35.784 2.574 9.798 6.435 11.076 6.435 11.076s9.01 6.39 7.723 11.076c-1.287 4.686-6.864 68.586.858 82.645 7.723 14.058 6.436 26.412 4.29 29.82-2.145 3.408 20.594-9.798 20.594-9.798s33.894-27.264 36.468-35.358a94.74 94.74 0 0 0 3.432-17.04s-21.881-86.053-28.745-90.739c-6.865-4.686-25.099-44.943-25.099-44.943ZM587.771 465.093s10.572-6.514 12.717-4.81c2.145 1.704 22.31 1.704 22.739 3.408.429 1.704 1.287 42.6 15.874 53.25 14.587 10.65 5.148 31.95 5.148 31.95l10.726 17.04s-58.348 55.802-54.487 36.636c.214-1.065 0-1.278 0-1.278s-22.739-96.702-19.736-101.814c3.004-5.112 8.46-28.294 7.019-34.382Z" fill="#3D3E3D"/><path d="m677.713 504.161-58.348 20.022s-57.919 13.632-48.91 29.395c9.01 15.762 47.194-11.077 47.194-11.077l77.7-8.644s30.845-25.862-17.636-29.696ZM564.02 468.377c17.534 0 31.748-14.114 31.748-31.524s-14.214-31.524-31.748-31.524-31.749 14.114-31.749 31.524 14.215 31.524 31.749 31.524Z" fill="#FFB8B8"/><path d="m538.736 405.524-5.872-2.121s12.279-12.193 29.364-11.132l-4.806-4.771s11.746-4.241 22.424 6.891c5.613 5.852 12.107 12.731 16.156 20.48h6.289l-2.625 5.213 9.188 5.212-9.43-.936a26.128 26.128 0 0 1-.892 13.501l-2.136 5.831s-8.542-16.964-8.542-19.084v5.301s-5.873-4.771-5.873-7.952l-3.203 3.711-1.602-5.831-19.754 5.831 3.204-4.771-12.28 1.59 4.805-5.831s-13.881 6.892-14.415 12.723c-.533 5.831-7.474 13.253-7.474 13.253l-3.203-5.301s-4.805-23.856 10.677-31.807Z" fill="#2F2E41"/><g clip-path="url(#b)"><path d="M356.47 216.076c-2.896.28-6.816-.093-10.257-.977-2.537-.652-4.87-1.821-13.716-6.875-6.349-3.627-10.846-6.423-11.121-6.914-1.375-1.198-1.486-1.943-.998-3.869 1.374-2.169 4.111-1.978 8.137.569l2.676 1.693-2.104-7.797-2.104-7.798-2.177.579-2.177.579-2.961-1.713c-1.629-.942-2.992-1.825-3.029-1.962-.037-.137 10.042-2.939 22.398-6.227l22.465-5.976 3.059 1.769 3.06 1.77-4.151 1.108c-2.284.61-4.733 1.37-5.442 1.689l-1.291.581 2.966 10.503c1.632 5.777 3.894 14.072 5.028 18.434l2.062 7.93-3.073-1.746-3.074-1.746-.822-3.047-.822-3.047-1.791.723c-6.803 2.745-16.423-2.804-17.239-9.944-.716-6.274 4.805-10.529 11.771-9.072 1.245.26 2.304.465 2.352.455.048-.011-.414-1.879-1.027-4.151l-1.115-4.133-9.865 2.625-9.864 2.624 2.57 9.945c2.862 11.076 2.869 11.199.805 13.055l-1.041.936 3.868 2.293c2.873 1.702 4.53 2.42 6.438 2.789 2.767.534 6.575.549 8.549.033 1.048-.274 1.651-.074 4.186 1.392 1.628.942 2.991 1.825 3.028 1.962.085.316-1.644.715-4.157.958Zm-3.137-16.669c1.331-1.021 2.512-2.809 2.851-4.319.139-.619-.033-2.066-.413-3.476-.769-2.848-1.133-3.052-4.062-2.272-3.793 1.009-6.082 4.498-5.401 8.235.436 2.389 1.045 3.521 1.892 3.516 1.462-.009 4.059-.861 5.133-1.684Zm-25.237 1.993c-.696-1.353-.774-1.376-1.396-.421l-.531.817.963.592c1.225.754 1.642.328.964-.988Z" fill="#000"/></g><g clip-path="url(#c)"><path d="m384.229 456.478-4.084-1.91-1.657-4.522-1.657-4.521-1.558 2.006c-.856 1.104-2.741 2.835-4.189 3.847-3.13 2.188-5.643 2.638-10.836 1.94-10.963-1.474-19.703-11.207-16.589-18.473l.814-1.901-1.968-1.34c-1.224-.834-2.706-2.056-3.924-3.183-1.332-1.209-2.225-2.65-3.722-3.633-.433-.38-.728-.49-1.929-.056-1.489.538-2.165.385-5.787-1.309-2.256-1.055-4.154-2.062-4.219-2.239-.065-.177 11.988-4.696 26.785-10.044l26.902-9.722 4.237 1.981 4.238 1.982-4.947 1.788c-2.721.983-5.829 2.25-6.907 2.814l-1.96 1.027 8.613 23.492c4.737 12.921 8.571 23.582 8.521 23.69-.051.108-1.93-.664-4.177-1.714Zm-18.789-11.387c1.948-1.857 4.861-7.55 5.655-11.053l.583-2.57-3.357-9.157-3.356-9.156-10.925 3.948-10.924 3.948-.351 1.486c-.47 1.986.806 5.236 2.655 6.764 1.374 1.136 1.567 1.148 4.381.27l2.943-.918 4.452 1.86 4.452 1.86-2.673.99c-3.49 1.292-5.212 2.574-6.257 4.659-1.22 2.434-1.343 4.246-.451 6.672.974 2.651 3.059 4.418 4.924 4.173.737-.097 1.569-.173 1.849-.168 1.041.017 4.851-2.131 6.4-3.608Z" fill="#000"/></g><g clip-path="url(#d)"><path d="m945.301 348.898-3.475-6.282 1.805-6.689 1.805-6.689-3.335.221c-8.555.566-18.141-5.353-23.448-14.479-8.084-13.904-2.887-26.706 11.397-28.075 2.325-.223 5.711.018 7.701.547 5.52 1.469 7.736 3.235 14.501 11.557.974 1.199 1.096.911 3.703-8.751l2.696-9.991-13.159-3.501-13.159-3.502-3.374-5.854-3.374-5.855 37.489 9.975 37.486 9.974 3.5 5.876 3.5 5.876-19.462-5.167-19.466-5.167-2.763 10.241c-1.52 5.632-2.594 10.286-2.387 10.341.208.055 1.524-.365 2.926-.933 7.046-2.855 14.963-1.649 20.463 3.118 3.624 3.141 7.572 9.94 8.443 14.539.691 3.655-.467 9.776-2.562 13.543-1.799 3.234-7.907 10.823-8.569 10.646-.23-.061-1.873-2.649-3.651-5.751l-3.233-5.64 3.563-4.086c4.01-4.599 7.025-10.122 7.071-12.948.029-1.824-.108-1.918-3.84-2.617-5.781-1.083-9.022-.174-18.081 5.07l-8.226 4.762-4.505 15.986-4.504 15.986-3.476-6.281Zm-7.095-31.542c1.71-.328 5.05-1.546 7.423-2.707 3.951-1.933 4.379-2.351 5.082-4.956.667-2.474.508-3.243-1.22-5.895-2.359-3.62-4.915-4.987-9.697-5.185-9.074-.375-17.104 5.004-17.41 11.665-.214 4.665 8.369 8.504 15.822 7.078Z" fill="#000"/></g><g clip-path="url(#e)"><path d="M775.186 89.909c-4.49-7.402-6.28-12.081-5.913-15.458.097-2.79.947-4.525 2.939-6.28l1.474-1.334-.171-1.963c-.095-1.079.017-2.195.028-2.517.076-2.155.755-3.578 2.356-4.958.754-.7 1.626-1.081 2.797-1.222 1.574-.19 2.115-.057 7.21 1.775l5.509 1.981.871-2.377.872-2.376-5.515-1.993-5.515-1.993-1.301-2.803-1.301-2.803 12.128 4.383 12.128 4.383 1.301 2.803 1.301 2.803-4.539-1.64-4.539-1.64-1.619 4.417-1.619 4.418-6.189-2.126c-5.917-2.032-6.241-2.108-7.407-1.73-1.626.528-2.944 1.741-3.508 3.228-.394 1.04-.368 1.213.183 1.185 3.799-.196 6.735.822 8.909 3.087 4.675 4.874 4.497 12.87-.317 14.192l-1.088.298-1.259-2.712-1.259-2.712.955-.223c1.943-.454 3.86-3.236 3.2-4.644-.508-1.08-3.85-2.134-6.14-1.936-4.825.416-8.064 3.69-7.798 7.88.114 1.799.988 3.65 4.09 8.667 1.185 1.918 2.32 3.896 2.522 4.395.363.9.358.913-.465 1.27-.814.352-.887.27-3.311-3.725Z" fill="#000"/></g></g><defs><clipPath id="a"><path fill="#fff" d="M0 0h1024v768H0z"/></clipPath><clipPath id="b"><path fill="#fff" transform="matrix(.96638 -.25711 .26054 .96546 314.551 180.704)" d="M0 0h53.614v53.285H0z"/></clipPath><clipPath id="c"><path fill="#fff" transform="matrix(.94047 -.33988 .34417 .9389 322.01 419.751)" d="M0 0h64.269v63.92H0z"/></clipPath><clipPath id="d"><path fill="#fff" transform="matrix(.96638 .25711 -.26054 .96546 925.475 259.457)" d="M0 0h88.5v87.959H0z"/></clipPath><clipPath id="e"><path fill="#fff" transform="matrix(.94047 .33988 -.34416 .9389 768.998 41.107)" d="M0 0h47.352v47.095H0z"/></clipPath></defs></svg>