<svg width="1024" height="768" fill="none" xmlns="http://www.w3.org/2000/svg"><g clip-path="url(#a)"><path d="M988.163 321.522c-51.209 57.903-147.838 71.162-227.789 50.995-26.161-6.76-51.399-16.05-75.256-27.701-13.858-6.654-27.384-13.953-40.634-21.731-3.26-1.905-6.52-3.84-9.747-5.814a551.475 551.475 0 0 1-6.575-4.035c-27.362-17.021-53.651-35.694-79.499-54.259-64.526-46.344-130.819-94.114-210.098-116.226-16.332-4.554-37.462-6.684-47.562 5.55-8.763 10.621-3.415 25.658 4 37.052 27.506 42.201 77.433 68.846 127.405 89.336 49.971 20.49 102.905 37.091 146.345 67.049 43.44 29.958 76.604 77.573 67.719 125.636-7.658 41.42-45.905 75.071-90.373 89.738-44.468 14.656-94.064 12.614-140.29 3.097-46.225-9.527-90.108-26.147-134.72-40.472-26.897-8.647-62.06-14.627-79.908 5.16-15.073 16.718-6.409 43.09 11.946 57.004 18.355 13.914 43.198 18.575 66.901 22.757a2921897.55 2921897.55 0 0 0 220.795 38.976c22.577 3.977 45.684 8.14 65.354 18.732 19.671 10.582 35.54 29.068 34.976 49.422-.564 20.06-17.173 37.784-37.529 46.666-20.344 8.872-43.838 10.24-66.503 9.283-84.936-3.596-328.44-122.91-386.843-138.163-37.529-9.791-78.56-24.174-94.385-55.812-19.704-39.387 12.72-87.041 56.978-105.029 44.247-17.999 95.545-14.012 143.77-7.954 48.226 6.058 98.043 13.767 144.987 2.257 46.943-11.51 89.953-49.031 85.323-91.906-4.034-37.306-42.037-65.418-82.031-77.807-31.306-9.703-64.613-12.341-97.5-16.709-9.128-1.202-18.223-2.55-27.229-4.211-23.066-4.273-45.565-10.659-67.134-19.054-22.634-8.791-44.136-19.702-64.138-32.547-15.954-10.23-30.863-21.677-44.557-34.209a263.906 263.906 0 0 1-6.2-5.872 218.712 218.712 0 0 1-5.746-5.863C17.972 149.034-.086 117.229 5.33 84.457c5.403-32.684 34.213-59.897 68.514-72.97C93.67 3.932 115.053.552 136.702.063c15.829-.28 31.654.728 47.275 3.01 72.283 10.22 138.522 41.273 201.08 74.895 62.547 33.622 123.504 70.527 191.499 94.496 67.995 23.978 145.395 34.13 214.374 12.448 68.979-21.672 125.647-80.807 122.277-145.462 45.75 34.834 84.626 78.618 101.844 129.779 17.22 51.161 10.3 110.237-26.887 152.292Z" fill="#3F3D56"/><path d="M658.527 254.704c4.442 0 8.043-3.184 8.043-7.111 0-3.928-3.601-7.111-8.043-7.111-4.442 0-8.042 3.183-8.042 7.111 0 3.927 3.6 7.111 8.042 7.111Z" fill="#F9A826"/><path d="M942.532 164.785c6.867 0 12.434-4.922 12.434-10.994 0-6.073-5.567-10.995-12.434-10.995-6.867 0-12.434 4.922-12.434 10.995 0 6.072 5.567 10.994 12.434 10.994ZM126.985 503.749c2.538 0 4.595-1.819 4.595-4.063 0-2.243-2.057-4.062-4.595-4.062-2.537 0-4.594 1.819-4.594 4.062 0 2.244 2.057 4.063 4.594 4.063ZM258.856 266.16a38.641 38.641 0 0 1-1.436 10.455c-9.128-1.201-18.223-2.55-27.229-4.211-23.066-4.273-45.565-10.659-67.134-19.054 3.469-9.902 10.838-18.376 20.769-23.883 9.932-5.508 21.768-7.685 33.36-6.135 11.592 1.55 22.171 6.724 29.817 14.582 7.646 7.858 11.851 17.88 11.853 28.246Z" fill="#FF6584"/><path d="M862.966 229.274c2.595 0 4.699-1.86 4.699-4.155 0-2.294-2.104-4.154-4.699-4.154-2.595 0-4.698 1.86-4.698 4.154 0 2.295 2.103 4.155 4.698 4.155ZM433.092 686.56c2.595 0 4.698-1.86 4.698-4.155 0-2.294-2.103-4.154-4.698-4.154s-4.699 1.86-4.699 4.154c0 2.295 2.104 4.155 4.699 4.155ZM500.501 744.209c2.595 0 4.699-1.86 4.699-4.154 0-2.295-2.104-4.155-4.699-4.155-2.595 0-4.699 1.86-4.699 4.155 0 2.294 2.104 4.154 4.699 4.154ZM83.887 580.055c2.595 0 4.699-1.86 4.699-4.154 0-2.295-2.104-4.155-4.699-4.155-2.595 0-4.698 1.86-4.698 4.155 0 2.294 2.103 4.154 4.698 4.154ZM314.848 502.864c2.595 0 4.699-1.86 4.699-4.155 0-2.294-2.104-4.154-4.699-4.154-2.595 0-4.699 1.86-4.699 4.154 0 2.295 2.104 4.155 4.699 4.155ZM291.642 90.525c2.595 0 4.698-1.86 4.698-4.155 0-2.294-2.103-4.154-4.698-4.154s-4.699 1.86-4.699 4.154c0 2.295 2.104 4.155 4.699 4.155ZM575.646 415.901c2.596 0 4.699-1.86 4.699-4.154 0-2.295-2.103-4.155-4.699-4.155-2.595 0-4.698 1.86-4.698 4.155 0 2.294 2.103 4.154 4.698 4.154ZM611.009 488.207c2.595 0 4.699-1.86 4.699-4.154 0-2.295-2.104-4.155-4.699-4.155-2.595 0-4.699 1.86-4.699 4.155 0 2.294 2.104 4.154 4.699 4.154Z" fill="#F0F0F0"/><path d="M187.468 99.632c.035 20.977-5.571 41.661-16.355 60.346a129.05 129.05 0 0 1-4.531 7.26c-15.791 23.58-39.418 42.284-67.664 53.565-15.953-10.23-30.863-21.677-44.556-34.208a263.951 263.951 0 0 1-6.2-5.873 220.176 220.176 0 0 1-5.746-5.862C17.972 149.035-.086 117.23 5.33 84.458c5.403-32.685 34.213-59.897 68.514-72.97C93.67 3.933 115.053.552 136.701.064c16.927 13.217 30.271 29.635 39.042 48.034a127.303 127.303 0 0 1 3.084 7.036c5.735 14.286 8.658 29.337 8.641 44.497Z" fill="#00FFA3"/><path d="M255.983 106.472c0 20.353-22.477 39.231-63.299 53.174-8.166 2.794-16.908 5.325-26.102 7.592-34.412 8.481-75.366 13.181-118.42 13.484a218.715 218.715 0 0 1-5.746-5.863c.464.01.928.01 1.392.01 46.756 0 91.114-5.237 127.305-14.891 6.686-1.788 13.095-3.723 19.184-5.804 37.529-12.81 59.055-30.202 59.055-47.702 0-17.5-21.526-34.883-59.055-47.703a270.372 270.372 0 0 0-11.47-3.634 126.553 126.553 0 0 0-3.084-7.036 300.888 300.888 0 0 1 16.941 5.199c40.822 13.943 63.299 32.83 63.299 53.174Z" fill="#fff"/><path d="M50.735 33.853c2.595 0 4.699-1.86 4.699-4.155s-2.104-4.155-4.7-4.155c-2.594 0-4.698 1.86-4.698 4.155 0 2.294 2.104 4.155 4.699 4.155ZM149.087 60.234c2.595 0 4.698-1.86 4.698-4.154 0-2.295-2.103-4.155-4.698-4.155s-4.699 1.86-4.699 4.155c0 2.294 2.104 4.154 4.699 4.154ZM98.253 138.497c25.236 0 45.693-18.088 45.693-40.402 0-22.313-20.457-40.401-45.693-40.401-25.235 0-45.693 18.088-45.693 40.401 0 22.314 20.458 40.402 45.693 40.402Z" fill="#F0F0F0"/><path opacity=".3" d="M218.898 619.942 68.695 509.304l145.919 115.07c.283.42.675.776 1.144 1.036.469.26 1.001.418 1.552.459a3.906 3.906 0 0 0 1.619-.218 3.5 3.5 0 0 0 1.326-.849c.36-.372.614-.814.742-1.291a2.733 2.733 0 0 0-.008-1.447 2.971 2.971 0 0 0-.756-1.285 3.5 3.5 0 0 0-1.335-.837ZM801.562 332.038l177.536-130.754-172.473 135.991a3.905 3.905 0 0 1-1.351 1.225 4.511 4.511 0 0 1-1.836.543 4.608 4.608 0 0 1-1.913-.259 4.13 4.13 0 0 1-1.568-1.003 3.5 3.5 0 0 1-.876-1.525 3.226 3.226 0 0 1 .01-1.711 3.519 3.519 0 0 1 .892-1.518c.43-.436.972-.775 1.579-.989Z" fill="#F0F0F0"/><path d="M104.884 200.938c2.595 0 4.698-1.86 4.698-4.155 0-2.294-2.103-4.154-4.698-4.154s-4.699 1.86-4.699 4.154c0 2.295 2.104 4.155 4.699 4.155Z" fill="#F0F0F0"/><path d="m499.514 678.185 19.435-.001 9.246-66.284-28.685.001.004 66.284Z" fill="#FFB6B6"/><path d="m494.556 672.574 5.47-.001 21.358-7.679 11.447 7.678h.002c6.469.001 12.672 2.273 17.247 6.317 4.574 4.045 7.144 9.53 7.144 15.25v.701l-62.667.002-.001-22.268Z" fill="#2F2E41"/><path d="m353.965 678.185-19.435-.001-9.246-66.284 28.684.001-.003 66.284ZM462.475 209.101l-41.441-13.68 11.051-36.641 21.549-1.954 8.841 52.275Z" fill="#FFB6B6"/><path d="m358.922 694.842-62.668-.002v-.701c.001-5.72 2.571-11.205 7.145-15.25 4.574-4.044 10.778-6.316 17.247-6.317h.002l11.447-7.678 21.357 7.679 5.471.001-.001 22.268Z" fill="#2F2E41"/><path d="m423.604 170.2-19.679 13.25-52.276 12.241s18.731 116.237 9.891 124.054c-8.841 7.817-.868 8.027-2.644 18.181-1.776 10.155-8.855 36.965-8.855 36.965h156.023s1.257-16.662-6.434-20.27c-7.691-3.609 7.09-20.45.804-23.266-6.285-2.816 2.556-27.244 2.556-27.244l19.159-79.976-50.96-35.253-7.75-16.511-39.835-2.171Z" fill="#21E94D"/><path d="M448.159 274.069c3.76 0 6.809-2.696 6.809-6.021 0-3.325-3.049-6.02-6.809-6.02-3.761 0-6.809 2.695-6.809 6.02 0 3.325 3.048 6.021 6.809 6.021Z" fill="#F2F2F2"/><path d="m350.041 374.891-6.434 146.489s-27.78 108.195-22.955 111.039c4.826 2.845 6.87 19.805 6.87 19.805l27.344 2.845s0-11.378 6.434-15.645c6.434-4.266 65.948-204.8 65.948-204.8l58.061 193.887s1.453 10.913 6.279 10.913c4.825 0 6.434 15.645 6.434 15.645h27.344v-15.645s12.286-3.444 7.461-14.822c-4.826-11.378-26.763-249.711-26.763-249.711H350.041Z" fill="#2F2E41"/><path d="M444.039 161.471c18.211 0 32.974-13.054 32.974-29.156 0-16.102-14.763-29.155-32.974-29.155s-32.974 13.053-32.974 29.155 14.763 29.156 32.974 29.156Z" fill="#FFB6B6"/><path opacity=".1" d="m500.434 263.246 6.434 4.267 3.217-19.911-9.651 15.644Z" fill="#000"/><path d="M354.733 195.578s-8.043-1.422-12.868 11.378c-4.826 12.8-22.519 61.155-22.519 69.688 0 8.534 110.187 46.185 110.187 46.185l-11.465-35.563-50.467-23.422-12.868-68.266Z" fill="#21E94D"/><path d="M434.645 317.557c10.375 0 18.786-7.437 18.786-16.611s-8.411-16.611-18.786-16.611c-10.376 0-18.787 7.437-18.787 16.611s8.411 16.611 18.787 16.611Z" fill="#FFB6B6"/><path opacity=".1" d="m366.13 246.228 1.47 17.616 46.669 21.659-41.509-24.618-6.63-14.657Z" fill="#000"/><path d="M478.321 248.739h-.606v-14.664a7.63 7.63 0 0 0-.731-3.248 8.495 8.495 0 0 0-2.08-2.754 9.786 9.786 0 0 0-3.115-1.84 10.706 10.706 0 0 0-3.673-.646h-35.138c-1.261 0-2.509.22-3.674.646a9.792 9.792 0 0 0-3.114 1.84 8.512 8.512 0 0 0-2.081 2.754 7.644 7.644 0 0 0-.73 3.248v80.451c0 1.115.248 2.219.73 3.248a8.512 8.512 0 0 0 2.081 2.754 9.781 9.781 0 0 0 3.114 1.84c1.165.426 2.413.646 3.674.646h35.138c1.261 0 2.509-.22 3.673-.646a9.786 9.786 0 0 0 3.115-1.84 8.495 8.495 0 0 0 2.08-2.754 7.63 7.63 0 0 0 .731-3.248v-55.348h.606v-10.439Z" fill="#EBEBEB"/><path d="M522.149 224.135s4.825 2.845 8.042 15.645c3.217 12.8 24.128 61.155 16.085 72.533-8.042 11.378-10.416 23.521-37.761 6.455l-37.838-30.633 27.345-22.755 11.259 7.111 12.868-48.356Z" fill="#21E94D"/><path d="M450.976 261.445c4.442 0 8.043-3.184 8.043-7.112 0-3.927-3.601-7.111-8.043-7.111-4.441 0-8.042 3.184-8.042 7.111 0 3.928 3.601 7.112 8.042 7.112Z" fill="#404040"/><path d="M474.258 286.523c10.375 0 18.786-7.437 18.786-16.611s-8.411-16.61-18.786-16.61c-10.376 0-18.787 7.436-18.787 16.61s8.411 16.611 18.787 16.611Z" fill="#FFB6B6"/><path opacity=".1" d="m365.243 299.395 53.93 21.093-55.428-9.578 1.498-11.515Z" fill="#000"/><path d="m410.772 138.126-4.527-15.235c-1.182-3.975-2.373-8.031-2.107-12.134.265-4.104 2.233-8.338 6.143-10.561 3.91-2.223 9.878-1.698 12.394 1.758.478-5.518 6.156-9.763 12.18-11.267 6.024-1.504 12.42-.909 18.673-.655 6.253.254 12.853.076 18.249-2.728a4.449 4.449 0 0 1-.076 3.35c-.461 1.075-1.328 1.977-2.453 2.553a6.133 6.133 0 0 0 4.002-.389c1.23-.573 2.168-1.538 2.623-2.7.041 3.196-1.295 6.286-3.736 8.643 2.328-1.022 5.004-1.24 7.505-.615 2.502.627 4.65 2.053 6.027 4.003 2.754 4.222 1.211 9.524-.4 14.185l-8.27 23.922c-1.254-3.637-1.491-7.476-2.162-11.232-.671-3.755-1.864-7.59-4.668-10.472-2.804-2.883-7.566-4.552-11.549-3.121-2.235.803-3.939 2.432-5.957 3.601-4.14 2.399-9.407 2.743-14.326 2.255-4.919-.488-9.712-1.726-14.63-2.221-3.08-.31-6.516-.228-8.84 1.586-1.598 1.468-2.653 3.331-3.026 5.342a37.726 37.726 0 0 0-1.279 12.253" fill="#2F2E41"/></g><defs><clipPath id="a"><path fill="#fff" d="M0 0h1024v768H0z"/></clipPath></defs></svg>