<svg width="1024" height="768" fill="none" xmlns="http://www.w3.org/2000/svg"><path d="M1022.81 635.561C1022.81 681.866 798.329 768 515.56 768 232.79 768 0 687.206 0 640.902c0-46.305 232.79-40.587 515.56-40.587 282.769 0 507.25-11.059 507.25 35.246Z" fill="#3F3D56"/><path opacity=".1" d="M1022.81 635.561C1022.81 681.866 798.329 768 515.56 768 232.79 768 0 687.206 0 640.902c0-46.305 232.79-40.587 515.56-40.587 282.769 0 507.25-11.059 507.25 35.246Z" fill="#000"/><path d="M512 724.21c282.77 0 512-37.538 512-83.842 0-46.305-229.23-83.843-512-83.843S0 594.063 0 640.368c0 46.304 229.23 83.842 512 83.842Z" fill="#3F3D56"/><path d="M705.835 355.222v224.232l41.669 61.126 3.171 4.649h164.413l3.321-290.007H705.835Z" fill="#2F2E41"/><path opacity=".1" d="M705.835 355.222v224.232l41.669 61.126 2.557-285.358h-44.226Z" fill="#000"/><path d="M308.918 349.242v224.232L267.25 634.6l-3.172 4.649H99.664l-3.321-290.007h212.575Z" fill="#2F2E41"/><path opacity=".1" d="M308.918 349.242v224.232L267.25 634.6l-2.558-285.358h44.226Z" fill="#000"/><path d="M968.232 344.757v13.455H74.753v-19.434l83.037-38.866h737.369l73.073 44.845Z" fill="#2F2E41"/><path opacity=".1" d="M968.232 344.758v13.454H74.753v-19.433l893.479 5.979ZM202.63 412.028h-39.858l-16.607-10.465h74.733l-18.268 10.465ZM202.63 455.379h-39.858l-16.607-10.465h74.733l-18.268 10.465ZM202.63 516.669h-39.858l-16.607-10.464h74.733l-18.268 10.464ZM202.63 577.959h-39.858l-16.607-10.464h74.733l-18.268 10.464ZM812.122 418.007h39.858l16.607-10.464h-74.733l18.268 10.464ZM812.122 461.358h39.858l16.607-10.464h-74.733l18.268 10.464ZM812.122 522.648h39.858l16.607-10.463h-74.733l18.268 10.463ZM812.122 583.939h39.858l16.607-10.465h-74.733l18.268 10.465Z" fill="#000"/><path d="m631.861 262.503-5.539 31.836s-27.272 13.041-8.097 13.425c19.176.383 109.514 0 109.514 0s17.471 0-10.227-13.808l-5.539-33.371-80.112 1.918Z" fill="#3F3D56"/><path opacity=".1" d="M614.367 307.418a76.7 76.7 0 0 1 11.954-7.122l5.54-31.836 80.111.068 5.54 31.385a73.87 73.87 0 0 1 12.801 7.582c3.558-.731 7.445-3.446-12.801-13.54l-5.54-33.37-80.111 1.918-5.54 31.836s-22.916 10.96-11.954 13.079Z" fill="#000"/><path d="M839.264 40.61H503.717c-7.009 0-12.69 5.114-12.69 11.422v203.459c0 6.309 5.681 11.423 12.69 11.423h335.547c7.009 0 12.69-5.114 12.69-11.423V52.032c0-6.308-5.681-11.422-12.69-11.422Z" fill="#3F3D56"/><path d="M839.81 52.692H503.171v169.537H839.81V52.692Z" fill="#767676"/><path d="M671.491 49.24c1.176 0 2.13-.859 2.13-1.918s-.954-1.918-2.13-1.918c-1.177 0-2.131.859-2.131 1.918 0 1.06.954 1.918 2.131 1.918Z" fill="#F2F2F2"/><path d="M851.954 235.653v19.838a10.42 10.42 0 0 1-.965 4.372 11.422 11.422 0 0 1-2.751 3.706 12.852 12.852 0 0 1-4.117 2.476c-1.54.574-3.19.869-4.857.869H503.717c-1.667 0-3.317-.295-4.857-.869a12.862 12.862 0 0 1-4.117-2.476 11.436 11.436 0 0 1-2.751-3.706 10.452 10.452 0 0 1-.965-4.372v-19.838h360.927Z" fill="#3F3D56"/><path d="M671.491 258.667c4.471 0 8.096-3.262 8.096-7.287s-3.625-7.288-8.096-7.288c-4.472 0-8.097 3.263-8.097 7.288s3.625 7.287 8.097 7.287Z" fill="#F2F2F2"/><path d="M658.873 328.476v3.837H429.618v-3.069l.316-.768 5.65-13.808h218.602l4.687 13.808ZM747.099 324.721c-.418 1.607-1.994 3.303-5.557 4.906-12.784 5.754-38.777-1.534-38.777-1.534s-20.028-3.069-20.028-11.124c.562-.346 1.149-.66 1.755-.939 5.375-2.56 23.196-8.875 54.793.267 2.328.658 4.408 1.884 6.007 3.543a5.611 5.611 0 0 1 1.555 2.245c.315.849.401 1.752.252 2.636Z" fill="#3F3D56"/><path opacity=".1" d="M747.099 324.721c-15.648 5.397-29.595 5.8-43.908-3.149-7.219-4.51-13.777-5.627-18.699-5.542 5.375-2.56 23.196-8.875 54.793.267 2.328.658 4.408 1.884 6.007 3.543a5.611 5.611 0 0 1 1.555 2.245c.314.849.401 1.752.252 2.636Z" fill="#000"/><path d="M727.48 321.572c3.06 0 5.54-.687 5.54-1.534s-2.48-1.534-5.54-1.534c-3.059 0-5.54.687-5.54 1.534s2.481 1.534 5.54 1.534Z" fill="#F2F2F2"/><path opacity=".1" d="M658.873 328.476v3.837H429.618v-3.069l.316-.768h228.939Z" fill="#000"/><path d="M840.083 105.043a16.36 16.36 0 0 1-5.903-1.097 15.544 15.544 0 0 1-5.004-3.126 14.394 14.394 0 0 1-3.344-4.677 13.61 13.61 0 0 1-1.174-5.518c0-1.894.399-3.769 1.174-5.518a14.4 14.4 0 0 1 3.344-4.678 15.538 15.538 0 0 1 5.004-3.125 16.368 16.368 0 0 1 5.903-1.098v28.837Z" fill="#F9A826"/><path d="M638.709 70.371c-2.167-2.243-.717-6.03 2.523-6.598l34.899-6.106c3.051-.534 5.43 2.22 4.352 5.039l-11.574 30.258c-1.078 2.818-4.837 3.67-6.876 1.559L638.709 70.37Z" fill="#00FFA3"/><path d="M588.441 196.536c-3.62 4.171-2.898 10.314 2.549 11.966.528.16 1.061.308 1.598.442a34.004 34.004 0 0 0 11.952.799 33.117 33.117 0 0 0 11.382-3.378c3.51-1.788 6.595-4.181 9.079-7.042 2.483-2.861 4.316-6.134 5.394-9.633a24.982 24.982 0 0 0 .888-10.758c-.492-3.603-1.767-7.085-3.753-10.245a27.55 27.55 0 0 0-.863-1.289c-3.098-4.358-9.895-3.502-13.515.669l-12.355 14.235-12.356 14.234Z" fill="#D0CDE1"/><rect width="72.641" height="19.294" rx="5" transform="matrix(.93414 -.35692 .42652 .90448 466.318 80.772)" fill="#F7DF1E"/><g clip-path="url(#a)"><path d="M553.087 73.002h3.304v2.949h3.046V73h3.305v8.925h-3.305V78.95h-3.017v2.975h-3.333v-8.924Zm14.023 2.975h-2.917v-2.975h9.153v2.975h-2.931v5.949h-3.305v-5.95Zm7.687-2.975h3.463l2.127 3.143 2.126-3.143h3.463v8.924h-3.305v-4.423l-2.313 3.207-2.313-3.207v4.423h-3.248v-8.924Zm12.817 0h3.305v5.975h4.684v2.949h-7.989" fill="#000"/><path d="m552.972 133.918-4.742-47.905h52.129l-4.742 47.88-21.366 5.328" fill="#E44D26"/><path d="M574.294 135.147V89.945h21.309l-4.066 40.869" fill="#F16529"/><path d="M557.914 95.803h16.38v5.872h-9.224l.603 6.014h8.621v5.859h-14.598l-1.782-17.745Zm2.069 20.694h6.552l.46 4.695 7.299 1.759v6.13l-13.391-3.362" fill="#EBEBEB"/><path d="M590.617 95.803h-16.351v5.872h15.747l.604-5.871Zm-1.193 11.886h-15.158v5.872h8.046l-.762 7.631-7.284 1.759v6.104l13.362-3.336" fill="#fff"/></g><g clip-path="url(#b)"><path d="M704.816 159.514h-51.022v45.927h51.022v-45.927Z" fill="#F7DF1E"/><path d="M688.068 195.394c1.027 1.511 2.365 2.621 4.729 2.621 1.987 0 3.256-.894 3.256-2.128 0-1.48-1.304-2.004-3.491-2.865l-1.198-.463c-3.46-1.327-5.758-2.989-5.758-6.503 0-3.237 2.739-5.701 7.021-5.701 3.049 0 5.24.955 6.819 3.456l-3.733 2.158c-.822-1.327-1.709-1.85-3.086-1.85-1.404 0-2.294.802-2.294 1.85 0 1.294.891 1.818 2.948 2.62l1.198.463c4.074 1.572 6.374 3.175 6.374 6.779 0 3.886-3.391 6.014-7.945 6.014-4.452 0-7.329-1.91-8.737-4.413l3.897-2.038Zm-16.937.374c.753 1.203 1.438 2.22 3.085 2.22 1.576 0 2.569-.555 2.569-2.712v-14.674h4.795v14.733c0 4.468-2.911 6.502-7.159 6.502-3.839 0-6.062-1.788-7.193-3.942l3.903-2.127Z" fill="#000"/></g><path d="M788.183 103.782c0-5.481-7.629-10.676-19.326-13.897 2.699-10.726 1.499-19.26-3.787-21.992-1.218-.64-2.643-.945-4.198-.945v3.761c.862 0 1.555.152 2.136.439 2.55 1.315 3.656 6.324 2.793 12.767-.206 1.585-.543 3.255-.956 4.958-3.674-.81-7.685-1.434-11.903-1.838-2.53-3.12-5.154-5.954-7.797-8.433 6.11-5.11 11.846-7.91 15.745-7.91v-3.76c-5.155 0-11.903 3.305-18.726 9.04-6.823-5.701-13.571-8.973-18.726-8.973v3.761c3.88 0 9.635 2.783 15.746 7.86a82.237 82.237 0 0 0-7.742 8.415c-4.236.404-8.247 1.028-11.921 1.855a46.086 46.086 0 0 1-.975-4.891c-.881-6.442.206-11.451 2.737-12.784.562-.303 1.293-.438 2.155-.438v-3.761c-1.574 0-2.999.303-4.236.944-5.267 2.733-6.448 11.25-3.73 21.942-11.66 3.238-19.251 8.415-19.251 13.88 0 5.481 7.629 10.675 19.326 13.896-2.7 10.726-1.5 19.26 3.786 21.992 1.219.641 2.643.945 4.218.945 5.155 0 11.903-3.306 18.726-9.04 6.823 5.7 13.571 8.972 18.726 8.972 1.574 0 2.999-.303 4.236-.944 5.267-2.732 6.448-11.249 3.73-21.942 11.622-3.221 19.214-8.415 19.214-13.879Zm-24.406-11.25c-.694 2.176-1.556 4.42-2.531 6.662a77.327 77.327 0 0 0-2.455-4.047 90.43 90.43 0 0 0-2.699-3.947c2.661.355 5.229.793 7.685 1.333Zm-8.585 17.962c-1.462 2.277-2.962 4.435-4.518 6.442-2.793.22-5.623.338-8.472.338-2.831 0-5.661-.118-8.435-.321a92.23 92.23 0 0 1-4.537-6.409 85.237 85.237 0 0 1-3.899-6.712 85.328 85.328 0 0 1 3.881-6.729c1.462-2.277 2.961-4.435 4.517-6.442a108.32 108.32 0 0 1 8.473-.338c2.83 0 5.661.118 8.435.32a92.216 92.216 0 0 1 4.536 6.41 84.989 84.989 0 0 1 3.899 6.712 91.289 91.289 0 0 1-3.88 6.729Zm6.054-2.193a67.216 67.216 0 0 1 2.587 6.713 92.664 92.664 0 0 1-7.723 1.349 92.44 92.44 0 0 0 2.7-3.997 92.266 92.266 0 0 0 2.436-4.065Zm-19.007 17.995a72.466 72.466 0 0 1-5.211-5.396c1.687.067 3.412.118 5.155.118 1.762 0 3.505-.034 5.211-.118a68.26 68.26 0 0 1-5.155 5.396Zm-13.946-9.933a93.19 93.19 0 0 1-7.685-1.332c.693-2.176 1.556-4.419 2.53-6.662a78.03 78.03 0 0 0 2.456 4.047 110.58 110.58 0 0 0 2.699 3.947Zm13.853-35.096a72.444 72.444 0 0 1 5.211 5.397 128.888 128.888 0 0 0-5.155-.118c-1.762 0-3.506.033-5.211.118a68.24 68.24 0 0 1 5.155-5.397ZM728.274 91.2a92.178 92.178 0 0 0-5.136 8.045 67.483 67.483 0 0 1-2.586-6.712c2.455-.523 5.042-.978 7.722-1.333Zm-16.964 21.115c-6.635-2.546-10.928-5.886-10.928-8.533 0-2.648 4.293-6.004 10.928-8.534 1.612-.624 3.374-1.18 5.193-1.703 1.068 3.305 2.474 6.746 4.217 10.27-1.724 3.508-3.111 6.932-4.161 10.22a60.896 60.896 0 0 1-5.249-1.72Zm10.085 24.1c-2.549-1.315-3.655-6.324-2.793-12.766.206-1.586.544-3.255.956-4.959 3.674.81 7.685 1.434 11.903 1.839 2.531 3.12 5.155 5.953 7.798 8.432-6.111 5.11-11.847 7.91-15.746 7.91-.843-.017-1.556-.169-2.118-.456Zm44.463-12.851c.881 6.443-.207 11.452-2.737 12.784-.562.303-1.293.438-2.156.438-3.88 0-9.635-2.782-15.745-7.859a82.212 82.212 0 0 0 7.741-8.415c4.237-.405 8.248-1.029 11.922-1.855.431 1.703.768 3.339.975 4.907Zm7.216-11.249c-1.612.624-3.374 1.181-5.192 1.704-1.068-3.306-2.474-6.746-4.218-10.271 1.725-3.508 3.112-6.932 4.162-10.22a63.772 63.772 0 0 1 5.267 1.72c6.636 2.546 10.928 5.886 10.928 8.534-.018 2.647-4.311 6.004-10.947 8.533Z" fill="#61DAFB"/><path d="M742.183 111.489c4.731 0 8.566-3.451 8.566-7.707 0-4.257-3.835-7.708-8.566-7.708-4.731 0-8.566 3.451-8.566 7.708 0 4.256 3.835 7.707 8.566 7.707Z" fill="#61DAFB"/><path d="M468.262 92.378c25.064 0 45.382-18.29 45.382-40.85 0-22.56-20.318-40.85-45.382-40.85-25.063 0-45.382 18.29-45.382 40.85 0 22.56 20.319 40.85 45.382 40.85Z" fill="#FFB9B9"/><path opacity=".1" d="m344.656 206.864 5.374-26.337S318.98 302 322.562 315.975c3.583 13.975 29.857 35.475 33.44 36.55 3.583 1.075 37.022-92.449 37.022-92.449l-48.368-53.212Z" fill="#000"/><path d="m361.973 177.302-20.302 3.225S310.62 302 314.203 315.975c3.582 13.975 29.856 35.475 33.439 36.55 3.583 1.075 37.022-92.449 37.022-92.449l-22.691-82.774Z" fill="#D0CDE1"/><path opacity=".1" d="m588.286 213.314 10.151-17.738s14.331 121.474 4.777 133.299c-9.554 11.825-47.347 16.25-47.347 16.25l-.423-88.274 32.842-43.537Z" fill="#000"/><path d="m590.077 181.602 15.525 13.974s14.331 121.474 4.777 133.299c-9.554 11.825-47.347 16.25-47.347 16.25l-.423-88.274 27.468-75.249Z" fill="#D0CDE1"/><path d="M358.39 366.499s-34.633-11.824-40.605 10.75c-5.971 22.575 14.331 123.624 14.331 123.624s13.137 76.324 21.497 78.474c8.36 2.15 45.382 3.225 51.353-6.45 5.972-9.675-17.914-108.574-17.914-108.574l138.535-2.15s-8.36 85.999-13.137 93.524c-4.777 7.525-4.777 33.325 0 33.325s57.324-2.15 60.907-8.6c3.583-6.45 23.885-151.573 23.885-151.573s16.72-50.525-2.388-47.3c-19.108 3.225-236.464-15.05-236.464-15.05Z" fill="#3F3D56"/><path d="M562.609 576.122s11.942-7.525 17.914 0c5.971 7.525 8.36 16.125-17.914 29.025-26.274 12.9-46.576 9.675-46.576 7.525v-31.175l46.576-5.375ZM356.002 572.897s-11.943-7.525-17.914 0c-5.972 7.525-8.36 16.125 17.914 29.025 26.273 12.9 46.576 9.675 46.576 7.525v-31.175l-46.576-5.375Z" fill="#2F2E41"/><path d="m357.079 493.498-39.857 182.376h19.928l38.198-179.385-18.269-2.991ZM484.956 508.448l24.912 209.283h16.607l-14.947-215.263-26.572 5.98ZM553.046 502.467l34.876 139.025h16.607l-33.214-142.014-18.269 2.989ZM420.187 502.468l-4.982 110.621h13.286l9.965-110.621h-18.269Z" fill="#2F2E41"/><path d="M328.846 474.065s-26.572-159.952 48.162-164.437c74.733-4.484 181.021 0 181.021 0s61.447-4.484 43.179 164.437c0 0 16.607 49.331-132.859 44.846-149.467-4.484-139.503-44.846-139.503-44.846Z" fill="#F9A826"/><path d="M1009.76 539.384c0 27.892-18.42 37.631-41.144 37.631-22.724 0-41.146-9.739-41.146-37.631 0-27.893 41.146-63.376 41.146-63.376s41.144 35.483 41.144 63.376Z" fill="#14FF00"/><path d="m967.539 549.405 17.536-28.879-17.471 25.217.19-10.496 12.086-20.894-12.036 18.116.34-18.878 12.943-16.634-12.89 13.666.214-34.615-1.28 43.861-13.107-18.057 12.948 21.758-1.226 21.083-.037-.559-15.17-19.079 15.124 21.056-.153 2.637-.027.039.013.217-3.111 28.135h4.156l.498-2.273 15.088-21.005-15.051 18.928.423-23.344Z" fill="#3F3D56"/><path d="M994.894 637.521H945.84l-12.677-64.496h71.647l-9.916 64.496Z" fill="#2F2E41"/><path d="M274.095 201.489H172.051v107.69h102.044v-107.69Z" fill="#3F3D56"/><path d="M258.261 218.2h-70.375v74.268h70.375V218.2Z" fill="#C8C8C8"/><path d="M221.02 227.87h8.955v37.145c-4.593.782-7.966 1.094-11.629 1.094-10.933 0-16.631-4.429-16.631-12.923 0-8.181 6.048-13.496 15.409-13.496 1.454 0 2.559.104 3.896.416V227.87Zm0 18.697c-1.046-.312-1.918-.416-3.023-.416-4.536 0-7.153 2.501-7.153 6.878 0 4.274 2.501 6.618 7.095 6.618.988 0 1.802-.052 3.081-.208v-12.872Z" fill="#092E20"/><path d="M244.222 240.263v18.602c0 6.41-.524 9.484-2.094 12.142-1.454 2.554-3.373 4.169-7.327 5.941l-8.315-3.544c3.954-1.667 5.873-3.126 7.094-5.367 1.279-2.293 1.687-4.951 1.687-11.933v-15.841h8.955Zm-8.955-12.351h8.955v8.234h-8.955v-8.234Z" fill="#092E20"/><path d="M434.823 71.953v64.499h74.044s-9.554-53.75-4.777-69.874l-69.267 5.375Z" fill="#FFB9B9"/><path d="M581.717 159.027s-70.461-31.175-70.461-33.325c0-2.15-7.166-16.125-11.943-16.125-4.777 0-45.382-11.825-68.073 5.375l-2.389 13.975-87.181 51.6 23.886 78.474s15.525 15.049 10.748 25.799c-4.777 10.75 3.583 65.575 3.583 65.575L567.386 345v-73.099s5.971-17.2 9.554-22.575 0-21.5 0-21.5l28.662-32.25s-3.583-30.099-23.885-36.549Z" fill="#D0CDE1"/><path d="M468.556.02a42.341 42.341 0 0 0-13.329 1.71 53.699 53.699 0 0 0-9.495 4.523l-20.036 11.215c-1.701.663-3.146 1.764-4.152 3.165-1.007 1.4-1.53 3.038-1.503 4.707l-2.504 16.877c-.632 4.259-1.214 8.814.904 12.664 1.768 3.215 5.139 5.414 7.912 7.99 4.436 4.14 7.422 9.362 8.586 15.018 1.434 7.046.516 15.532 6.711 20.029 3.354 2.435 7.927 2.895 12.228 3.122 11.764.618 23.566.209 35.242-1.221a15.24 15.24 0 0 0 5.325-1.343c2.106-1.122 3.432-3.101 4.671-5 4.474-6.857 9.086-14.15 9.037-22.102-.024-3.934-1.142-8.16.956-11.61a46.32 46.32 0 0 1 3.604-4.214c2.598-3.286 3.104-7.508 3.528-11.523 1.352-12.826-.062-22.587-10.563-31.622C495.875 3.971 481.926.098 468.556.021Z" fill="#2F2E41"/><path d="M800.772 211.073a4 4 0 0 1-1.836-.442l-5.846-3.115c-.873-.44-.447-.595-.159-.685 1.164-.367 1.4-.449 2.643-1.085.13-.067.301-.043.435.028l4.491 2.399a.652.652 0 0 0 .543 0l17.51-9.098a.49.49 0 0 0 .268-.427V180.46a.498.498 0 0 0-.271-.434l-17.504-9.09a.59.59 0 0 0-.539 0l-17.5 9.09a.496.496 0 0 0-.278.43v18.189c0 .173.106.339.272.422l4.795 2.493c2.604 1.172 4.195-.209 4.195-1.598v-17.951c0-.257.224-.454.508-.454h2.218c.276 0 .504.197.504.454v17.959c0 3.125-1.893 4.92-5.185 4.92-1.012 0-1.81 0-4.037-.986l-4.593-2.383c-1.136-.592-1.837-1.697-1.837-2.876v-18.189c0-1.183.701-2.288 1.837-2.872l17.528-9.102c1.109-.564 2.582-.564 3.682 0l17.506 9.106c1.131.588 1.837 1.688 1.837 2.872v18.188c0 1.18-.706 2.281-1.837 2.873l-17.506 9.102a4 4 0 0 1-1.845.442" fill="#70FF00"/><path d="M806.181 198.54c-7.662 0-9.268-3.166-9.268-5.821 0-.253.226-.454.507-.454h2.262c.25 0 .46.164.499.386.342 2.074 1.359 3.121 5.992 3.121 3.691 0 5.26-.751 5.26-2.512 0-1.014-.447-1.768-6.18-2.273-4.795-.426-7.759-1.377-7.759-4.829 0-3.18 2.981-5.074 7.973-5.074 5.607 0 8.386 1.752 8.736 5.516a.431.431 0 0 1-.136.351.547.547 0 0 1-.372.146h-2.275c-.237 0-.443-.15-.491-.355-.548-2.182-1.872-2.88-5.47-2.88-4.028 0-4.497 1.262-4.497 2.209 0 1.148.552 1.484 5.987 2.131 5.383.643 7.938 1.55 7.938 4.955 0 3.433-3.182 5.401-8.731 5.401l.025-.018Zm21.303-19.271h.588c.482 0 .574-.304.574-.481 0-.466-.355-.466-.553-.466h-.604l-.005.947Zm-.714-1.491h1.302c.447 0 1.323 0 1.323.899 0 .628-.447.758-.714.837.521.031.556.339.627.773.035.272.092.742.197.9h-.802c-.022-.158-.145-1.026-.145-1.073-.053-.194-.127-.288-.394-.288h-.662v1.365h-.732v-3.413Zm-1.565 1.696c0 1.413 1.267 2.557 2.823 2.557 1.569 0 2.836-1.168 2.836-2.557 0-1.416-1.285-2.54-2.841-2.54-1.534 0-2.822 1.108-2.822 2.536l.004.004Zm6.202.008c0 1.673-1.521 3.038-3.375 3.038-1.841 0-3.375-1.349-3.375-3.038 0-1.72 1.569-3.038 3.375-3.038 1.819 0 3.371 1.322 3.371 3.038" fill="#70FF00"/><defs><clipPath id="a"><path fill="#fff" transform="translate(537.511 73.002)" d="M0 0h73.567v66.219H0z"/></clipPath><clipPath id="b"><path fill="#fff" transform="translate(653.794 159.514)" d="M0 0h51.022v45.926H0z"/></clipPath></defs></svg>