<svg width="679" height="447" viewBox="0 0 679 447" fill="none" xmlns="http://www.w3.org/2000/svg">
<rect width="679" height="447" fill="#ED5F32"/>
<path d="M251.498 311.999C251.498 316.006 248.255 319.256 244.255 319.256H45.4281C41.4281 319.256 38.1855 316.006 38.1855 311.999V181.841C38.1855 177.833 41.4281 174.584 45.4281 174.584H244.255C248.255 174.584 251.498 177.833 251.498 181.841V311.999Z" fill="#110F0D"/>
<path d="M16.0153 322.989C16.0153 322.989 15.4462 325.634 32.9092 325.634H265.077C265.077 325.634 274.095 325.704 275.624 323.043V319.667H16L16.0153 322.989Z" fill="#BFBDBC"/>
<path d="M275.677 323.043H16.0566V317.946H275.677V323.043Z" fill="#EAEBE9"/>
<path d="M44.4258 312.658H245.257V181.265H44.4258V312.658Z" fill="#1A1918"/>
<path d="M169.046 319.22C169.046 319.924 168.476 320.494 167.774 320.494H123.959C123.257 320.494 122.688 319.924 122.688 319.22C122.688 318.516 123.257 317.946 123.959 317.946H167.774C168.476 317.946 169.046 318.516 169.046 319.22Z" fill="#BFBDBC"/>
<path d="M103.558 188.73H51.2559V187.199H103.558V188.73Z" fill="#D3289D"/>
<path d="M87.0631 193.228H51.2559V191.698H87.0631V193.228Z" fill="white"/>
<path d="M124.622 193.228H88.8145V191.698H124.622V193.228Z" fill="white"/>
<path d="M111.763 198.024H84.1543V196.843H111.763V198.024Z" fill="white"/>
<path d="M81.2732 198.199H51.2559V196.668H81.2732V198.199Z" fill="white"/>
<path d="M150.286 198.337H114.479V196.806H150.286V198.337Z" fill="white"/>
<path d="M96.3941 203.46H51.2559V201.929H96.3941V203.46Z" fill="white"/>
<path d="M137.752 203.46H101.332V201.929H137.752V203.46Z" fill="#5B80C9"/>
<path d="M87.0631 207.958H51.2559V206.427H87.0631V207.958Z" fill="white"/>
<path d="M124.622 207.958H88.8145V206.427H124.622V207.958Z" fill="white"/>
<path d="M73.825 212.929H51.2559V211.398H73.825V212.929Z" fill="white"/>
<path d="M96.3941 228.548H51.2559V227.017H96.3941V228.548Z" fill="#D3289D"/>
<path d="M87.0631 233.046H51.2559V231.516H87.0631V233.046Z" fill="#5B80C9"/>
<path d="M124.622 233.046H88.8145V231.516H124.622V233.046Z" fill="white"/>
<path d="M142.126 233.046H126.371V231.516H142.126V233.046Z" fill="white"/>
<path d="M66.2643 238.017H51.2559V236.486H66.2643V238.017Z" fill="white"/>
<path d="M83.7915 238.017H68.7832V236.486H83.7915V238.017Z" fill="white"/>
<path d="M101.319 238.017H86.3105V236.486H101.319V238.017Z" fill="white"/>
<path d="M103.558 242.67H51.2559V241.139H103.558V242.67Z" fill="white"/>
<path d="M87.0631 247.168H51.2559V245.637H87.0631V247.168Z" fill="#5B80C9"/>
<path d="M124.622 247.168H88.8145V245.637H124.622V247.168Z" fill="#D3289D"/>
<path d="M111.763 251.963H84.1543V250.783H111.763V251.963Z" fill="white"/>
<path d="M81.2732 252.138H51.2559V250.608H81.2732V252.138Z" fill="white"/>
<path d="M150.286 252.277H114.479V250.746H150.286V252.277Z" fill="white"/>
<path d="M96.3941 257.4H51.2559V255.869H96.3941V257.4Z" fill="white"/>
<path d="M137.752 257.4H101.332V255.869H137.752V257.4Z" fill="#5B80C9"/>
<path d="M87.0631 261.898H51.2559V260.367H87.0631V261.898Z" fill="white"/>
<path d="M124.622 261.898H88.8145V260.367H124.622V261.898Z" fill="white"/>
<path d="M73.825 266.868H51.2559V265.338H73.825V266.868Z" fill="white"/>
<path d="M96.3941 282.488H51.2559V280.957H96.3941V282.488Z" fill="white"/>
<path d="M87.0631 286.987H51.2559V285.456H87.0631V286.987Z" fill="#5B80C9"/>
<path d="M124.622 286.987H88.8145V285.456H124.622V286.987Z" fill="white"/>
<path d="M142.126 286.987H126.371V285.456H142.126V286.987Z" fill="white"/>
<path d="M66.2643 291.957H51.2559V290.426H66.2643V291.957Z" fill="white"/>
<path d="M83.7915 291.957H68.7832V290.426H83.7915V291.957Z" fill="#D3289D"/>
<path d="M101.319 291.957H86.3105V290.426H101.319V291.957Z" fill="white"/>
<path d="M96.3941 296.914H51.2559V295.383H96.3941V296.914Z" fill="white"/>
<path d="M87.0631 301.412H51.2559V299.881H87.0631V301.412Z" fill="white"/>
<path d="M124.622 301.412H88.8145V299.881H124.622V301.412Z" fill="white"/>
<path d="M142.126 301.412H126.371V299.881H142.126V301.412Z" fill="#D3289D"/>
<path d="M66.2643 306.382H51.2559V304.852H66.2643V306.382Z" fill="white"/>
<path d="M332.126 321.394C332.126 323.38 330.594 324.99 328.703 324.99H286.676C284.786 324.99 283.254 323.38 283.254 321.394V239.682C283.254 237.697 284.786 236.086 286.676 236.086H328.703C330.594 236.086 332.126 237.697 332.126 239.682V321.394Z" fill="#E7E8E6"/>
<path d="M312.762 318.299C312.762 319.531 311.765 320.529 310.536 320.529H304.175C302.946 320.529 301.949 319.531 301.949 318.299C301.949 317.067 302.946 316.068 304.175 316.068H310.536C311.765 316.068 312.762 317.067 312.762 318.299Z" fill="#D4D3D2"/>
<path d="M308.53 240.069C308.53 241.037 307.747 241.822 306.78 241.822C305.814 241.822 305.031 241.037 305.031 240.069C305.031 239.101 305.814 238.316 306.78 238.316C307.747 238.316 308.53 239.101 308.53 240.069Z" fill="#D4D3D2"/>
<path d="M305.764 250.948H289.197V250.463H305.764V250.948Z" fill="#D3289D"/>
<path d="M300.539 252.373H289.197V251.888H300.539V252.373Z" fill="white"/>
<path d="M312.435 252.373H301.094V251.888H312.435V252.373Z" fill="white"/>
<path d="M308.362 253.891H299.617V253.518H308.362V253.891Z" fill="white"/>
<path d="M298.705 253.947H289.197V253.462H298.705V253.947Z" fill="white"/>
<path d="M320.564 253.991H309.223V253.506H320.564V253.991Z" fill="white"/>
<path d="M303.495 255.614H289.197V255.129H303.495V255.614Z" fill="white"/>
<path d="M316.594 255.614H305.059V255.129H316.594V255.614Z" fill="#5B80C9"/>
<path d="M300.539 257.038H289.197V256.553H300.539V257.038Z" fill="white"/>
<path d="M312.435 257.038H301.094V256.553H312.435V257.038Z" fill="white"/>
<path d="M296.346 258.613H289.197V258.128H296.346V258.613Z" fill="white"/>
<path d="M303.495 263.56H289.197V263.075H303.495V263.56Z" fill="#D3289D"/>
<path d="M300.539 264.985H289.197V264.5H300.539V264.985Z" fill="#5B80C9"/>
<path d="M312.435 264.985H301.094V264.5H312.435V264.985Z" fill="white"/>
<path d="M317.981 264.985H312.99V264.5H317.981V264.985Z" fill="white"/>
<path d="M293.951 266.559H289.197V266.074H293.951V266.559Z" fill="white"/>
<path d="M299.504 266.559H294.75V266.074H299.504V266.559Z" fill="white"/>
<path d="M305.055 266.559H300.301V266.074H305.055V266.559Z" fill="white"/>
<path d="M305.764 268.033H289.197V267.548H305.764V268.033Z" fill="white"/>
<path d="M300.539 269.458H289.197V268.973H300.539V269.458Z" fill="#5B80C9"/>
<path d="M312.435 269.458H301.094V268.973H312.435V269.458Z" fill="#D3289D"/>
<path d="M308.362 270.977H299.617V270.603H308.362V270.977Z" fill="white"/>
<path d="M298.705 271.032H289.197V270.547H298.705V271.032Z" fill="white"/>
<path d="M320.564 271.076H309.223V270.591H320.564V271.076Z" fill="white"/>
<path d="M303.495 272.699H289.197V272.214H303.495V272.699Z" fill="white"/>
<path d="M316.594 272.699H305.059V272.214H316.594V272.699Z" fill="#5B80C9"/>
<path d="M300.539 274.124H289.197V273.639H300.539V274.124Z" fill="white"/>
<path d="M312.435 274.124H301.094V273.639H312.435V274.124Z" fill="white"/>
<path d="M296.346 275.698H289.197V275.213H296.346V275.698Z" fill="white"/>
<path d="M303.495 280.645H289.197V280.16H303.495V280.645Z" fill="white"/>
<path d="M300.539 282.07H289.197V281.585H300.539V282.07Z" fill="#5B80C9"/>
<path d="M312.435 282.07H301.094V281.585H312.435V282.07Z" fill="white"/>
<path d="M317.981 282.07H312.99V281.585H317.981V282.07Z" fill="white"/>
<path d="M293.951 283.644H289.197V283.16H293.951V283.644Z" fill="white"/>
<path d="M299.504 283.644H294.75V283.16H299.504V283.644Z" fill="#D3289D"/>
<path d="M305.055 283.644H300.301V283.16H305.055V283.644Z" fill="white"/>
<path d="M303.495 285.215H289.197V284.73H303.495V285.215Z" fill="white"/>
<path d="M300.539 286.639H289.197V286.154H300.539V286.639Z" fill="white"/>
<path d="M317.981 286.639H312.99V286.154H317.981V286.639Z" fill="#D3289D"/>
<path d="M293.951 288.214H289.197V287.729H293.951V288.214Z" fill="white"/>
<path d="M303.401 293.302H289.104V292.817H303.401V293.302Z" fill="white"/>
<path d="M300.445 294.726H289.104V294.242H300.445V294.726Z" fill="#5B80C9"/>
<path d="M312.342 294.726H301V294.242H312.342V294.726Z" fill="white"/>
<path d="M317.887 294.726H312.896V294.242H317.887V294.726Z" fill="white"/>
<path d="M293.857 296.301H289.104V295.816H293.857V296.301Z" fill="white"/>
<path d="M299.408 296.301H294.654V295.816H299.408V296.301Z" fill="#D3289D"/>
<path d="M304.961 296.301H300.207V295.816H304.961V296.301Z" fill="white"/>
<path d="M303.401 297.871H289.104V297.386H303.401V297.871Z" fill="white"/>
<path d="M300.445 299.296H289.104V298.811H300.445V299.296Z" fill="white"/>
<path d="M312.342 299.296H301V298.811H312.342V299.296Z" fill="white"/>
<path d="M317.887 299.296H312.896V298.811H317.887V299.296Z" fill="#D3289D"/>
<path d="M293.857 300.87H289.104V300.386H293.857V300.87Z" fill="white"/>
<path d="M243.345 181H45.6546C44.7408 181 44 181.666 44 182.487V311.513C44 312.334 44.7408 313 45.6546 313H243.345C244.259 313 245 312.334 245 311.513V182.487C245 181.666 244.259 181 243.345 181Z" fill="#B2EBF2"/>
<path d="M188.63 217.958H88.2878C87.5766 217.958 87 218.535 87 219.246V292.858C87 293.569 87.5766 294.145 88.2878 294.145H188.63C189.341 294.145 189.918 293.569 189.918 292.858V219.246C189.918 218.535 189.341 217.958 188.63 217.958Z" fill="#80DEEA"/>
<path d="M191.89 214H91.5476C90.8363 214 90.2598 214.577 90.2598 215.288V288.899C90.2598 289.61 90.8363 290.187 91.5476 290.187H191.89C192.601 290.187 193.178 289.61 193.178 288.899V215.288C193.178 214.577 192.601 214 191.89 214Z" fill="white"/>
<path d="M192.888 214H90.5495C90.3895 214 90.2598 214.13 90.2598 214.29V230.849C90.2598 231.009 90.3895 231.139 90.5495 231.139H192.888C193.048 231.139 193.178 231.009 193.178 230.849V214.29C193.178 214.13 193.048 214 192.888 214Z" fill="#42A5F5"/>
<path d="M107.335 251.363H97.4342C97.2742 251.363 97.1445 251.493 97.1445 251.653V257.062C97.1445 257.222 97.2742 257.352 97.4342 257.352H107.335C107.495 257.352 107.624 257.222 107.624 257.062V251.653C107.624 251.493 107.495 251.363 107.335 251.363Z" fill="#4FC3F7"/>
<path d="M107.335 259.613H97.4342C97.2742 259.613 97.1445 259.743 97.1445 259.903V265.312C97.1445 265.472 97.2742 265.601 97.4342 265.601H107.335C107.495 265.601 107.624 265.472 107.624 265.312V259.903C107.624 259.743 107.495 259.613 107.335 259.613Z" fill="#4FC3F7"/>
<path d="M107.335 267.906H97.4342C97.2742 267.906 97.1445 268.035 97.1445 268.195V273.604C97.1445 273.764 97.2742 273.894 97.4342 273.894H107.335C107.495 273.894 107.624 273.764 107.624 273.604V268.195C107.624 268.035 107.495 267.906 107.335 267.906Z" fill="#4FC3F7"/>
<path d="M107.335 276.365H97.4342C97.2742 276.365 97.1445 276.495 97.1445 276.655V282.064C97.1445 282.224 97.2742 282.354 97.4342 282.354H107.335C107.495 282.354 107.624 282.224 107.624 282.064V276.655C107.624 276.495 107.495 276.365 107.335 276.365Z" fill="#4FC3F7"/>
<path d="M120.378 251.363H110.477C110.317 251.363 110.188 251.493 110.188 251.653V257.062C110.188 257.222 110.317 257.352 110.477 257.352H120.378C120.538 257.352 120.667 257.222 120.667 257.062V251.653C120.667 251.493 120.538 251.363 120.378 251.363Z" fill="#4FC3F7"/>
<path d="M120.378 259.613H110.477C110.317 259.613 110.188 259.743 110.188 259.903V265.312C110.188 265.472 110.317 265.601 110.477 265.601H120.378C120.538 265.601 120.667 265.472 120.667 265.312V259.903C120.667 259.743 120.538 259.613 120.378 259.613Z" fill="#4FC3F7"/>
<path d="M120.378 267.906H110.477C110.317 267.906 110.188 268.035 110.188 268.195V273.604C110.188 273.764 110.317 273.894 110.477 273.894H120.378C120.538 273.894 120.667 273.764 120.667 273.604V268.195C120.667 268.035 120.538 267.906 120.378 267.906Z" fill="#4FC3F7"/>
<path d="M120.378 276.365H110.477C110.317 276.365 110.188 276.495 110.188 276.655V282.064C110.188 282.224 110.317 282.354 110.477 282.354H120.378C120.538 282.354 120.667 282.224 120.667 282.064V276.655C120.667 276.495 120.538 276.365 120.378 276.365Z" fill="#4FC3F7"/>
<path d="M133.184 251.363H123.284C123.124 251.363 122.994 251.493 122.994 251.653V257.062C122.994 257.222 123.124 257.352 123.284 257.352H133.184C133.344 257.352 133.474 257.222 133.474 257.062V251.653C133.474 251.493 133.344 251.363 133.184 251.363Z" fill="#4FC3F7"/>
<path d="M133.184 259.613H123.284C123.124 259.613 122.994 259.743 122.994 259.903V265.312C122.994 265.472 123.124 265.601 123.284 265.601H133.184C133.344 265.601 133.474 265.472 133.474 265.312V259.903C133.474 259.743 133.344 259.613 133.184 259.613Z" fill="#4FC3F7"/>
<path d="M133.184 267.906H123.284C123.124 267.906 122.994 268.035 122.994 268.195V273.604C122.994 273.764 123.124 273.894 123.284 273.894H133.184C133.344 273.894 133.474 273.764 133.474 273.604V268.195C133.474 268.035 133.344 267.906 133.184 267.906Z" fill="#4FC3F7"/>
<path d="M133.184 276.365H123.284C123.124 276.365 122.994 276.495 122.994 276.655V282.064C122.994 282.224 123.124 282.354 123.284 282.354H133.184C133.344 282.354 133.474 282.224 133.474 282.064V276.655C133.474 276.495 133.344 276.365 133.184 276.365Z" fill="#4FC3F7"/>
<path d="M146.227 243.278H136.327C136.167 243.278 136.037 243.408 136.037 243.568V248.977C136.037 249.137 136.167 249.267 136.327 249.267H146.227C146.387 249.267 146.517 249.137 146.517 248.977V243.568C146.517 243.408 146.387 243.278 146.227 243.278Z" fill="#4FC3F7"/>
<path d="M146.227 251.363H136.327C136.167 251.363 136.037 251.493 136.037 251.653V257.062C136.037 257.222 136.167 257.352 136.327 257.352H146.227C146.387 257.352 146.517 257.222 146.517 257.062V251.653C146.517 251.493 146.387 251.363 146.227 251.363Z" fill="#4FC3F7"/>
<path d="M146.227 259.613H136.327C136.167 259.613 136.037 259.743 136.037 259.903V265.312C136.037 265.472 136.167 265.601 136.327 265.601H146.227C146.387 265.601 146.517 265.472 146.517 265.312V259.903C146.517 259.743 146.387 259.613 146.227 259.613Z" fill="#4FC3F7"/>
<path d="M146.227 267.906H136.327C136.167 267.906 136.037 268.035 136.037 268.195V273.604C136.037 273.764 136.167 273.894 136.327 273.894H146.227C146.387 273.894 146.517 273.764 146.517 273.604V268.195C146.517 268.035 146.387 267.906 146.227 267.906Z" fill="#4FC3F7"/>
<path d="M146.227 276.365H136.327C136.167 276.365 136.037 276.495 136.037 276.655V282.064C136.037 282.224 136.167 282.354 136.327 282.354H146.227C146.387 282.354 146.517 282.224 146.517 282.064V276.655C146.517 276.495 146.387 276.365 146.227 276.365Z" fill="#4FC3F7"/>
<path d="M159.268 243.278H149.368C149.208 243.278 149.078 243.408 149.078 243.568V248.977C149.078 249.137 149.208 249.267 149.368 249.267H159.268C159.428 249.267 159.558 249.137 159.558 248.977V243.568C159.558 243.408 159.428 243.278 159.268 243.278Z" fill="#4FC3F7"/>
<path d="M159.268 251.363H149.368C149.208 251.363 149.078 251.493 149.078 251.653V257.062C149.078 257.222 149.208 257.352 149.368 257.352H159.268C159.428 257.352 159.558 257.222 159.558 257.062V251.653C159.558 251.493 159.428 251.363 159.268 251.363Z" fill="#4FC3F7"/>
<path d="M159.268 259.613H149.368C149.208 259.613 149.078 259.743 149.078 259.903V265.312C149.078 265.472 149.208 265.601 149.368 265.601H159.268C159.428 265.601 159.558 265.472 159.558 265.312V259.903C159.558 259.743 159.428 259.613 159.268 259.613Z" fill="#4FC3F7"/>
<path d="M159.268 267.906H149.368C149.208 267.906 149.078 268.035 149.078 268.195V273.604C149.078 273.764 149.208 273.894 149.368 273.894H159.268C159.428 273.894 159.558 273.764 159.558 273.604V268.195C159.558 268.035 159.428 267.906 159.268 267.906Z" fill="#4FC3F7"/>
<path d="M159.268 276.365H149.368C149.208 276.365 149.078 276.495 149.078 276.655V282.064C149.078 282.224 149.208 282.354 149.368 282.354H159.268C159.428 282.354 159.558 282.224 159.558 282.064V276.655C159.558 276.495 159.428 276.365 159.268 276.365Z" fill="#4FC3F7"/>
<path d="M172.217 243.278H162.317C162.157 243.278 162.027 243.408 162.027 243.568V248.977C162.027 249.137 162.157 249.267 162.317 249.267H172.217C172.377 249.267 172.507 249.137 172.507 248.977V243.568C172.507 243.408 172.377 243.278 172.217 243.278Z" fill="#4FC3F7"/>
<path d="M172.217 251.363H162.317C162.157 251.363 162.027 251.493 162.027 251.653V257.062C162.027 257.222 162.157 257.352 162.317 257.352H172.217C172.377 257.352 172.507 257.222 172.507 257.062V251.653C172.507 251.493 172.377 251.363 172.217 251.363Z" fill="#4FC3F7"/>
<path d="M172.217 259.613H162.317C162.157 259.613 162.027 259.743 162.027 259.903V265.312C162.027 265.472 162.157 265.601 162.317 265.601H172.217C172.377 265.601 172.507 265.472 172.507 265.312V259.903C172.507 259.743 172.377 259.613 172.217 259.613Z" fill="#4FC3F7"/>
<path d="M172.217 267.906H162.317C162.157 267.906 162.027 268.035 162.027 268.195V273.604C162.027 273.764 162.157 273.894 162.317 273.894H172.217C172.377 273.894 172.507 273.764 172.507 273.604V268.195C172.507 268.035 172.377 267.906 172.217 267.906Z" fill="#4FC3F7"/>
<path d="M185.499 243.278H175.598C175.438 243.278 175.309 243.408 175.309 243.568V248.977C175.309 249.137 175.438 249.267 175.598 249.267H185.499C185.659 249.267 185.788 249.137 185.788 248.977V243.568C185.788 243.408 185.659 243.278 185.499 243.278Z" fill="#FF7043"/>
<path d="M185.499 251.363H175.598C175.438 251.363 175.309 251.493 175.309 251.653V257.062C175.309 257.222 175.438 257.352 175.598 257.352H185.499C185.659 257.352 185.788 257.222 185.788 257.062V251.653C185.788 251.493 185.659 251.363 185.499 251.363Z" fill="#FF7043"/>
<path d="M185.499 259.613H175.598C175.438 259.613 175.309 259.743 175.309 259.903V265.312C175.309 265.472 175.438 265.601 175.598 265.601H185.499C185.659 265.601 185.788 265.472 185.788 265.312V259.903C185.788 259.743 185.659 259.613 185.499 259.613Z" fill="#FF7043"/>
<path d="M185.499 267.906H175.598C175.438 267.906 175.309 268.035 175.309 268.195V273.604C175.309 273.764 175.438 273.894 175.598 273.894H185.499C185.659 273.894 185.788 273.764 185.788 273.604V268.195C185.788 268.035 185.659 267.906 185.499 267.906Z" fill="#FF7043"/>
<path d="M107.504 234.54H97.2652C97.1986 234.54 97.1445 234.594 97.1445 234.66V236.914C97.1445 236.981 97.1986 237.035 97.2652 237.035H107.504C107.57 237.035 107.624 236.981 107.624 236.914V234.66C107.624 234.594 107.57 234.54 107.504 234.54Z" fill="#4FC3F7"/>
<path d="M120.547 234.54H110.308C110.242 234.54 110.188 234.594 110.188 234.66V236.914C110.188 236.981 110.242 237.035 110.308 237.035H120.547C120.613 237.035 120.667 236.981 120.667 236.914V234.66C120.667 234.594 120.613 234.54 120.547 234.54Z" fill="#4FC3F7"/>
<path d="M133.353 234.54H123.115C123.048 234.54 122.994 234.594 122.994 234.66V236.914C122.994 236.981 123.048 237.035 123.115 237.035H133.353C133.42 237.035 133.474 236.981 133.474 236.914V234.66C133.474 234.594 133.42 234.54 133.353 234.54Z" fill="#4FC3F7"/>
<path d="M146.396 234.54H136.158C136.091 234.54 136.037 234.594 136.037 234.66V236.914C136.037 236.981 136.091 237.035 136.158 237.035H146.396C146.463 237.035 146.517 236.981 146.517 236.914V234.66C146.517 234.594 146.463 234.54 146.396 234.54Z" fill="#4FC3F7"/>
<path d="M159.437 234.54H149.199C149.132 234.54 149.078 234.594 149.078 234.66V236.914C149.078 236.981 149.132 237.035 149.199 237.035H159.437C159.504 237.035 159.558 236.981 159.558 236.914V234.66C159.558 234.594 159.504 234.54 159.437 234.54Z" fill="#4FC3F7"/>
<path d="M172.386 234.54H162.148C162.081 234.54 162.027 234.594 162.027 234.66V236.914C162.027 236.981 162.081 237.035 162.148 237.035H172.386C172.453 237.035 172.507 236.981 172.507 236.914V234.66C172.507 234.594 172.453 234.54 172.386 234.54Z" fill="#4FC3F7"/>
<path d="M185.668 234.54H175.429C175.363 234.54 175.309 234.594 175.309 234.66V236.914C175.309 236.981 175.363 237.035 175.429 237.035H185.668C185.734 237.035 185.788 236.981 185.788 236.914V234.66C185.788 234.594 185.734 234.54 185.668 234.54Z" fill="#FF7043"/>
<path d="M143.011 218.774H97.6577C97.1273 218.774 96.6973 219.204 96.6973 219.735V220.969C96.6973 221.5 97.1273 221.93 97.6577 221.93H143.011C143.542 221.93 143.972 221.5 143.972 220.969V219.735C143.972 219.204 143.542 218.774 143.011 218.774Z" fill="white"/>
<path d="M129.102 223.674H97.5696C97.0878 223.674 96.6973 224.064 96.6973 224.546V225.668C96.6973 226.15 97.0878 226.54 97.5696 226.54H129.102C129.584 226.54 129.975 226.15 129.975 225.668V224.546C129.975 224.064 129.584 223.674 129.102 223.674Z" fill="white"/>
<path d="M268.551 245.688C253.147 249.332 238.467 255.6 225.175 264.209L210.039 240.837C222.156 232.984 235.259 226.707 248.989 222.251C253.344 220.837 257.756 219.613 262.211 218.561C264.324 227.603 266.437 236.646 268.551 245.688Z" fill="#FBC421"/>
<g opacity="0.0299988">
<g opacity="0.0299988">
<path opacity="0.0299988" d="M225.176 264.209C229.464 255.696 234.659 247.687 240.613 240.251C250.09 241.098 259.453 242.891 268.551 245.688C253.148 249.332 238.468 255.6 225.176 264.209Z" fill="#100F0D"/>
</g>
</g>
<g opacity="0.199997">
<g opacity="0.199997">
<path opacity="0.199997" d="M210.039 240.837C220.61 240.294 231.207 240.853 241.647 242.613C247.596 233.858 254.517 225.82 262.211 218.561C257.756 219.613 253.344 220.837 248.989 222.251C235.259 226.707 222.156 232.984 210.039 240.837Z" fill="#100F0D"/>
</g>
</g>
<path d="M210.039 240.837C220.186 239.6 230.426 239.376 240.612 240.251C247.037 232.283 254.292 225.037 262.211 218.561C257.756 219.613 253.344 220.837 248.989 222.251C235.259 226.707 222.156 232.984 210.039 240.837Z" fill="#FBC421"/>
<path d="M413.091 253.201C394.598 248.598 376.105 243.995 357.611 239.392C362.016 227.049 366.421 214.705 370.825 202.362C388.038 210.552 405.252 218.742 422.465 226.931C412.838 231.936 408.814 243.215 413.091 253.201Z" fill="#FBC421"/>
<g opacity="0.0299988">
<g opacity="0.0299988">
<path opacity="0.0299988" d="M357.611 239.392C367.796 235.946 377.932 232.235 388.343 229.521C395.214 238.862 403.29 246.95 413.091 253.201C394.598 248.598 376.105 243.995 357.611 239.392Z" fill="#100F0D"/>
</g>
</g>
<g opacity="0.199997">
<g opacity="0.199997">
<path opacity="0.199997" d="M370.824 202.362C376.16 212.518 381.05 222.997 387.379 232.589C398.712 228.296 410.309 225.952 422.464 226.931C405.251 218.742 388.038 210.552 370.824 202.362Z" fill="#100F0D"/>
</g>
</g>
<path d="M370.824 202.362C376.52 211.497 382.009 220.806 388.342 229.52C399.567 226.662 410.929 225.538 422.464 226.931C405.251 218.741 388.038 210.552 370.824 202.362Z" fill="#FBC421"/>
<path d="M660.26 289.359V323.784C647.196 320.532 634.132 317.281 621.068 314.029C625.474 301.686 629.878 289.343 634.283 276.999C642.942 281.119 651.602 285.239 660.26 289.359Z" fill="#FBC421"/>
<g opacity="0.0299988">
<g opacity="0.0299988">
<path opacity="0.0299988" d="M660.26 314.311V323.784C647.196 320.532 634.132 317.281 621.068 314.029C630.436 310.86 639.761 307.467 649.299 304.829C650.131 304.599 650.965 304.375 651.801 304.157C652.33 304.876 652.863 305.586 653.408 306.288C655.568 309.09 657.849 311.77 660.26 314.311Z" fill="#100F0D"/>
</g>
</g>
<g opacity="0.199997">
<g opacity="0.199997">
<path opacity="0.199997" d="M660.261 289.359V304.155C657.963 304.776 655.68 305.491 653.408 306.288C652.55 306.589 651.693 306.902 650.839 307.226C650.316 306.432 649.803 305.634 649.299 304.829C643.697 295.903 639.177 286.315 634.283 276.999C642.942 281.119 651.602 285.239 660.261 289.359Z" fill="#100F0D"/>
</g>
</g>
<path d="M660.261 289.359V302.349C657.432 302.834 654.613 303.441 651.802 304.157C645.468 295.443 639.979 286.135 634.283 276.999C642.942 281.119 651.602 285.239 660.261 289.359Z" fill="#FBC421"/>
<path d="M321.093 192.25C304.898 201.691 286.836 207.481 268.18 209.21C267.402 200.542 266.624 191.873 265.846 183.205C280.693 181.819 295.037 177.221 307.93 169.716C312.318 177.227 316.705 184.739 321.093 192.25Z" fill="#FBC421"/>
<g opacity="0.0299988">
<g opacity="0.0299988">
<path opacity="0.0299988" d="M268.18 209.21C276.727 204.232 284.61 198.231 291.601 191.222C301.353 192.864 311.249 193.166 321.092 192.25C304.898 201.691 286.836 207.48 268.18 209.21Z" fill="#100F0D"/>
</g>
</g>
<g opacity="0.199997">
<g opacity="0.199997">
<path opacity="0.199997" d="M265.846 183.205C274.167 187.879 283.09 191.29 292.362 193.517C298.603 186.312 303.876 178.352 307.93 169.716C295.037 177.221 280.693 181.819 265.846 183.205Z" fill="#100F0D"/>
</g>
</g>
<path d="M265.846 183.205C274.046 187.02 282.698 189.667 291.601 191.222C297.95 184.778 303.462 177.591 307.93 169.716C295.037 177.221 280.693 181.819 265.846 183.205Z" fill="#FBC421"/>
<path d="M426.812 194.852C401.869 189.238 376.004 191.124 352.007 199.87C349.573 189.987 347.139 180.104 344.705 170.222C367.411 159.756 390.541 150.249 413.251 139.792C417.771 158.145 422.292 176.499 426.812 194.852Z" fill="#FBC421"/>
<g opacity="0.0299988">
<g opacity="0.0299988">
<path opacity="0.0299988" d="M352.008 199.87C362.221 190.723 373.172 182.461 383.53 173.485C399.469 177.308 413.932 184.743 426.812 194.852C401.87 189.238 376.005 191.124 352.008 199.87Z" fill="#100F0D"/>
</g>
</g>
<g opacity="0.199997">
<g opacity="0.199997">
<path opacity="0.199997" d="M344.705 170.222C358.199 170.881 371.545 172.632 384.414 176.897C395.82 165.896 405.644 153.745 413.251 139.792C390.541 150.249 367.411 159.755 344.705 170.222Z" fill="#100F0D"/>
</g>
</g>
<path d="M344.705 170.222C357.755 169.927 370.769 170.551 383.529 173.485C394.915 163.539 405.085 152.571 413.251 139.792C390.541 150.249 367.411 159.756 344.705 170.222Z" fill="#FBC421"/>
<path d="M653.97 243.331C635.531 248.149 617.093 252.968 598.655 257.786C596.632 244.835 594.61 231.884 592.588 218.933C611.614 217.878 630.64 216.823 649.666 215.768C643.6 224.776 645.448 236.61 653.97 243.331Z" fill="#FBC421"/>
<g opacity="0.0299988">
<g opacity="0.0299988">
<path opacity="0.0299988" d="M598.654 257.786C605.955 249.88 613.085 241.764 620.934 234.391C631.427 239.304 642.379 242.537 653.97 243.331C635.531 248.149 617.093 252.968 598.654 257.786Z" fill="#100F0D"/>
</g>
</g>
<g opacity="0.199997">
<g opacity="0.199997">
<path opacity="0.199997" d="M592.588 218.933C602.121 225.296 611.417 232.156 621.553 237.548C629.457 228.347 638.524 220.732 649.666 215.768C630.64 216.823 611.614 217.878 592.588 218.933Z" fill="#100F0D"/>
</g>
</g>
<path d="M592.588 218.933C601.95 224.227 611.213 229.773 620.934 234.391C629.428 226.502 638.871 220.072 649.666 215.768C630.64 216.823 611.614 217.878 592.588 218.933Z" fill="#FBC421"/>
<path d="M597.137 320.239C581.082 320.52 565.026 320.8 548.971 321.081C549.879 310.072 550.787 299.062 551.696 288.053C567.487 290.972 583.279 293.89 599.07 296.809C592.318 302.981 591.489 313.041 597.137 320.239Z" fill="#FBC421"/>
<g opacity="0.0299988">
<g opacity="0.0299988">
<path opacity="0.0299988" d="M548.971 321.081C556.516 316.057 563.962 310.828 571.851 306.35C579.471 312.459 587.801 317.284 597.138 320.239C581.082 320.52 565.026 320.8 548.971 321.081Z" fill="#100F0D"/>
</g>
</g>
<g opacity="0.199997">
<g opacity="0.199997">
<path opacity="0.199997" d="M551.695 288.053C558.243 295.16 564.498 302.627 571.732 309.058C580.027 303.094 588.961 298.659 599.07 296.809C583.278 293.891 567.487 290.972 551.695 288.053Z" fill="#100F0D"/>
</g>
</g>
<path d="M551.695 288.053C558.314 294.251 564.803 300.634 571.851 306.35C580.369 301.577 589.377 298.188 599.07 296.809C583.278 293.891 567.487 290.972 551.695 288.053Z" fill="#FBC421"/>
<path d="M593.396 296.278C574.902 291.675 556.409 287.073 537.916 282.47C542.321 270.126 546.725 257.783 551.13 245.44C568.343 253.629 585.556 261.819 602.77 270.009C593.143 275.014 589.119 286.293 593.396 296.278Z" fill="#FBC421"/>
<g opacity="0.0299988">
<g opacity="0.0299988">
<path opacity="0.0299988" d="M537.916 282.47C548.101 279.024 558.236 275.312 568.648 272.598C575.519 281.94 583.595 290.027 593.396 296.278C574.903 291.675 556.409 287.073 537.916 282.47Z" fill="#100F0D"/>
</g>
</g>
<g opacity="0.199997">
<g opacity="0.199997">
<path opacity="0.199997" d="M551.129 245.44C556.465 255.596 561.355 266.075 567.684 275.667C579.017 271.374 590.614 269.03 602.769 270.009C585.556 261.819 568.342 253.63 551.129 245.44Z" fill="#100F0D"/>
</g>
</g>
<path d="M551.129 245.44C556.824 254.575 562.313 263.884 568.647 272.598C579.871 269.739 591.234 268.616 602.769 270.009C585.556 261.819 568.342 253.629 551.129 245.44Z" fill="#FBC421"/>
<path d="M530.74 274.281C517.086 282.749 503.431 291.216 489.777 299.684C484.939 289.757 480.101 279.831 475.264 269.904C490.324 264.321 505.384 258.739 520.445 253.156C517.792 261.919 522.213 270.989 530.74 274.281Z" fill="#FBC421"/>
<g opacity="0.0299988">
<g opacity="0.0299988">
<path opacity="0.0299988" d="M489.775 299.684C493.695 291.5 497.426 283.191 501.92 275.301C511.587 276.647 521.208 276.526 530.739 274.281C517.084 282.749 503.43 291.216 489.775 299.684Z" fill="#100F0D"/>
</g>
</g>
<g opacity="0.199997">
<g opacity="0.199997">
<path opacity="0.199997" d="M475.264 269.904C484.517 272.657 493.703 275.869 503.202 277.689C507.287 268.314 512.702 259.925 520.445 253.156C505.384 258.739 490.324 264.321 475.264 269.904Z" fill="#100F0D"/>
</g>
</g>
<path d="M475.264 269.904C484.115 271.839 492.948 274 501.921 275.301C506.807 266.835 512.818 259.307 520.445 253.156C505.384 258.739 490.324 264.321 475.264 269.904Z" fill="#FBC421"/>
<path d="M476.428 321.656C488.183 327.198 499.939 332.741 511.695 338.283C514.669 329.857 517.642 321.431 520.616 313.004C507.996 309.91 495.376 306.816 482.756 303.723C485.696 310.521 482.979 318.22 476.428 321.656Z" fill="#FBC421"/>
<g opacity="0.0299988">
<g opacity="0.0299988">
<path opacity="0.0299988" d="M511.693 338.283C507.788 332.069 504.024 325.735 499.684 319.809C492.038 321.785 484.294 322.578 476.426 321.656C488.182 327.198 499.938 332.741 511.693 338.283Z" fill="#100F0D"/>
</g>
</g>
<g opacity="0.199997">
<g opacity="0.199997">
<path opacity="0.199997" d="M520.616 313.004C513.431 316.073 506.344 319.504 498.877 321.846C494.729 314.689 489.604 308.447 482.756 303.723C495.376 306.816 507.996 309.91 520.616 313.004Z" fill="#100F0D"/>
</g>
</g>
<path d="M520.616 313.004C513.68 315.378 506.778 317.933 499.686 319.809C494.979 313.456 489.453 307.961 482.756 303.723C495.376 306.816 507.996 309.91 520.616 313.004Z" fill="#FBC421"/>
<path d="M593.396 296.278C574.902 291.675 556.409 287.073 537.916 282.47C542.321 270.126 546.725 257.783 551.13 245.44C568.343 253.629 585.556 261.819 602.77 270.009C593.143 275.014 589.119 286.293 593.396 296.278Z" fill="#FBC421"/>
<g opacity="0.0299988">
<g opacity="0.0299988">
<path opacity="0.0299988" d="M537.916 282.47C548.101 279.024 558.236 275.312 568.648 272.598C575.519 281.94 583.595 290.027 593.396 296.278C574.903 291.675 556.409 287.073 537.916 282.47Z" fill="#100F0D"/>
</g>
</g>
<g opacity="0.199997">
<g opacity="0.199997">
<path opacity="0.199997" d="M551.129 245.44C556.465 255.596 561.355 266.075 567.684 275.667C579.017 271.374 590.614 269.03 602.769 270.009C585.556 261.819 568.342 253.63 551.129 245.44Z" fill="#100F0D"/>
</g>
</g>
<path d="M551.129 245.44C556.824 254.575 562.313 263.884 568.647 272.598C579.871 269.739 591.234 268.616 602.769 270.009C585.556 261.819 568.342 253.629 551.129 245.44Z" fill="#FBC421"/>
<path d="M456.544 299.723C440.569 298.095 424.593 296.467 408.617 294.84C410.821 284.016 413.025 273.192 415.229 262.368C430.564 267.141 445.899 271.915 461.235 276.688C453.8 282.014 451.787 291.904 456.544 299.723Z" fill="#FBC421"/>
<g opacity="0.0299988">
<g opacity="0.0299988">
<path opacity="0.0299988" d="M408.617 294.839C416.703 290.747 424.716 286.438 433.078 282.929C439.923 289.9 447.623 295.68 456.544 299.723C440.569 298.095 424.593 296.467 408.617 294.839Z" fill="#100F0D"/>
</g>
</g>
<g opacity="0.199997">
<g opacity="0.199997">
<path opacity="0.199997" d="M415.23 262.368C420.892 270.202 426.22 278.359 432.642 285.603C441.584 280.667 450.98 277.325 461.236 276.687C445.901 271.914 430.566 267.141 415.23 262.368Z" fill="#100F0D"/>
</g>
</g>
<path d="M415.23 262.368C421.07 269.308 426.758 276.417 433.08 282.929C442.103 279.201 451.448 276.905 461.236 276.688C445.901 271.914 430.566 267.141 415.23 262.368Z" fill="#FBC421"/>
<path d="M644.55 124.186C628.494 124.466 612.438 124.747 596.383 125.028C597.291 114.018 598.2 103.009 599.108 92C614.899 94.9186 630.691 97.8373 646.483 100.756C639.731 106.928 638.901 116.987 644.55 124.186Z" fill="#FBC421"/>
<g opacity="0.0299988">
<g opacity="0.0299988">
<path opacity="0.0299988" d="M596.383 125.028C603.928 120.004 611.374 114.774 619.263 110.296C626.883 116.405 635.213 121.231 644.549 124.186C628.494 124.466 612.438 124.747 596.383 125.028Z" fill="#100F0D"/>
</g>
</g>
<g opacity="0.199997">
<g opacity="0.199997">
<path opacity="0.199997" d="M599.107 92C605.655 99.107 611.91 106.573 619.144 113.004C627.44 107.041 636.373 102.606 646.482 100.756C630.69 97.8374 614.899 94.9186 599.107 92Z" fill="#100F0D"/>
</g>
</g>
<path d="M599.107 92C605.726 98.1974 612.215 104.581 619.263 110.296C627.781 105.524 636.789 102.134 646.482 100.756C630.69 97.8374 614.899 94.9187 599.107 92Z" fill="#FBC421"/>
<path d="M660.261 144.473V186.534C652.55 185.122 644.84 183.708 637.129 182.296C641.18 168.22 645.231 154.145 649.282 140.07C652.941 141.538 656.601 143.005 660.261 144.473Z" fill="#FBC421"/>
<g opacity="0.0299988">
<g opacity="0.0299988">
<path opacity="0.0299988" d="M660.261 172.871V186.534C652.55 185.122 644.84 183.708 637.129 182.296C644.825 179.142 652.487 175.847 660.261 172.871Z" fill="#100F0D"/>
</g>
</g>
<g opacity="0.199997">
<g opacity="0.199997">
<path opacity="0.199997" d="M660.261 144.473V158.388C656.517 152.33 652.972 146.14 649.281 140.07C652.941 141.538 656.601 143.005 660.261 144.473Z" fill="#100F0D"/>
</g>
</g>
<path d="M660.261 144.473V155.51C656.553 150.395 652.946 145.204 649.281 140.07C652.941 141.538 656.601 143.005 660.261 144.473Z" fill="#FBC421"/>
<path d="M628.346 195.519C602.704 189.137 577.062 182.755 551.42 176.372C557.527 159.257 563.635 142.143 569.742 125.028C593.609 136.383 617.476 147.739 641.344 159.095C627.996 166.034 622.416 181.673 628.346 195.519Z" fill="#FBC421"/>
<g opacity="0.0299988">
<g opacity="0.0299988">
<path opacity="0.0299988" d="M551.42 176.372C565.542 171.594 579.595 166.448 594.032 162.685C603.558 175.637 614.756 186.851 628.346 195.519C602.704 189.136 577.062 182.754 551.42 176.372Z" fill="#100F0D"/>
</g>
</g>
<g opacity="0.199997">
<g opacity="0.199997">
<path opacity="0.199997" d="M569.742 125.028C577.141 139.11 583.922 153.64 592.697 166.939C608.41 160.987 624.491 157.737 641.344 159.095C617.477 147.739 593.61 136.383 569.742 125.028Z" fill="#100F0D"/>
</g>
</g>
<path d="M569.742 125.028C577.639 137.695 585.25 150.602 594.032 162.685C609.595 158.721 625.351 157.163 641.344 159.095C617.477 147.739 593.61 136.383 569.742 125.028Z" fill="#FBC421"/>
<path d="M333.574 332.716L267.074 324.716C267.846 315.362 262.302 235.069 263.074 225.716C276.49 228.195 331.158 223.236 344.574 225.716C338.838 230.959 328.775 326.6 333.574 332.716Z" fill="#ED5F32"/>
<path d="M513.161 161.628C497.105 161.909 481.05 162.19 464.994 162.47C465.903 151.461 466.811 140.452 467.719 129.443C483.511 132.361 499.302 135.28 515.094 138.198C508.342 144.37 507.513 154.43 513.161 161.628Z" fill="#FBC421"/>
<g opacity="0.0299988">
<g opacity="0.0299988">
<path opacity="0.0299988" d="M464.994 162.47C472.539 157.446 479.986 152.217 487.874 147.739C495.495 153.848 503.825 158.674 513.161 161.628C497.105 161.909 481.05 162.19 464.994 162.47Z" fill="#100F0D"/>
</g>
</g>
<g opacity="0.199997">
<g opacity="0.199997">
<path opacity="0.199997" d="M467.719 129.443C474.267 136.55 480.522 144.016 487.756 150.447C496.051 144.484 504.985 140.049 515.094 138.199C499.302 135.28 483.51 132.361 467.719 129.443Z" fill="#100F0D"/>
</g>
</g>
<path d="M467.719 129.443C474.338 135.64 480.827 142.024 487.874 147.739C496.393 142.967 505.4 139.577 515.094 138.199C499.302 135.28 483.51 132.361 467.719 129.443Z" fill="#FBC421"/>
<path d="M526.441 218.67C501.817 233.026 474.352 241.829 445.984 244.459C444.802 231.278 443.618 218.097 442.436 204.917C465.011 202.809 486.822 195.818 506.427 184.406C513.098 195.827 519.769 207.249 526.441 218.67Z" fill="#FBC421"/>
<g opacity="0.0299988">
<g opacity="0.0299988">
<path opacity="0.0299988" d="M445.984 244.459C458.98 236.889 470.967 227.765 481.597 217.107C496.426 219.604 511.473 220.063 526.44 218.67C501.817 233.025 474.352 241.829 445.984 244.459Z" fill="#100F0D"/>
</g>
</g>
<g opacity="0.199997">
<g opacity="0.199997">
<path opacity="0.199997" d="M442.436 204.917C455.088 212.024 468.656 217.21 482.755 220.596C492.244 209.642 500.262 197.538 506.427 184.406C486.822 195.818 465.011 202.809 442.436 204.917Z" fill="#100F0D"/>
</g>
</g>
<path d="M442.436 204.917C454.904 210.717 468.06 214.743 481.597 217.107C491.252 207.309 499.633 196.38 506.427 184.406C486.822 195.818 465.011 202.809 442.436 204.917Z" fill="#FBC421"/>
<path d="M574.544 208.661C550.01 201.461 524.078 201.687 499.572 208.878C497.773 198.859 495.975 188.841 494.176 178.823C517.502 169.832 541.192 161.826 564.522 152.844C567.863 171.45 571.203 190.055 574.544 208.661Z" fill="#FBC421"/>
<g opacity="0.0299988">
<g opacity="0.0299988">
<path opacity="0.0299988" d="M499.572 208.878C510.348 200.404 521.804 192.86 532.712 184.565C548.375 189.402 562.335 197.747 574.544 208.661C550.01 201.461 524.078 201.687 499.572 208.878Z" fill="#100F0D"/>
</g>
</g>
<g opacity="0.199997">
<g opacity="0.199997">
<path opacity="0.199997" d="M494.176 178.823C507.6 180.345 520.807 182.947 533.378 188.027C545.462 177.779 556.041 166.282 564.522 152.844C541.192 161.826 517.502 169.832 494.176 178.823Z" fill="#100F0D"/>
</g>
</g>
<path d="M494.176 178.823C507.217 179.364 520.165 180.82 532.712 184.565C544.709 175.369 555.558 165.075 564.522 152.844C541.192 161.826 517.502 169.832 494.176 178.823Z" fill="#FBC421"/>
<path d="M285.808 371.14H203V322.207L244.404 294L285.808 322.207V371.14Z" fill="#FBC421"/>
<g opacity="0.199997">
<g opacity="0.199997">
<path opacity="0.199997" d="M107.572 233.255L148.976 257.722L190.381 233.255H107.572Z" fill="#100F0D"/>
</g>
</g>
<g opacity="0.149994">
<g opacity="0.149994">
<path opacity="0.149994" d="M107.572 233.255L148.976 205.048L190.381 233.255H107.572Z" fill="#100F0D"/>
</g>
</g>
<path d="M203 371.14C203 371.14 231.709 341.684 244.404 341.684C257.099 341.684 285.808 371.14 285.808 371.14H203Z" fill="#FBCC30"/>
<path d="M342.292 241.82L301.369 242.535C302.141 233.182 302.912 223.828 303.684 214.475C317.101 216.954 330.517 219.434 343.934 221.914C338.197 227.157 337.493 235.704 342.292 241.82Z" fill="#FBC421"/>
<g opacity="0.0299988">
<g opacity="0.0299988">
<path opacity="0.0299988" d="M301.369 242.535C307.779 238.267 314.106 233.824 320.808 230.019C327.282 235.21 334.36 239.31 342.292 241.82L301.369 242.535Z" fill="#100F0D"/>
</g>
</g>
<g opacity="0.199997">
<g opacity="0.199997">
<path opacity="0.199997" d="M303.686 214.475C309.248 220.513 314.563 226.856 320.709 232.32C327.757 227.253 335.347 223.486 343.935 221.914C330.519 219.434 317.102 216.954 303.686 214.475Z" fill="#100F0D"/>
</g>
</g>
<path d="M303.686 214.475C309.309 219.74 314.822 225.164 320.809 230.019C328.047 225.965 335.7 223.085 343.935 221.914C330.519 219.434 317.102 216.954 303.686 214.475Z" fill="#FBC421"/>
</svg>
