<svg width="679" height="447" viewBox="0 0 679 447" fill="none" xmlns="http://www.w3.org/2000/svg">
<rect width="679" height="447" fill="#091B2B"/>
<path d="M459 283H482H505C505 313.355 505 343.71 505 374.065C489.667 374.065 474.333 374.065 459 374.065C459 343.71 459 313.355 459 283Z" fill="#585858"/>
<path d="M313.51 85L481.54 85.0004L649.57 85.0007C649.57 157.844 649.57 230.688 649.57 303.532C537.55 303.532 425.53 303.532 313.51 303.532C313.51 230.688 313.51 157.844 313.51 85Z" fill="#636363"/>
<path d="M322.033 94.863H481.535L641.037 94.8634C641.037 160.737 641.037 226.61 641.037 292.482C534.703 292.482 428.368 292.482 322.033 292.483C322.033 226.609 322.033 160.736 322.033 94.863Z" fill="#3C464F"/>
<path d="M397 363L484.851 363H572.702C572.702 367.661 572.702 372.321 572.702 376.981C514.134 376.981 455.567 376.981 397 376.981C397 372.321 397 367.66 397 363Z" fill="#353535"/>
<path d="M466.148 99.5837H499.082L532.016 99.5839C532.016 120.321 532.016 141.059 532.016 161.796C510.06 161.796 488.104 161.796 466.148 161.797C466.148 141.059 466.148 120.321 466.148 99.5837Z" fill="#A5B3BC"/>
<path d="M517.48 134.673L516.943 137.656C516.587 138.978 516.153 140.231 515.64 141.413C515.482 142.092 514.536 143.709 512.801 146.264C511.304 148.211 509.491 149.879 507.365 151.268C505.224 152.653 502.979 153.596 500.629 154.094C499.454 154.344 498.253 154.482 497.026 154.509C496.445 154.662 494.544 154.453 491.325 153.883C488.345 152.837 486.637 152.109 486.201 151.697C485.163 151.084 484.191 150.386 483.286 149.604C481.476 148.039 479.933 146.136 478.657 143.895C475.853 138.505 475.049 133.148 476.246 127.824C476.808 125.169 477.718 122.765 478.976 120.612C479.605 119.536 480.32 118.523 481.123 117.572C481.428 117.007 482.815 115.733 485.284 113.749C489.339 110.866 493.993 109.658 499.246 110.123C499.974 110.1 501.796 110.59 504.712 111.593C505.836 112.059 506.9 112.619 507.903 113.272C509.91 114.578 511.676 116.257 513.201 118.31C514.933 120.948 515.854 122.58 515.963 123.207C516.429 124.357 516.795 125.548 517.062 126.781C517.597 129.247 517.737 131.877 517.48 134.673Z" fill="#FFFCFC"/>
<path d="M488.288 134.814L488.009 134.451C486.739 132.882 486.043 131.525 485.844 130.396C485.666 129.385 484.064 126.224 485.044 124.12C484.843 120.303 488.026 117.548 488.026 117.548C489.308 115.903 490.72 115.698 494.234 114.698C496.995 113.912 500.006 114.824 501.401 115.222C506.023 116.538 508.264 122.699 508.264 122.699C508.944 124.344 508.034 127.655 508.037 128.812C508.039 129.911 507.756 131.891 507.086 134.757L488.288 134.814Z" fill="black"/>
<path d="M495.324 158.451V158.451L495.223 158.341C494.769 157.889 494.487 157.372 494.35 156.795C494.232 156.296 496.827 157.119 496.94 155.604C495.688 155.194 493.396 156.177 492.831 155.507C492.302 154.88 489.098 155.705 488.164 153.523L489.711 143.028C488.602 141.265 487.981 139.353 487.847 137.292C486.835 138.045 486.039 137.677 485.462 136.187C484.744 134.334 484.464 132.962 484.698 132.091C484.919 131.265 485.364 130.945 485.962 131.08C486.34 131.166 486.757 131.75 487.205 132.859L487.817 131.057C487.559 129.769 487.472 128.729 487.59 127.944C487.685 127.309 487.953 126.604 488.36 125.824C491.567 124.564 494.071 123.893 495.858 123.685C497.621 123.478 500.439 123.526 504.329 123.955L506.337 127.579L506.584 132.662C506.961 131.224 507.369 130.347 507.734 129.958C508.284 129.372 508.714 129.29 508.948 129.856C509.281 130.66 509.153 132.2 508.676 134.406C508.337 135.976 507.533 136.767 506.314 136.791C506.375 138.879 505.983 140.454 505.136 141.519L505.196 147.241C505.249 152.374 506.195 154.112 503.758 153.662C501.32 153.212 502.35 152.045 501.107 154.961C499.472 158.8 501.491 154.66 499.496 155.509L497.565 157.263L495.324 158.451V158.451V158.451Z" fill="#B76B4D"/>
<path d="M489.875 143.268L490.315 143.622C492.078 145.046 493.457 146.012 494.454 146.519C495.406 147.017 496.368 147.22 497.34 147.127C497.553 147.101 497.769 147.059 497.988 147C498.094 146.991 498.427 146.867 498.985 146.629C499.436 146.416 499.895 146.138 500.363 145.796C500.997 145.412 502.549 143.986 505.019 141.519L497.416 150.509L489.875 143.268Z" fill="#FF0000" fill-opacity="0.0862745"/>
<path d="M500.191 130.552L500.319 130.487C500.79 130.239 501.171 130.09 501.462 130.037C501.545 130.022 501.628 130.013 501.711 130.009L501.871 130.012L501.996 130.025C502.079 130.038 502.162 130.056 502.245 130.079C502.286 130.086 502.409 130.13 502.613 130.211C502.736 130.262 502.938 130.362 503.221 130.511C502.869 130.771 502.593 130.948 502.393 131.041C502.234 131.12 502.072 131.172 501.909 131.197L501.759 131.209L501.632 131.203L501.504 131.186C501.333 131.151 501.16 131.092 500.985 131.007C500.722 130.877 500.458 130.725 500.191 130.552Z" fill="white" fill-opacity="0.996078"/>
<path d="M501.299 130.049L501.273 130.084C501.155 130.232 501.087 130.375 501.067 130.511C501.046 130.63 501.075 130.84 501.154 131.143C501.396 131.19 501.598 131.212 501.76 131.209C501.9 131.209 502.122 131.179 502.424 131.118C502.539 130.897 502.598 130.73 502.6 130.616C502.611 130.504 502.572 130.331 502.483 130.1C502.153 130.027 501.924 129.989 501.795 129.987C501.666 129.977 501.5 129.998 501.299 130.049Z" fill="black" fill-opacity="0.996078"/>
<path d="M500.383 129.165H500.383C500.669 129.005 500.895 128.895 501.06 128.837C501.126 128.812 501.192 128.791 501.259 128.774L501.36 128.751L501.463 128.735L501.567 128.726C501.653 128.722 501.742 128.726 501.835 128.737L501.929 128.75C501.991 128.761 502.054 128.773 502.117 128.789C502.243 128.813 502.501 128.897 502.891 129.043L500.383 129.165Z" fill="black"/>
<path d="M494.123 130.88L493.992 130.821C493.51 130.596 493.123 130.464 492.829 130.425C492.745 130.413 492.662 130.408 492.58 130.409L492.42 130.418L492.295 130.438C492.213 130.454 492.131 130.476 492.05 130.503C492.008 130.512 491.888 130.561 491.687 130.653C491.568 130.709 491.37 130.818 491.094 130.98C491.458 131.223 491.742 131.387 491.945 131.471C492.108 131.542 492.272 131.586 492.437 131.604L492.587 131.609L492.713 131.598L492.84 131.574C493.01 131.532 493.18 131.464 493.351 131.372C493.608 131.229 493.865 131.065 494.123 130.88Z" fill="white" fill-opacity="0.996078"/>
<path d="M492.995 130.429L493.022 130.463C493.146 130.606 493.221 130.745 493.247 130.88C493.274 130.998 493.255 131.21 493.19 131.515C492.95 131.574 492.749 131.605 492.587 131.609C492.447 131.616 492.225 131.596 491.92 131.55C491.794 131.334 491.728 131.17 491.721 131.057C491.704 130.945 491.735 130.771 491.814 130.535C492.14 130.447 492.368 130.399 492.495 130.39C492.624 130.375 492.791 130.388 492.995 130.429Z" fill="black" fill-opacity="0.996078"/>
<path d="M493.869 129.504C493.575 129.357 493.345 129.258 493.177 129.207C493.11 129.186 493.043 129.168 492.975 129.153L492.873 129.136L492.77 129.124L492.666 129.12C492.579 129.12 492.49 129.128 492.398 129.143L492.305 129.161C492.243 129.174 492.181 129.19 492.119 129.208C491.994 129.238 491.741 129.335 491.357 129.498L493.869 129.504Z" fill="black"/>
<path d="M493.908 140.725L494.101 140.652C495.079 140.276 495.744 140.08 496.096 140.064C496.302 140.036 496.546 140.046 496.827 140.095C497.028 140.132 497.278 140.205 497.577 140.313C497.923 140.111 498.198 139.971 498.4 139.894C498.68 139.792 498.896 139.757 499.046 139.789C499.239 139.819 499.418 139.896 499.583 140.02C499.78 140.161 500.027 140.401 500.324 140.738C499.701 141.037 499.313 141.211 499.159 141.262C498.397 141.566 497.673 141.68 496.985 141.604C496.574 141.559 496.15 141.472 495.713 141.343C494.986 141.119 494.385 140.913 493.908 140.725Z" fill="#FF0000" fill-opacity="0.0705882"/>
<path d="M495.188 135.185L496.189 136.157L497.19 137.129C497.727 136.452 498.263 135.775 498.799 135.099C498.238 135.466 497.677 135.833 497.115 136.2L495.188 135.185Z" fill="#FF0000" fill-opacity="0.0705882"/>
<path d="M494.057 144.786L494.057 144.787C494.781 144.704 495.321 144.65 495.676 144.623C496.025 144.598 496.227 144.586 496.283 144.586C496.409 144.582 496.527 144.581 496.637 144.583C496.748 144.584 496.85 144.589 496.945 144.596L497.083 144.609C497.172 144.62 497.255 144.632 497.332 144.646C497.529 144.682 497.762 144.747 498.031 144.843L494.057 144.786Z" fill="#FF0000" fill-opacity="0.0705882"/>
<path d="M507.631 130.186L507.701 129.822C507.801 129.288 507.851 128.959 507.851 128.837C507.865 128.712 507.837 128.679 507.767 128.736C507.666 128.816 507.247 129.757 506.508 131.56L506.701 129.604C505.475 136.413 504.461 140.243 503.659 141.094C503.266 141.654 502.773 141.969 502.181 142.039C501.866 142.123 500.912 142.016 499.319 141.717C498.936 141.678 498.62 141.722 498.371 141.848C497.953 141.984 497.578 142.612 497.246 143.734C496.71 142.649 496.027 142.049 495.199 141.932C494.604 141.877 494.114 141.917 493.728 142.049C493.444 142.092 492.838 142.383 491.91 142.92L491.522 143.021C491.195 143.054 490.897 142.889 490.629 142.528C490.289 142.132 489.919 141.147 489.517 139.572C489.253 138.636 488.599 135.428 487.555 129.947C487.348 129.057 487.194 128.835 487.093 129.283C487.016 129.656 486.965 130.567 486.939 132.016C487.179 133.789 487.443 135.527 487.733 137.232C488.429 141.009 489.196 143.643 490.035 145.136C491.783 148.43 494.185 150.248 497.241 150.588C497.867 150.595 498.336 150.547 498.648 150.444L499.262 150.23C499.659 150.055 500.031 149.831 500.378 149.558C501.309 148.875 502.255 147.615 503.216 145.778C504.144 143.91 504.783 142.289 505.135 140.917C505.367 140.179 506.199 136.602 507.631 130.186Z" fill="#090104" fill-opacity="0.996078"/>
<path d="M497.214 138.449L493.14 139.171C492.89 140.945 492.639 142.718 492.389 144.492C492.81 143.133 493.231 141.774 493.653 140.414L497.214 138.449Z" fill="#090104" fill-opacity="0.996078"/>
<path d="M497.611 138.404C498.956 138.674 500.302 138.944 501.647 139.215L502.129 144.873C501.585 143.224 501.04 141.575 500.496 139.927L497.611 138.404Z" fill="#090104" fill-opacity="0.996078"/>
<path d="M527.38 131.125C527.38 147.813 513.852 161.341 497.164 161.341C480.477 161.341 466.949 147.813 466.949 131.125C466.949 114.438 480.477 100.911 497.164 100.911C513.851 100.911 527.38 114.438 527.38 131.125ZM477.529 131.125C477.529 141.97 486.32 150.761 497.164 150.761C508.009 150.761 516.8 141.97 516.8 131.125C516.8 120.281 508.009 111.49 497.164 111.49C486.32 111.49 477.529 120.281 477.529 131.125Z" fill="#A5B3BC"/>
<path d="M327.398 99.4971L360.332 99.4974H393.266C393.266 120.235 393.266 140.973 393.266 161.71C371.31 161.71 349.354 161.71 327.398 161.71C327.398 140.973 327.398 120.235 327.398 99.4971Z" fill="#A5B3BC"/>
<path d="M380.843 133.495L380.287 136.509C378.61 142.52 375.208 147.089 370.083 150.215C364.925 153.335 359.178 154.178 352.844 152.742C346.834 151.065 342.265 147.664 339.138 142.538C338.138 140.883 337.361 139.115 336.807 137.235L336.166 134.36C335.859 132.398 335.822 130.382 336.055 128.314C336.949 121.99 339.746 116.965 344.446 113.239C349.145 109.513 354.677 107.937 361.039 108.511C367.365 109.405 372.39 112.202 376.115 116.902C379.841 121.602 381.416 127.133 380.843 133.495Z" fill="#FFFCFC"/>
<path d="M352.309 144.675L352.396 145.622H352.396L352.394 145.622H352.395L352.393 145.622H352.393C352.393 145.622 352.393 145.622 352.393 145.622L352.394 145.622L352.393 145.622L352.396 145.622L352.309 144.675Z" fill="#A5B3BC"/>
<path d="M350.654 137.945L350.212 137.096C348.88 134.546 348.005 132.594 347.642 131.224C347.14 129.324 347.05 127.996 347.167 127.224C347.405 125.661 347.827 124.236 348.606 122.988C349.658 121.3 350.791 120.183 351.97 119.593C352.973 119.092 354.236 118.812 355.772 118.783C357.564 117.666 358.775 117.109 359.372 116.954C360.279 116.716 361.19 116.707 362.171 117.02C363.225 117.356 364.677 118.393 366.49 120.209C368.475 122.198 369.861 124 370.675 125.597C371.121 126.472 371.394 127.339 371.481 128.205L371.497 128.847C371.48 129.273 371.417 129.695 371.307 130.114C370.925 131.58 370.361 135.223 368.658 137.44L369.503 137.835L350.654 137.945Z" fill="black"/>
<path d="M353.38 152.992L352.807 153.006L353.379 145.806C352.293 144.347 351.346 142.708 350.549 140.947C350.128 140.018 349.765 138.036 349.853 135.756C349.992 132.143 350.606 129.461 351.162 127.693C351.546 126.474 351.874 125.82 351.98 125.644C352.446 124.87 352.965 124.231 353.53 123.675C354.112 123.102 355.434 122.296 357.6 121.356C360.887 124.959 363.868 127.458 366.543 128.853L367.864 133.09L368.653 136.39L369.191 133.415C369.589 134.054 369.848 134.66 369.963 135.235C370.17 136.263 370.034 137.609 369.534 139.265C369.235 140.252 368.756 140.684 368.124 140.571C368.165 141.783 367.522 143.62 366.636 145.192L367.038 150.058L366.474 153.998C364.452 155.451 362.447 155.971 360.437 155.707C358.656 155.473 357.082 155.179 355.747 154.64C354.707 154.22 353.923 153.659 353.38 152.992Z" fill="#FFC29D"/>
<path d="M357.434 138.145L359.34 139.62L361.054 137.681L359.29 138.691L357.434 138.145Z" fill="#FF0000" fill-opacity="0.117647"/>
<path d="M352.771 144.807L353.116 145.115C354.236 146.186 355.362 146.975 356.494 147.482C357.645 147.975 358.948 148.178 360.401 148.09C361.816 147.983 362.961 147.672 363.836 147.159C364.646 146.699 365.479 145.799 366.334 144.459L360.599 152.852L352.771 144.807Z" fill="#FF0000" fill-opacity="0.0823529"/>
<path d="M353.662 132.959L353.755 132.984C354.033 133.056 354.249 133.108 354.402 133.141C354.502 133.164 354.646 133.19 354.836 133.22C355.131 133.261 355.376 133.274 355.572 133.258C355.674 133.251 355.775 133.239 355.874 133.222L356.023 133.192C356.122 133.17 356.22 133.145 356.317 133.115C356.56 133.042 356.895 132.912 357.322 132.722L353.662 132.959Z" fill="black"/>
<path d="M361.66 132.593L361.753 132.616C362.067 132.697 362.294 132.752 362.435 132.782C362.532 132.803 362.665 132.827 362.834 132.853C362.87 132.859 362.963 132.87 363.112 132.884C363.171 132.889 363.226 132.893 363.28 132.894C363.375 132.9 363.483 132.897 363.604 132.888C363.734 132.878 363.873 132.857 364.021 132.825C364.157 132.794 364.283 132.759 364.4 132.722C364.634 132.645 364.941 132.523 365.32 132.355L361.66 132.593Z" fill="black"/>
<path d="M353.742 129.623C354.273 129.715 354.677 129.776 354.954 129.807C355.066 129.82 355.175 129.83 355.283 129.838L355.442 129.847L355.598 129.852L355.75 129.853L355.897 129.848L356.04 129.839L356.18 129.824C356.271 129.814 356.361 129.8 356.449 129.784C356.67 129.746 356.963 129.675 357.33 129.571L353.742 129.623Z" fill="black"/>
<path d="M361.355 128.945C361.591 128.985 361.802 129.02 361.988 129.049C362.141 129.074 362.335 129.1 362.568 129.128C362.747 129.148 362.91 129.162 363.055 129.169L363.211 129.174L363.363 129.175L363.51 129.17L363.653 129.16C363.784 129.149 363.921 129.131 364.063 129.106C364.349 129.052 364.643 128.98 364.943 128.892L361.355 128.945Z" fill="black"/>
<path d="M356.377 141.956L356.526 141.916C357.434 141.679 358.007 141.555 358.248 141.544C358.568 141.508 358.954 141.499 359.405 141.517C359.776 141.481 360.054 141.462 360.24 141.46C360.62 141.454 361.012 141.472 361.414 141.514C361.906 141.562 362.652 141.659 363.654 141.804C362.273 141.996 361.38 142.111 360.973 142.149C360.604 142.186 360.291 142.214 360.034 142.234C359.757 142.252 359.51 142.263 359.296 142.268C359.034 142.271 358.878 142.271 358.826 142.268C358.722 142.266 358.617 142.262 358.513 142.257C358.304 142.246 358.096 142.23 357.888 142.207C357.699 142.186 357.495 142.158 357.275 142.122C356.879 142.055 356.58 142 356.377 141.956Z" fill="#FF0000" fill-opacity="0.117647"/>
<path d="M389.17 131.582C389.17 148.269 375.643 161.797 358.955 161.797C342.268 161.797 328.74 148.269 328.74 131.582C328.74 114.894 342.268 101.366 358.955 101.366C375.642 101.366 389.17 114.894 389.17 131.582ZM339.32 131.582C339.32 142.427 348.111 151.217 358.955 151.217C369.799 151.217 378.591 142.426 378.591 131.582C378.591 120.738 369.8 111.946 358.955 111.946C348.111 111.946 339.32 120.738 339.32 131.582Z" fill="#A5B3BC"/>
<path d="M396.773 99.5833L462.641 99.5836V161.796L396.773 161.797V99.5833Z" fill="#A5B3BC"/>
<path d="M450.321 132.314L449.789 135.269C448.204 141.161 445.042 145.655 440.303 148.75C435.534 151.838 430.239 152.702 424.417 151.341C418.897 149.74 414.715 146.443 411.871 141.449C410.962 139.835 410.258 138.11 409.761 136.274L409.191 133.465C408.922 131.547 408.901 129.575 409.13 127.55C409.996 121.354 412.605 116.417 416.956 112.74C421.308 109.062 426.41 107.482 432.262 108.001C438.079 108.832 442.686 111.535 446.083 116.109C449.48 120.682 450.893 126.084 450.321 132.314Z" fill="#FFFCFC"/>
<path d="M439.614 136.04L440.01 135.259C440.85 133.716 441.481 132.082 441.903 130.358C442.137 128.871 442.217 127.953 442.143 127.603C442.121 126.957 442.034 126.284 441.883 125.584C441.381 123.782 441.003 122.689 440.749 122.305C440.401 121.564 439.996 120.841 439.535 120.137C438.606 118.704 437.488 117.49 436.184 116.497C433.907 114.746 431.272 114.292 428.277 115.134C425.314 116.044 423.038 117.898 421.451 120.697C420.341 122.886 419.968 125.545 420.332 128.674C420.562 131.199 421.422 134.997 422.912 140.068L439.614 136.04Z" fill="black"/>
<path d="M435.522 150.02L434.899 146.119L438.095 142.047C438.544 141.382 438.844 140.891 439.029 140.594C439.636 139.613 440.069 138.446 440.28 137.069C440.428 136.099 440.434 134.748 440.535 133.024C440.608 131.776 440.808 130.583 440.86 129.425C440.92 128.115 440.866 127.239 440.788 126.79C440.497 125.101 439.696 123.615 438.346 122.34L433.846 127.316C433.267 127.928 432.854 128.29 432.635 128.446C432.335 128.657 432.01 128.822 431.63 128.898C431.598 128.964 430.915 128.854 429.562 128.743C429.195 128.713 428.908 128.855 428.696 128.982C428.347 129.191 427.978 129.484 427.631 129.899C426.186 131.627 425.485 132.464 425.493 132.38C424.969 132.86 424.455 133.186 423.952 133.357C423.448 133.527 422.947 133.646 422.45 133.713C422.502 131.288 422.391 129.691 422.059 128.945C421.614 127.944 420.962 127.841 420.261 128.694C419.504 129.614 419.388 131.488 419.865 134.226C420.327 136.885 421.214 137.483 422.475 136.031C422.809 138.414 422.964 140.748 422.968 143.033C422.971 144.53 422.789 147.104 422.477 148.186C421.34 152.127 423.474 149.753 425.199 152.264L431.581 157.283L435.522 150.02Z" fill="#BD7A5C"/>
<path d="M431.96 132.269L431.846 132.159C431.62 131.934 431.388 131.734 431.148 131.559C431.068 131.502 430.986 131.45 430.903 131.404L430.776 131.34L430.647 131.287C430.534 131.25 430.471 131.231 430.456 131.23C430.281 131.186 430.055 131.175 429.779 131.198C429.557 131.214 429.213 131.281 428.746 131.397C429.097 131.673 429.375 131.871 429.581 131.99C429.663 132.038 429.746 132.083 429.83 132.123L429.958 132.18C430.044 132.215 430.131 132.245 430.221 132.27L430.317 132.293C430.381 132.307 430.447 132.319 430.513 132.328C430.646 132.345 430.781 132.353 430.919 132.353C431.13 132.358 431.477 132.33 431.96 132.269Z" fill="white"/>
<path d="M429.918 131.16L429.89 131.201C429.761 131.381 429.682 131.528 429.653 131.642C429.622 131.744 429.636 131.887 429.693 132.071C429.893 132.196 430.057 132.275 430.185 132.307C430.291 132.343 430.501 132.369 430.816 132.386C430.973 132.286 431.07 132.205 431.108 132.144C431.15 132.084 431.176 132.015 431.187 131.935C431.199 131.885 431.201 131.771 431.194 131.593C430.975 131.426 430.793 131.32 430.648 131.275C430.488 131.22 430.245 131.182 429.918 131.16Z" fill="black"/>
<path d="M432.774 130.622L432.668 130.523C432.461 130.319 432.236 130.132 431.994 129.963C431.911 129.909 431.826 129.858 431.736 129.81L431.597 129.742C431.503 129.699 431.403 129.661 431.297 129.629C431.192 129.597 431.081 129.57 430.965 129.549L430.787 129.519C430.666 129.502 430.541 129.489 430.412 129.48C430.092 129.454 429.614 129.448 428.979 129.462L432.774 130.622Z" fill="black"/>
<path d="M436.928 133.2L437.077 133.148C437.376 133.038 437.671 132.954 437.963 132.895C438.059 132.877 438.155 132.865 438.25 132.858L438.391 132.853L438.531 132.858C438.649 132.871 438.715 132.881 438.728 132.886C438.906 132.919 439.116 133.004 439.357 133.14C439.552 133.249 439.837 133.453 440.212 133.753C439.777 133.857 439.442 133.92 439.206 133.943C439.111 133.952 439.017 133.958 438.923 133.959L438.784 133.957C438.691 133.953 438.599 133.944 438.507 133.929L438.41 133.91C438.346 133.895 438.281 133.878 438.218 133.859C438.09 133.819 437.964 133.77 437.839 133.712C437.645 133.628 437.341 133.458 436.928 133.2Z" fill="white"/>
<path d="M439.241 133.045L439.25 133.094C439.292 133.311 439.302 133.478 439.281 133.595C439.266 133.7 439.194 133.824 439.065 133.967C438.83 133.996 438.648 133.999 438.52 133.975C438.408 133.963 438.206 133.899 437.913 133.783C437.812 133.627 437.758 133.513 437.749 133.441C437.736 133.369 437.741 133.295 437.765 133.219C437.775 133.168 437.82 133.064 437.901 132.905C438.17 132.844 438.38 132.824 438.53 132.844C438.699 132.861 438.936 132.928 439.241 133.045Z" fill="black"/>
<path d="M436.871 131.363L437.009 131.316C437.282 131.218 437.564 131.143 437.855 131.091C437.953 131.075 438.052 131.064 438.154 131.058L438.308 131.055C438.412 131.056 438.518 131.064 438.627 131.078C438.737 131.093 438.849 131.115 438.963 131.145L439.137 131.192C439.254 131.228 439.373 131.268 439.494 131.313C439.795 131.424 440.232 131.619 440.804 131.897L436.871 131.363Z" fill="black"/>
<path d="M436.555 138.43L434.423 139.282L432.854 137.464L434.639 138.583L436.555 138.43Z" fill="#8C5035" fill-opacity="0.552941"/>
<path d="M434.896 146.15L434.716 146.294C433.901 146.996 433.108 147.415 432.334 147.53C431.374 147.671 430.49 147.52 429.679 147.112C428.941 146.741 428.187 146.171 427.418 145.396C426.497 144.467 425.265 143.016 423.73 141.039L433.864 154.706L435.522 150.038L434.896 146.15Z" fill="#8C5035" fill-opacity="0.34902"/>
<path d="M430.799 140.211L430.463 140.237C430.903 140.482 431.344 140.709 431.788 140.917C432.16 141.079 432.383 141.17 432.459 141.191C432.609 141.244 432.76 141.291 432.912 141.331C433.26 141.419 433.603 141.472 433.944 141.488C434.071 141.498 434.256 141.501 434.499 141.499C434.606 141.497 434.714 141.493 434.822 141.488C434.875 141.487 435.037 141.477 435.307 141.457C435.524 141.439 435.741 141.42 435.958 141.399L434.478 140.69L430.799 140.211Z" fill="#FF0000" fill-opacity="0.996078"/>
<path d="M435.685 141.176L431.471 140.339L430.428 140.272L431.886 141.698L434.255 142.493L436.016 141.346L435.685 141.176Z" fill="white" fill-opacity="0.996078"/>
<path d="M436.03 141.421V141.421C435.458 140.855 435.023 140.503 434.727 140.365C434.582 140.294 434.429 140.247 434.268 140.223C434.104 140.2 433.907 140.196 433.679 140.209C433.429 140.079 433.194 139.989 432.974 139.938C432.722 139.878 432.41 139.872 432.04 139.92C431.677 139.966 431.156 140.071 430.477 140.235L433.418 141.136L436.03 141.421Z" fill="#FF58AB"/>
<path d="M435.926 141.44L435.817 141.56C435.273 142.18 434.775 142.599 434.324 142.815C433.864 143.033 433.349 143.078 432.777 142.952C432.215 142.82 431.755 142.544 431.398 142.125C431.119 141.836 430.81 141.204 430.473 140.229C431.11 140.738 431.611 141.098 431.974 141.307C432.119 141.393 432.265 141.47 432.412 141.538L432.634 141.631C432.783 141.689 432.933 141.735 433.084 141.769C433.236 141.802 433.389 141.824 433.543 141.834L433.776 141.84C433.931 141.839 434.088 141.83 434.246 141.812C434.64 141.771 435.2 141.647 435.926 141.44Z" fill="#FF58AB"/>
<path d="M420.933 116.717L420.92 117.399C421.018 118.784 421.556 119.932 422.534 120.842C423.52 121.753 424.735 122.192 426.18 122.161C427.566 122.064 428.713 121.526 429.624 120.547C429.915 120.231 430.164 119.88 430.368 119.495L430.636 118.897C430.791 118.482 430.889 118.044 430.93 117.583C431.017 116.164 430.631 114.944 429.772 113.922C428.913 112.9 427.777 112.31 426.365 112.152C424.945 112.065 423.725 112.451 422.703 113.309C421.682 114.168 421.092 115.304 420.933 116.717Z" fill="black" fill-opacity="0.996078"/>
<path d="M459.512 129.946C459.512 146.634 445.985 160.162 429.297 160.162C412.61 160.162 399.082 146.634 399.082 129.946C399.082 113.259 412.61 99.7314 429.297 99.7314C445.984 99.7314 459.512 113.259 459.512 129.946ZM409.662 129.946C409.662 140.791 418.453 149.582 429.297 149.582C440.141 149.582 448.933 140.791 448.933 129.946C448.933 119.102 440.142 110.311 429.297 110.311C418.453 110.311 409.662 119.102 409.662 129.946Z" fill="#A5B3BC"/>
<path d="M415.352 264.169L428.911 264.171C431.407 264.169 433.43 266.193 433.43 268.689V277.728C433.43 280.224 431.407 282.248 428.911 282.248L415.352 282.25C412.856 282.248 410.832 280.224 410.832 277.728V268.689C410.832 266.193 412.856 264.169 415.352 264.169ZM433.43 270.948L438.854 266.881C439.852 266.132 441.269 266.335 442.017 267.333V276.372C442.017 277.62 441.006 278.632 439.758 278.632C439.269 278.632 438.793 278.473 438.402 278.18L432.978 274.113L433.43 270.948Z" fill="black"/>
<path d="M415.352 264.169L428.911 264.171C431.405 264.169 433.428 266.19 433.43 268.685C433.43 268.686 433.43 268.687 433.43 268.689V277.728C433.43 280.224 431.407 282.248 428.911 282.248L415.352 282.25C412.856 282.248 410.832 280.224 410.832 277.728V268.689C410.832 266.193 412.856 264.169 415.352 264.169ZM415.352 264.169C412.856 264.169 410.832 266.193 410.832 268.689V277.728C410.832 280.224 412.856 282.248 415.352 282.25L428.911 282.248C431.407 282.248 433.43 280.224 433.43 277.728V268.689C433.43 268.687 433.43 268.686 433.43 268.685C433.428 266.19 431.405 264.169 428.911 264.171L415.352 264.169ZM433.43 270.948L438.854 266.881C439.852 266.132 441.269 266.335 442.017 267.333V276.372C442.017 277.62 441.006 278.632 439.758 278.632C439.269 278.632 438.793 278.473 438.402 278.18L432.978 274.113L433.43 270.948ZM433.43 270.948L432.978 274.113L438.402 278.18C438.793 278.473 439.269 278.632 439.758 278.632C441.006 278.632 442.017 277.62 442.017 276.372V267.333C441.269 266.335 439.852 266.132 438.854 266.881L433.43 270.948Z" fill="black"/>
<path d="M461.603 264.39C463.062 264.39 464.249 265.577 464.249 267.035V272.327C464.249 273.786 463.062 274.973 461.603 274.973C460.144 274.973 458.957 273.786 458.957 272.327V267.035C458.957 265.577 460.144 264.39 461.603 264.39ZM461.603 262.626C459.178 262.626 457.193 264.61 457.193 267.035V272.327C457.193 274.752 459.178 276.736 461.603 276.736C464.028 276.736 466.013 274.752 466.013 272.327V267.035C466.013 264.61 464.028 262.626 461.603 262.626Z" fill="black"/>
<path d="M469.542 270.563V272.327C469.542 276.393 466.438 279.771 462.487 280.211V282.028L466.015 282.029C466.5 282.028 466.897 282.425 466.897 282.91C466.897 283.395 466.5 283.792 466.015 283.792L457.196 283.793C456.711 283.792 456.314 283.395 456.314 282.91C456.314 282.425 456.711 282.028 457.196 282.028L460.723 282.029V280.211C456.772 279.771 453.668 276.393 453.668 272.327V270.563C453.668 270.078 454.065 269.681 454.55 269.681C455.035 269.681 455.432 270.078 455.432 270.563V272.327C455.432 275.731 458.201 278.5 461.605 278.5C465.009 278.5 467.779 275.731 467.779 272.327V270.563C467.779 270.078 468.175 269.681 468.661 269.681C469.146 269.681 469.542 270.078 469.542 270.563Z" fill="black"/>
<path d="M461.6 264.373C460.132 264.373 458.938 265.567 458.938 267.036V272.327C458.938 273.795 460.132 274.99 461.6 274.99C463.068 274.99 464.263 273.795 464.263 272.327V267.036C464.263 265.567 463.068 264.373 461.6 264.373Z" fill="black"/>
<path d="M394.402 280.745H379.609C376.983 280.745 374.832 278.595 374.832 275.969V270.45C374.832 267.824 376.983 265.674 379.609 265.674H394.402C397.028 265.674 399.179 267.824 399.179 270.45V275.969C399.179 278.6 397.028 280.745 394.402 280.745Z" fill="black"/>
<path d="M378.639 269.991H384.354H390.07V271.13C386.259 271.13 382.449 271.13 378.639 271.13C378.639 270.75 378.639 270.37 378.639 269.991Z" fill="white"/>
<path d="M378.676 272.644H390.107V273.783H378.676V272.644Z" fill="white"/>
<path d="M378.773 275.296H384.489H390.204V276.436C386.394 276.436 382.584 276.436 378.773 276.436C378.773 276.056 378.773 275.676 378.773 275.296Z" fill="white"/>
<path d="M670.3 377.571L668.583 378.056C664.965 378.49 658.251 378.885 648.44 379.242C643.534 379.42 637.854 379.589 631.4 379.748C613.911 380.129 602.488 380.346 597.132 380.399C588.295 380.529 579.109 380.642 569.575 380.737C565.243 380.807 550.157 380.911 524.315 381.052C503.154 381.14 480.598 381.159 456.647 381.11C433.788 381.042 412.964 380.914 394.174 380.728C371.577 380.469 358.628 380.297 355.329 380.21C347.46 380.072 340.099 379.92 333.247 379.754C302.649 378.948 289.942 378.11 295.127 377.241C297.406 376.808 303.047 376.408 312.051 376.043C316.553 375.86 321.895 375.685 328.078 375.519C330.218 375.424 341.285 375.195 361.277 374.834C394.502 374.301 434.801 374.023 482.174 374C494.017 374.006 505.418 374.027 516.377 374.065C543.001 374.187 558.445 374.279 562.709 374.342C581.974 374.513 599.471 374.748 615.199 375.046C630.928 375.345 643.294 375.677 652.297 376.043C656.799 376.225 660.46 376.417 663.281 376.616C665.742 376.706 668.082 377.024 670.3 377.571Z" fill="black" fill-opacity="0.258824"/>
<path d="M326.061 257.513L403.555 257.514L481.049 257.514C481.049 267.978 481.049 278.441 481.049 288.905C429.386 288.905 377.723 288.905 326.061 288.906C326.061 278.442 326.061 267.977 326.061 257.513Z" fill="#A5B3BC" fill-opacity="0.156863"/>
<path d="M352.755 274.445L352.684 275.492C352.351 277.6 351.375 279.286 349.756 280.55C348.126 281.813 346.206 282.325 343.997 282.086C341.889 281.753 340.203 280.776 338.939 279.157C338.534 278.634 338.2 278.064 337.938 277.447L337.607 276.495C337.426 275.84 337.334 275.157 337.332 274.445C337.387 272.261 338.14 270.443 339.591 268.992C341.041 267.542 342.859 266.789 345.043 266.734C347.228 266.789 349.046 267.542 350.496 268.992C351.947 270.443 352.7 272.261 352.755 274.445Z" fill="#33CA23"/>
<path d="M537.898 98.6262L587.866 98.627L637.833 98.6279C637.833 162.085 637.833 225.542 637.833 288.999C604.522 288.999 571.21 289 537.898 289C537.898 225.542 537.898 162.084 537.898 98.6262Z" fill="black" fill-opacity="0.509804"/>
<path d="M543.82 104.055L632.593 104.055V187.903L543.82 187.904V104.055Z" fill="#A5B3BC" fill-opacity="0.760784"/>
<path d="M618.061 146.844L617.638 150.876C617.293 152.675 616.837 154.388 616.27 156.015C616.126 156.936 615.023 159.187 612.961 162.766C611.154 165.51 608.901 167.913 606.201 169.975C603.482 172.034 600.581 173.511 597.495 174.407C595.952 174.855 594.363 175.157 592.729 175.315C591.969 175.575 589.414 175.484 585.064 175.04C580.986 173.939 578.636 173.134 578.014 172.627C576.569 171.912 575.204 171.078 573.92 170.123C571.352 168.215 569.107 165.828 567.184 162.964C562.914 156.05 561.315 148.984 562.387 141.764C562.876 138.168 563.854 134.872 565.32 131.877C566.052 130.38 566.907 128.958 567.884 127.61C568.235 126.827 569.96 124.991 573.058 122.102C578.184 117.858 584.273 115.788 591.325 115.891C592.293 115.789 594.772 116.263 598.76 117.314C600.305 117.825 601.779 118.467 603.182 119.24C605.988 120.785 608.508 122.851 610.743 125.439C613.313 128.788 614.702 130.875 614.909 131.7C615.643 133.188 616.249 134.741 616.728 136.359C617.684 139.595 618.128 143.09 618.061 146.844Z" fill="#FFFCFC"/>
<path d="M575.478 150.899L575.314 150.011C573.82 142.652 573.543 137.867 574.249 135.579C574.764 133.913 575.604 132.079 577.003 130.143C578.429 128.169 580.004 126.634 581.725 125.528C582.847 124.807 584.237 124.403 585.901 124.366C587.384 124.332 590.735 123.517 593.384 124.379C598.191 125.945 598.311 126.236 599.622 127.524C602.34 130.195 604.454 131.582 604.64 132.88C604.953 133.584 604.908 135.612 604.52 138.967C604.26 141.216 603.332 146.258 601.722 154.094L575.478 150.899Z" fill="black"/>
<path d="M590.08 175.665L579.262 172.858L579.857 164.75C578.585 163.377 577.821 162.176 577.462 161.183C577.115 160.224 576.821 158.497 576.68 155.967C575.965 156.503 575.343 155.975 574.768 154.404C574.166 152.759 573.714 151.011 573.701 149.136C573.689 147.245 574.185 146.259 574.945 146.176C575.413 146.259 575.93 147.471 576.497 149.811C577.116 145.377 577.583 142.325 577.87 140.652C578.137 139.102 578.536 137.771 579.115 136.673C579.698 135.568 580.592 135.079 581.776 135.196L582.991 135.393C586.044 136.274 587.767 136.698 588.162 136.664C588.43 136.733 589.249 136.763 590.621 136.754L595.792 136.394C596.492 136.314 597.238 136.502 598.033 136.956C598.376 137.152 598.778 137.628 599.029 138.459C599.954 141.528 600.253 143.302 600.307 143.71C600.494 145.128 600.579 147.892 600.392 152.03C601.122 150.233 601.993 148.989 603.004 148.298C603.676 148.061 603.794 148.881 603.342 150.748C602.767 153.124 602.199 154.853 601.665 155.943C601.064 157.173 600.39 157.98 599.634 158.356L597.918 162.813L598.241 173.378L590.08 175.665Z" fill="#FFB89D"/>
<path d="M594.745 165.611L594.176 165.934C592.827 166.703 592.047 167.122 591.834 167.194C591.349 167.422 590.888 167.615 590.45 167.774C589.669 168.089 588.795 168.275 587.829 168.333C587.059 168.346 586.133 168.168 585.05 167.798C584.889 167.758 584.401 167.543 583.586 167.154C583.086 166.909 582.498 166.605 581.822 166.24L588.705 173.06L594.745 165.611Z" fill="#F44336" fill-opacity="0.129412"/>
<path d="M597.449 157.237C602.622 146.692 602.622 146.692 597.449 157.237V157.237Z" fill="white" fill-opacity="0.996078"/>
<path d="M597.029 157.245V157.245C602.413 147.41 602.413 147.41 597.029 157.245Z" fill="white" fill-opacity="0.996078"/>
<path d="M592.725 146.397L592.899 146.337C593.539 146.105 594.049 145.981 594.429 145.965C594.537 145.96 594.644 145.962 594.749 145.972L594.953 146.004L595.109 146.043C595.213 146.073 595.315 146.111 595.415 146.154C595.467 146.17 595.615 146.248 595.861 146.387C596.007 146.472 596.247 146.634 596.581 146.873C596.088 147.142 595.707 147.318 595.437 147.402C595.22 147.475 595.006 147.513 594.794 147.516L594.602 147.505L594.441 147.476L594.282 147.431C594.071 147.357 593.861 147.252 593.653 147.114C593.342 146.902 593.033 146.663 592.725 146.397Z" fill="white" fill-opacity="0.996078"/>
<path d="M594.221 145.951L594.182 145.991C594.007 146.16 593.895 146.329 593.847 146.498C593.799 146.645 593.799 146.918 593.846 147.317C594.146 147.418 594.399 147.481 594.605 147.506C594.783 147.53 595.069 147.53 595.464 147.506C595.649 147.246 595.753 147.043 595.775 146.9C595.809 146.758 595.79 146.533 595.717 146.222C595.31 146.073 595.025 145.985 594.863 145.958C594.7 145.924 594.486 145.922 594.221 145.951Z" fill="#544545"/>
<path d="M593.211 144.668H593.211C593.603 144.514 593.909 144.415 594.128 144.369C594.216 144.349 594.304 144.334 594.392 144.325L594.525 144.313L594.658 144.31L594.791 144.316C594.901 144.327 595.014 144.347 595.131 144.378L595.247 144.41C595.324 144.434 595.402 144.461 595.48 144.492C595.635 144.545 595.948 144.697 596.419 144.95L593.211 144.668Z" fill="black"/>
<path d="M584.961 145.755L584.805 145.657C584.233 145.287 583.764 145.052 583.398 144.952C583.293 144.923 583.188 144.901 583.083 144.887L582.878 144.872L582.717 144.875C582.609 144.882 582.501 144.895 582.394 144.915C582.34 144.919 582.178 144.961 581.908 145.042C581.745 145.092 581.475 145.196 581.096 145.354C581.516 145.727 581.848 145.984 582.092 146.127C582.287 146.246 582.487 146.33 582.693 146.381L582.883 146.414L583.046 146.422L583.211 146.414C583.434 146.389 583.662 146.333 583.895 146.245C584.246 146.109 584.601 145.946 584.961 145.755Z" fill="white" fill-opacity="0.996078"/>
<path d="M583.599 144.985L583.628 145.032C583.761 145.236 583.832 145.425 583.841 145.601C583.855 145.756 583.794 146.022 583.658 146.4C583.343 146.432 583.082 146.436 582.876 146.413C582.697 146.397 582.418 146.333 582.039 146.222C581.917 145.926 581.861 145.705 581.872 145.56C581.871 145.414 581.94 145.199 582.081 144.914C582.511 144.859 582.808 144.837 582.972 144.848C583.138 144.851 583.347 144.897 583.599 144.985Z" fill="#544545"/>
<path d="M584.877 143.962C584.529 143.724 584.254 143.558 584.05 143.464C583.969 143.426 583.887 143.392 583.803 143.362L583.676 143.321L583.547 143.288L583.416 143.266C583.306 143.25 583.191 143.244 583.071 143.248L582.951 143.254C582.87 143.26 582.788 143.269 582.705 143.282C582.542 143.298 582.203 143.376 581.688 143.517L584.877 143.962Z" fill="black"/>
<path d="M583.824 158.746L584.073 158.657C585.339 158.207 586.198 157.977 586.649 157.966C586.914 157.937 587.227 157.958 587.587 158.03C587.843 158.084 588.16 158.185 588.54 158.333C588.991 158.083 589.347 157.912 589.608 157.821C589.971 157.699 590.248 157.66 590.44 157.706C590.687 157.751 590.914 157.855 591.121 158.019C591.369 158.207 591.678 158.521 592.049 158.962C591.241 159.326 590.738 159.538 590.539 159.598C589.553 159.964 588.62 160.087 587.741 159.968C587.216 159.898 586.675 159.773 586.118 159.595C585.194 159.284 584.43 159.001 583.824 158.746Z" fill="#FF0000" fill-opacity="0.0705882"/>
<path d="M586.26 151.748L587.513 153.024L588.767 154.301C589.475 153.45 590.184 152.599 590.892 151.749C590.161 152.202 589.43 152.655 588.699 153.108L586.26 151.748Z" fill="#FF0000" fill-opacity="0.0705882"/>
<path d="M627.581 143.63C629.145 164.846 613.214 183.317 591.997 184.88C570.78 186.445 552.312 170.512 550.747 149.295C549.182 128.078 565.114 109.609 586.331 108.045C607.548 106.48 626.016 122.411 627.581 143.63ZM564.198 148.303C565.215 162.092 577.217 172.445 591.005 171.428C604.793 170.411 615.146 158.41 614.129 144.621C613.113 130.834 601.111 120.48 587.323 121.497C573.535 122.514 563.182 134.515 564.198 148.303Z" fill="#A5B3BC"/>
<path d="M403.7 190.384L436.122 190.389C442.091 190.384 446.929 195.222 446.929 201.193V222.806C446.929 228.777 442.091 233.615 436.122 233.615L403.7 233.62C397.731 233.615 392.893 228.777 392.893 222.806V201.193C392.893 195.222 397.731 190.384 403.7 190.384Z" fill="#9BA6AD"/>
<path d="M446.928 206.596L459.897 196.868C462.285 195.078 465.672 195.564 467.462 197.95V219.566C467.462 222.549 465.043 224.968 462.058 224.968C460.889 224.968 459.752 224.588 458.816 223.888L445.848 214.161L446.928 206.596Z" fill="#9BA6AD"/>
<path d="M403.7 190.384L436.122 190.389C442.087 190.384 446.924 195.218 446.929 201.182C446.929 201.186 446.929 201.188 446.929 201.193V222.806C446.929 228.777 442.091 233.615 436.122 233.615L403.7 233.62C397.731 233.615 392.893 228.777 392.893 222.806V201.193C392.893 195.222 397.731 190.384 403.7 190.384ZM403.7 190.384C397.731 190.384 392.893 195.222 392.893 201.193V222.806C392.893 228.777 397.731 233.615 403.7 233.62L436.122 233.615C442.091 233.615 446.929 228.777 446.929 222.806V201.193C446.929 201.188 446.929 201.186 446.929 201.182C446.924 195.218 442.087 190.384 436.122 190.389L403.7 190.384ZM446.929 206.596L459.898 196.868C462.286 195.078 465.673 195.564 467.463 197.95V219.566C467.463 222.549 465.044 224.968 462.06 224.968C460.891 224.968 459.753 224.588 458.817 223.888L445.849 214.161L446.929 206.596ZM446.929 206.596L445.849 214.161L458.817 223.888C459.753 224.588 460.891 224.968 462.06 224.968C465.044 224.968 467.463 222.549 467.463 219.566V197.95C465.673 195.564 462.286 195.078 459.898 196.868L446.929 206.596Z" fill="black"/>
<path d="M551.463 202.804L580.276 202.805L609.088 202.805V207.084L551.463 207.085V202.804Z" fill="#B5B3B3" fill-opacity="0.631373"/>
<path d="M551.463 218.016L585.926 218.016L620.39 218.017C620.39 219.443 620.39 220.869 620.39 222.295C597.414 222.296 574.438 222.297 551.463 222.297C551.463 220.87 551.463 219.443 551.463 218.016Z" fill="#A09F9F"/>
<path d="M551.463 233.227L580.276 233.227L609.088 233.227V237.507L551.463 237.507V233.227Z" fill="#A09F9F"/>
<path d="M551.463 248.438L585.977 248.439L620.491 248.44C620.491 249.866 620.491 251.292 620.491 252.718C597.481 252.719 574.472 252.719 551.463 252.72C551.463 251.293 551.463 249.865 551.463 248.438Z" fill="#A09F9F"/>
<path d="M551.463 263.65L587.793 263.65L624.123 263.651C624.123 265.077 624.123 266.503 624.123 267.93C599.903 267.93 575.683 267.931 551.463 267.931C551.463 266.504 551.463 265.077 551.463 263.65Z" fill="#A09F9F"/>
<circle cx="465.891" cy="296.891" r="2.89107" fill="#FDD908"/>
<circle cx="481.584" cy="296.891" r="2.89107" fill="#14FF00"/>
<circle cx="497.28" cy="296.891" r="2.89107" fill="#FF000A"/>
<g filter="url(#filter0_d_115_454)">
<path d="M301.812 266C273.781 266 275.531 278.156 275.531 278.156L275.562 290.75H302.312V294.531H264.938C264.938 294.531 247 292.497 247 320.781C247 349.066 262.656 348.062 262.656 348.062H272V334.938C272 334.938 271.496 319.281 287.406 319.281C303.316 319.281 313.938 319.281 313.938 319.281C313.938 319.281 328.844 319.522 328.844 304.875C328.844 290.228 328.844 280.656 328.844 280.656C328.844 280.656 331.107 266 301.812 266ZM287.062 274.469C289.724 274.469 291.875 276.62 291.875 279.281C291.875 281.943 289.724 284.094 287.062 284.094C284.401 284.094 282.25 281.943 282.25 279.281C282.25 276.62 284.401 274.469 287.062 274.469Z" fill="url(#paint0_linear_115_454)"/>
<path d="M302.609 375.846C330.641 375.846 328.89 363.69 328.89 363.69L328.859 351.096H302.109V347.315H339.484C339.484 347.315 357.421 349.349 357.421 321.065C357.421 292.781 341.765 293.784 341.765 293.784H332.421V306.909C332.421 306.909 332.925 322.565 317.015 322.565C301.105 322.565 290.484 322.565 290.484 322.565C290.484 322.565 275.578 322.324 275.578 336.971C275.578 351.618 275.578 361.19 275.578 361.19C275.578 361.19 273.314 375.846 302.609 375.846ZM317.359 367.377C314.697 367.377 312.546 365.226 312.546 362.565C312.546 359.903 314.697 357.752 317.359 357.752C320.02 357.752 322.171 359.903 322.171 362.565C322.171 365.226 320.02 367.377 317.359 367.377Z" fill="url(#paint1_linear_115_454)"/>
</g>
<path d="M141.983 100.339C134.793 101.727 135.64 104.966 134.936 107.847L138.345 245.002C138.195 249.194 139.236 252.287 144.177 251.788L249.269 252.083C252.899 251.499 255.89 250.032 256.134 244.768L259.081 105.928C258.735 99.7541 254.92 99.974 251.255 99.9175L141.984 100.338L141.983 100.339Z" stroke="#DCDCDC" stroke-width="2" stroke-linecap="round" stroke-linejoin="round"/>
<path d="M150.869 130.154V153.712L173.846 152.77L175.843 131.096L150.87 130.154H150.869Z" stroke="#DCDCDC" stroke-linejoin="round"/>
<path d="M185.318 146.662L246.626 145.86Z" fill="white" fill-opacity="0.99219"/>
<path d="M185.318 146.662L246.626 145.86" stroke="#DCDCDC" stroke-linejoin="round"/>
<path d="M182.793 180.158H244.112Z" fill="white" fill-opacity="0.99219"/>
<path d="M182.793 180.158H244.112" stroke="#DCDCDC" stroke-linejoin="round"/>
<path d="M183.949 214.67L245.066 215.237Z" fill="white" fill-opacity="0.99219"/>
<path d="M183.949 214.67L245.066 215.237" stroke="#DCDCDC" stroke-linejoin="round"/>
<path d="M151.121 163.669V187.227L174.098 186.285L176.095 164.611L151.121 163.669Z" stroke="#DCDCDC" stroke-linejoin="round"/>
<path d="M152.084 199.025V222.583L175.06 221.641L177.058 199.967L152.085 199.025L152.084 199.025Z" stroke="#DCDCDC" stroke-linejoin="round"/>
<path d="M158.003 137.459L155.629 139.415L162.462 147.614L183.181 129.429L179.614 125.774L162.909 142.333L158.003 137.459Z" fill="#14FF00" stroke="#14FF00" stroke-linejoin="round"/>
<path d="M157.962 173.589L155.588 175.545L162.421 183.744L183.14 165.559L179.573 161.904L162.868 178.463L157.962 173.589Z" fill="#14FF00" stroke="#14FF00" stroke-linejoin="round"/>
<path d="M155.43 119.578L159.678 107.738H161.51L165.758 119.578H164.438L160.47 108.354H160.694L156.726 119.578H155.43ZM157.654 115.746L157.958 114.65H163.222L163.526 115.746H157.654ZM170.234 119.73C169.349 119.73 168.661 119.504 168.17 119.05C167.679 118.592 167.434 117.861 167.434 116.858V110.898L167.642 107.738H168.714V116.65C168.714 117.381 168.863 117.893 169.162 118.186C169.466 118.48 169.917 118.626 170.514 118.626C170.674 118.626 170.839 118.616 171.01 118.594C171.181 118.568 171.367 118.533 171.57 118.49V119.57C171.357 119.624 171.138 119.664 170.914 119.69C170.69 119.717 170.463 119.73 170.234 119.73ZM165.802 111.954V110.898H171.442V111.954H165.802ZM175.765 119.73C174.88 119.73 174.192 119.504 173.701 119.05C173.211 118.592 172.965 117.861 172.965 116.858V110.898L173.173 107.738H174.245V116.65C174.245 117.381 174.395 117.893 174.693 118.186C174.997 118.48 175.448 118.626 176.045 118.626C176.205 118.626 176.371 118.616 176.541 118.594C176.712 118.568 176.899 118.533 177.101 118.49V119.57C176.888 119.624 176.669 119.664 176.445 119.69C176.221 119.717 175.995 119.73 175.765 119.73ZM171.333 111.954V110.898H176.973V111.954H171.333ZM182 119.73C181.098 119.73 180.341 119.578 179.728 119.274C179.12 118.965 178.661 118.482 178.352 117.826C178.042 117.165 177.888 116.301 177.888 115.234C177.888 114.216 178.029 113.376 178.312 112.714C178.6 112.053 179.005 111.562 179.528 111.242C180.056 110.922 180.68 110.762 181.4 110.762C182.109 110.762 182.712 110.925 183.208 111.25C183.709 111.57 184.09 112.064 184.352 112.73C184.613 113.392 184.744 114.237 184.744 115.266V115.658H178.584V114.786H183.8L183.52 114.978C183.52 114.168 183.434 113.522 183.264 113.042C183.098 112.562 182.856 112.218 182.536 112.01C182.221 111.797 181.837 111.69 181.384 111.69C180.936 111.69 180.546 111.794 180.216 112.002C179.885 112.21 179.629 112.554 179.448 113.034C179.272 113.514 179.184 114.162 179.184 114.978V115.426C179.184 116.226 179.29 116.866 179.504 117.346C179.722 117.821 180.05 118.165 180.488 118.378C180.925 118.586 181.48 118.69 182.152 118.69C182.482 118.69 182.824 118.661 183.176 118.602C183.533 118.538 183.912 118.45 184.312 118.338V119.386C183.896 119.504 183.498 119.589 183.12 119.642C182.746 119.701 182.373 119.73 182 119.73ZM186.578 119.578V110.898H187.658L187.746 111.874H187.834C188.186 111.517 188.597 111.242 189.066 111.05C189.536 110.858 190.034 110.762 190.562 110.762C191.106 110.762 191.586 110.864 192.002 111.066C192.424 111.264 192.752 111.589 192.986 112.042C193.226 112.49 193.346 113.09 193.346 113.842V119.578H192.074V113.898C192.074 113.152 191.909 112.634 191.578 112.346C191.253 112.053 190.81 111.906 190.25 111.906C189.994 111.906 189.722 111.944 189.434 112.018C189.146 112.093 188.864 112.216 188.586 112.386C188.314 112.557 188.072 112.784 187.858 113.066V119.578H186.578ZM198.632 119.73C198.003 119.73 197.429 119.589 196.912 119.306C196.395 119.018 195.981 118.56 195.672 117.93C195.368 117.301 195.216 116.464 195.216 115.418C195.216 114.373 195.381 113.506 195.712 112.818C196.048 112.13 196.541 111.616 197.192 111.274C197.843 110.933 198.643 110.762 199.592 110.762C199.837 110.762 200.083 110.773 200.328 110.794C200.573 110.816 200.8 110.842 201.008 110.874V106.65H202.288V119.578H201.2L201.112 118.642H201.024C200.768 118.957 200.435 119.218 200.024 119.426C199.619 119.629 199.155 119.73 198.632 119.73ZM198.92 118.626C199.309 118.626 199.691 118.541 200.064 118.37C200.437 118.2 200.752 117.928 201.008 117.554V111.962C200.816 111.914 200.592 111.877 200.336 111.85C200.08 111.824 199.827 111.81 199.576 111.81C198.568 111.81 197.805 112.082 197.288 112.626C196.776 113.17 196.52 114.064 196.52 115.306C196.52 116.16 196.621 116.829 196.824 117.314C197.032 117.794 197.315 118.133 197.672 118.33C198.035 118.528 198.451 118.626 198.92 118.626ZM206.855 119.722C206.039 119.722 205.397 119.512 204.927 119.09C204.463 118.669 204.231 118.09 204.231 117.354C204.231 116.597 204.479 116.008 204.975 115.586C205.477 115.16 206.279 114.893 207.383 114.786L209.711 114.538L209.831 115.386L207.463 115.642C206.775 115.712 206.279 115.88 205.975 116.146C205.677 116.408 205.527 116.77 205.527 117.234C205.527 117.72 205.666 118.09 205.943 118.346C206.221 118.602 206.634 118.73 207.183 118.73C207.562 118.73 207.943 118.65 208.327 118.49C208.711 118.325 209.055 118.05 209.359 117.666V113.834C209.359 113.301 209.277 112.89 209.111 112.602C208.946 112.309 208.698 112.104 208.367 111.986C208.037 111.869 207.621 111.81 207.119 111.81C206.794 111.81 206.423 111.84 206.007 111.898C205.597 111.957 205.186 112.056 204.775 112.194V111.146C205.149 111.024 205.559 110.93 206.007 110.866C206.461 110.797 206.887 110.762 207.287 110.762C208.023 110.762 208.637 110.858 209.127 111.05C209.623 111.242 209.994 111.568 210.239 112.026C210.49 112.48 210.615 113.101 210.615 113.89V119.578H209.543L209.447 118.61H209.367C209.085 118.968 208.722 119.242 208.279 119.434C207.842 119.626 207.367 119.722 206.855 119.722ZM212.938 119.578V110.898H214.018L214.106 111.874H214.194C214.546 111.517 214.956 111.242 215.426 111.05C215.895 110.858 216.394 110.762 216.922 110.762C217.466 110.762 217.946 110.864 218.362 111.066C218.783 111.264 219.111 111.589 219.346 112.042C219.586 112.49 219.706 113.09 219.706 113.842V119.578H218.434V113.898C218.434 113.152 218.268 112.634 217.938 112.346C217.612 112.053 217.17 111.906 216.61 111.906C216.354 111.906 216.082 111.944 215.794 112.018C215.506 112.093 215.223 112.216 214.946 112.386C214.674 112.557 214.431 112.784 214.218 113.066V119.578H212.938ZM225.415 119.73C224.594 119.73 223.898 119.576 223.327 119.266C222.757 118.952 222.322 118.466 222.023 117.81C221.725 117.149 221.575 116.293 221.575 115.242C221.575 114.192 221.735 113.338 222.055 112.682C222.381 112.021 222.853 111.536 223.471 111.226C224.09 110.917 224.847 110.762 225.743 110.762C226.047 110.762 226.351 110.781 226.655 110.818C226.959 110.856 227.25 110.912 227.527 110.986V112.074C227.245 112 226.965 111.944 226.687 111.906C226.415 111.869 226.146 111.85 225.879 111.85C225.213 111.85 224.658 111.96 224.215 112.178C223.773 112.397 223.442 112.752 223.223 113.242C223.01 113.733 222.903 114.389 222.903 115.21C222.903 116.053 223.005 116.725 223.207 117.226C223.41 117.728 223.711 118.09 224.111 118.314C224.517 118.533 225.013 118.642 225.599 118.642C225.882 118.642 226.178 118.616 226.487 118.562C226.797 118.504 227.143 118.413 227.527 118.29V119.37C227.186 119.493 226.837 119.584 226.479 119.642C226.127 119.701 225.773 119.73 225.415 119.73ZM232.609 119.73C231.708 119.73 230.951 119.578 230.337 119.274C229.729 118.965 229.271 118.482 228.961 117.826C228.652 117.165 228.497 116.301 228.497 115.234C228.497 114.216 228.639 113.376 228.921 112.714C229.209 112.053 229.615 111.562 230.137 111.242C230.665 110.922 231.289 110.762 232.009 110.762C232.719 110.762 233.321 110.925 233.817 111.25C234.319 111.57 234.7 112.064 234.961 112.73C235.223 113.392 235.353 114.237 235.353 115.266V115.658H229.193V114.786H234.409L234.129 114.978C234.129 114.168 234.044 113.522 233.873 113.042C233.708 112.562 233.465 112.218 233.145 112.01C232.831 111.797 232.447 111.69 231.993 111.69C231.545 111.69 231.156 111.794 230.825 112.002C230.495 112.21 230.239 112.554 230.057 113.034C229.881 113.514 229.793 114.162 229.793 114.978V115.426C229.793 116.226 229.9 116.866 230.113 117.346C230.332 117.821 230.66 118.165 231.097 118.378C231.535 118.586 232.089 118.69 232.761 118.69C233.092 118.69 233.433 118.661 233.785 118.602C234.143 118.538 234.521 118.45 234.921 118.338V119.386C234.505 119.504 234.108 119.589 233.729 119.642C233.356 119.701 232.983 119.73 232.609 119.73Z" fill="white"/>
<defs>
<filter id="filter0_d_115_454" x="242" y="261" width="120.422" height="119.846" filterUnits="userSpaceOnUse" color-interpolation-filters="sRGB">
<feFlood flood-opacity="0" result="BackgroundImageFix"/>
<feColorMatrix in="SourceAlpha" type="matrix" values="0 0 0 0 0 0 0 0 0 0 0 0 0 0 0 0 0 0 127 0" result="hardAlpha"/>
<feOffset/>
<feGaussianBlur stdDeviation="2.5"/>
<feComposite in2="hardAlpha" operator="out"/>
<feColorMatrix type="matrix" values="0 0 0 0 1 0 0 0 0 1 0 0 0 0 1 0 0 0 0.5 0"/>
<feBlend mode="normal" in2="BackgroundImageFix" result="effect1_dropShadow_115_454"/>
<feBlend mode="normal" in="SourceGraphic" in2="effect1_dropShadow_115_454" result="shape"/>
</filter>
<linearGradient id="paint0_linear_115_454" x1="257.612" y1="275.602" x2="312.212" y2="330.384" gradientUnits="userSpaceOnUse">
<stop stop-color="#387EB8"/>
<stop offset="1" stop-color="#366994"/>
</linearGradient>
<linearGradient id="paint1_linear_115_454" x1="291.2" y1="310.452" x2="349.84" y2="366.632" gradientUnits="userSpaceOnUse">
<stop stop-color="#FFE052"/>
<stop offset="1" stop-color="#FFC331"/>
</linearGradient>
</defs>
</svg>
