<svg width="802" height="650" viewBox="0 0 802 650" fill="none" xmlns="http://www.w3.org/2000/svg">
<path d="M288.468 28.4999L0 34.9999V605.591L790 605.592L789.859 21.075L288.468 28.4999Z" fill="#FCB826"/>
<path d="M148.5 30.5L165.281 48.8672C207.64 100.039 230.247 137.923 233.103 162.519C234.325 181.549 190 181.5 182 200.5L237 251.5C257.922 240.263 297.689 245.447 324.401 247.656C360.562 253.87 380.122 262.472 383.078 273.463C385.22 280.912 382.772 289.377 375.734 298.858C331.906 344.913 311.564 367.798 314.71 367.512C310.359 377.558 310.484 384.341 315.086 387.861C318.192 391.536 327.365 394.968 342.605 398.157C411.567 406.653 450.348 412.686 458.948 416.258C480.162 423.283 491.616 433.725 493.31 447.583C495.674 461.634 489.497 478.345 474.779 497.714C459.319 516.279 443.658 525.672 427.797 525.893C422.139 526.049 413.599 521.661 402.175 512.729C400.346 512.572 388.258 497.457 365.912 467.385C361.606 462.484 357.007 458.364 352.113 455.024C346.105 451.198 336.777 452.941 324.128 460.252C305.661 477.686 291.285 496.968 281.001 518.098C270.986 532.906 264.525 562.206 261.617 606L790 606V21L148.5 30.5Z" fill="#00AEC7"/>
<path d="M154.17 200.947L153.068 201.032C150.998 200.651 146.34 204.227 139.097 211.761C132.549 208.616 126.515 208.502 120.995 211.418C98.103 220.965 83.4107 228.61 76.9179 234.353C68.7479 238.236 58.6278 255.59 46.5575 286.414C40.2008 305.243 40.8408 320.302 48.4776 331.59C50.5086 336.477 62.7504 346.675 85.203 362.186C86.9217 363.183 90.9637 368.607 97.3289 378.457C99.8947 380.994 103.535 383.356 108.249 385.54L110.224 388.371C109.5 391.114 108.47 393.07 107.133 394.238L98.6692 398.493L95.0881 403.371C88.7368 405.848 85.2413 407.837 84.6017 409.34C83.1927 410.829 81.605 414.008 79.8386 418.877C63.5068 433.6 53.2143 443.896 48.9612 449.764C41.2857 459.806 36.4457 467.464 34.4411 472.737C30.2761 481.242 26.5049 493.554 23.1273 509.673L8 605.591L218.882 605.591C223.735 588.347 224.993 570.143 222.653 550.979C218.691 525.525 211.312 498.157 200.518 468.875L201.707 455.062L207.994 447.538L207.23 443.767L212.72 440.003L210.403 435.465L214.821 431.607L199.891 411.998C204.018 402.309 206.599 395.621 207.637 391.932C208.792 389.399 210.213 381.215 211.899 367.382C212.494 364.573 213.925 361.162 216.193 357.148C219.16 352.145 222.371 348.373 225.824 345.832C240.132 339.63 247.189 336.022 246.995 335.01C251.336 330.754 253.236 326.811 252.697 323.182C252.293 320.324 250.792 317.648 248.192 315.152C246.126 313.021 242.608 310.229 237.638 306.775C236.705 304.074 235.686 302.281 234.58 301.395C233.647 300.514 231.954 299.855 229.501 299.419C230.645 292.247 228.751 287.919 223.822 286.435C229.466 280.852 230.913 275.453 228.163 270.237C226.89 268.739 225.389 267.753 223.66 267.279C208.493 264.795 200.154 262.384 198.642 260.046C197.442 258.914 196.612 257.746 196.152 256.541C195.661 252.047 194.866 249.524 193.766 248.971L171.02 229.773C172.814 222.776 171.079 215.819 165.813 208.902C162.621 204.314 158.74 201.663 154.17 200.947Z" fill="black"/>
<path d="M162.158 237.206L169.398 229.446L176.638 221.686C190.438 234.56 204.238 247.434 218.038 260.308C213.211 265.482 208.385 270.656 203.559 275.83C189.759 262.955 175.958 250.081 162.158 237.206Z" fill="white"/>
<path d="M164.979 218.568L182.069 200.25L237.004 251.5L219.914 269.819L164.979 218.568Z" fill="#222B32"/>
<path d="M191.867 264.862L184.347 257.642L176.828 250.423C153.812 276.557 130.796 302.692 107.779 328.826C112.467 332.863 117.154 336.901 121.841 340.938L191.867 264.862Z" fill="#7D8B96"/>
<path d="M688.781 127.841L692.519 125.615L696.256 123.389C697.27 125.092 698.284 126.794 699.298 128.497C696.806 129.981 694.314 131.465 691.823 132.949C690.809 131.246 689.795 129.543 688.781 127.841Z" fill="#313440"/>
<path d="M681.586 127.023L690.274 121.85L698.961 116.676C700.181 118.724 701.4 120.771 702.619 122.819C696.828 126.268 691.036 129.717 685.244 133.166C684.025 131.119 682.806 129.071 681.586 127.023Z" fill="#3F434F"/>
<path d="M672.582 117.362L683.538 110.838L694.493 104.314C697.272 108.98 700.051 113.647 702.83 118.313C695.526 122.662 688.222 127.012 680.918 131.361C678.139 126.695 675.361 122.029 672.582 117.362Z" fill="#292B37"/>
<path d="M655.093 63.1965C644.337 69.6016 640.772 83.5862 647.204 94.3881C647.437 94.7789 647.77 95.2341 648.104 95.6895C649.99 98.1775 652.364 100.282 655.047 101.86C657.945 103.589 662.299 106.196 665.806 108.217C667.423 109.154 669.814 110.189 673.005 116.072L683.026 110.105L693.069 104.123C689.405 98.4915 689.647 95.9188 689.594 94.0515C689.488 90.0049 689.285 84.9583 689.144 81.5858C689.022 78.4523 688.303 75.3624 687.014 72.5185C686.772 72.0087 686.531 71.4986 686.298 71.108C679.866 60.3062 665.849 56.7916 655.093 63.1965Z" fill="#FDC00F"/>
<path d="M676.993 113.727L673.018 116.095C669.812 110.189 667.435 109.177 665.818 108.24C662.311 106.219 657.971 103.635 655.073 101.906C652.376 100.305 650.002 98.2005 648.116 95.7124C647.782 95.2571 647.449 94.8017 647.216 94.4111C642.713 86.8498 643.111 77.7403 647.419 70.7542C645.324 77.1696 645.883 84.4335 649.605 90.6848C649.851 91.0985 650.198 91.5767 650.582 92.0642C652.564 94.7133 655.103 96.9375 657.951 98.6351C661.036 100.471 665.665 103.225 669.374 105.375C671.054 106.367 673.62 107.486 676.993 113.727Z" fill="#E2A305"/>
<path d="M695.608 104.884C695.786 105.183 695.693 105.549 695.394 105.727L673.423 118.812C673.124 118.99 672.757 118.897 672.579 118.598L671.908 117.472C671.731 117.173 671.824 116.806 672.122 116.628L694.071 103.558C694.369 103.38 694.736 103.473 694.914 103.772L695.585 104.898L695.608 104.884Z" fill="#3F434F"/>
<path d="M698.879 110.556C699.057 110.854 698.964 111.221 698.665 111.399L676.694 124.483C676.395 124.661 676.028 124.568 675.851 124.269L675.18 123.143C675.002 122.844 675.095 122.478 675.394 122.3L697.343 109.229C697.641 109.051 698.008 109.144 698.186 109.443L698.857 110.569L698.879 110.556Z" fill="#3F434F"/>
<path d="M700.893 113.934C701.071 114.233 700.978 114.599 700.679 114.777L678.708 127.862C678.409 128.039 678.042 127.946 677.864 127.648L677.194 126.522C677.016 126.223 677.109 125.856 677.407 125.678L699.356 112.608C699.655 112.43 700.022 112.523 700.2 112.821L700.87 113.948L700.893 113.934Z" fill="#3F434F"/>
<path d="M671.49 62.0261C662.968 60.1584 655.749 64.9236 655.464 65.1244C654.641 65.6769 654.436 66.7955 654.975 67.5955C655.527 68.4186 656.646 68.6241 657.446 68.0854C657.514 68.0444 663.68 63.9682 670.726 65.5009C675.383 66.5257 679.377 69.7823 682.667 75.2016C683.118 75.9601 684.039 76.2522 684.843 75.9292C684.949 75.8973 685.041 75.8425 685.11 75.8015C685.96 75.295 686.216 74.2088 685.71 73.3585C681.9 67.0657 677.11 63.256 671.49 62.0261Z" fill="#FED96F"/>
<path d="M464.014 571.399L463.016 569.03C461.423 564.045 461.703 559.277 463.856 554.726C466.034 550.164 469.673 546.927 474.774 545.016C479.758 543.423 484.526 543.703 489.078 545.856C490.542 546.556 491.901 547.437 493.155 548.499L494.927 550.219C496.046 551.453 497 552.848 497.789 554.405C500.075 559.25 500.429 564.06 498.851 568.835C497.272 573.61 494.121 577.262 489.398 579.79C484.553 582.076 479.743 582.43 474.968 580.852C470.193 579.273 466.542 576.122 464.014 571.399Z" fill="#FDD908"/>
<path d="M466.636 570.026L465.794 568.028C464.451 563.824 464.687 559.802 466.503 555.962C468.34 552.114 471.41 549.384 475.712 547.772C479.916 546.429 483.938 546.665 487.778 548.481C489.012 549.071 490.158 549.815 491.216 550.711L492.711 552.161C493.655 553.202 494.46 554.379 495.125 555.692C497.054 559.779 497.352 563.836 496.021 567.864C494.689 571.892 492.032 574.972 488.047 577.104C483.961 579.032 479.904 579.331 475.876 578C471.848 576.668 468.769 574.01 466.636 570.026Z" fill="#EEAA01"/>
<path d="M466.983 569.846L466.162 567.896C464.852 563.795 465.082 559.871 466.853 556.125C468.646 552.371 471.64 549.708 475.838 548.135C479.939 546.825 483.863 547.055 487.608 548.827C488.812 549.403 489.931 550.128 490.962 551.002L492.421 552.417C493.342 553.432 494.127 554.581 494.776 555.862C496.657 559.848 496.949 563.807 495.65 567.736C494.351 571.665 491.758 574.67 487.871 576.75C483.885 578.632 479.927 578.923 475.997 577.624C472.068 576.325 469.064 573.732 466.983 569.846Z" fill="#FFB70D"/>
<path d="M475.84 555.773L476.542 557.215C475.899 557.936 475.501 558.777 475.348 559.738C475.195 560.7 475.341 561.64 475.788 562.558C476.074 563.146 476.461 563.65 476.949 564.069C477.429 564.474 477.958 564.775 478.533 564.974C479.109 565.173 479.718 565.258 480.361 565.23C480.989 565.208 481.597 565.054 482.185 564.768L482.314 564.705C482.5 564.65 482.682 564.659 482.86 564.733C483.037 564.806 483.171 564.936 483.262 565.122C483.36 565.323 483.372 565.53 483.298 565.743C483.224 565.957 483.087 566.112 482.886 566.21C482.686 566.308 482.478 566.32 482.265 566.246C482.052 566.172 481.897 566.035 481.799 565.834L478.227 567.572C478.45 568.031 478.735 568.433 479.08 568.78C479.405 569.119 479.776 569.408 480.195 569.648C480.592 569.881 481.021 570.053 481.484 570.165C481.939 570.263 482.406 570.293 482.885 570.255L483.68 571.891L487.296 570.132L486.406 568.303C486.913 567.595 487.211 566.803 487.299 565.926C487.394 565.064 487.239 564.217 486.834 563.385C486.548 562.797 486.161 562.293 485.674 561.874C485.193 561.469 484.664 561.167 484.089 560.968C483.513 560.769 482.904 560.684 482.261 560.713C481.633 560.734 481.025 560.888 480.437 561.175L480.308 561.237C480.122 561.292 479.937 561.276 479.752 561.188C479.574 561.115 479.444 560.992 479.36 560.82C479.262 560.619 479.247 560.405 479.313 560.178C479.387 559.964 479.524 559.809 479.725 559.711C479.926 559.613 480.137 559.609 480.357 559.697C480.57 559.77 480.726 559.908 480.823 560.108L484.395 558.371C483.991 557.539 483.416 556.887 482.672 556.415C481.928 555.943 481.121 555.688 480.251 555.65L479.456 554.015L475.84 555.773Z" fill="#EEAA01"/>
<path d="M475.626 556.101L476.327 557.543C475.684 558.264 475.286 559.105 475.133 560.066C474.98 561.028 475.126 561.968 475.573 562.886C475.859 563.474 476.246 563.978 476.734 564.397C477.214 564.801 477.743 565.103 478.318 565.302C478.894 565.501 479.503 565.586 480.146 565.558C480.774 565.536 481.382 565.382 481.97 565.096L482.099 565.033C482.285 564.978 482.467 564.987 482.645 565.061C482.822 565.134 482.957 565.264 483.047 565.45C483.145 565.651 483.157 565.858 483.083 566.071C483.01 566.285 482.872 566.44 482.671 566.538C482.471 566.635 482.264 566.647 482.05 566.574C481.837 566.5 481.682 566.363 481.584 566.162L478.012 567.9C478.235 568.359 478.52 568.761 478.865 569.108C479.19 569.447 479.561 569.736 479.98 569.976C480.377 570.209 480.806 570.381 481.269 570.493C481.725 570.591 482.192 570.621 482.67 570.583L483.466 572.219L487.081 570.46L486.191 568.631C486.698 567.923 486.996 567.131 487.084 566.254C487.179 565.392 487.024 564.545 486.619 563.713C486.333 563.125 485.946 562.621 485.459 562.202C484.978 561.797 484.45 561.495 483.874 561.296C483.298 561.097 482.689 561.012 482.047 561.041C481.419 561.062 480.81 561.216 480.222 561.502L480.093 561.565C479.907 561.62 479.722 561.604 479.537 561.516C479.36 561.443 479.229 561.32 479.145 561.148C479.047 560.947 479.032 560.733 479.099 560.505C479.172 560.292 479.31 560.137 479.51 560.039C479.711 559.941 479.922 559.937 480.142 560.025C480.355 560.098 480.511 560.236 480.608 560.436L484.181 558.699C483.776 557.867 483.201 557.215 482.457 556.743C481.713 556.271 480.906 556.016 480.036 555.978L479.241 554.343L475.626 556.101Z" fill="#FDD908"/>
<path d="M333.262 107.841C329.111 112.222 323.393 118.673 323.109 119.303C322.857 119.866 323.374 120.747 323.728 120.387C323.965 120.147 325.078 121.279 325.236 121.941C325.324 122.365 325.46 122.466 325.936 122.497C326.43 122.51 326.994 122.965 328.859 124.703C330.126 125.884 331.136 126.914 331.086 126.965C331.035 127.017 330.49 126.851 329.893 126.6C327.761 125.714 323.787 126.252 321.417 127.731C320.08 128.54 317.901 130.511 317.093 131.638C314.247 135.518 314.311 142.029 317.239 147.347C320.374 153.037 326.988 157.903 334.483 159.992C339.986 161.534 349.83 161.684 356.536 160.328C358.811 159.87 360.135 159.486 366.191 157.658C367.056 157.397 368.432 157.2 369.248 157.228C370.915 157.285 371.683 157.67 370.203 157.697C367.858 157.782 366.196 160.701 367.181 163.057C368.53 166.244 372.816 166.418 375.021 163.358C376.267 161.65 376.239 160.103 374.952 158.429C374.334 157.617 374.282 157.43 374.657 157.598C374.93 157.698 377.01 158.499 379.311 159.384C382.294 160.502 383.727 161.172 384.292 161.695C384.737 162.1 385.267 162.487 385.505 162.587C385.727 162.67 386.274 163.244 386.722 163.887C388.147 165.934 388.66 166.305 389.918 166.228C390.546 166.172 391.531 165.962 392.124 165.77C392.718 165.579 393.872 165.265 394.704 165.105C397.013 164.613 398.565 165.367 397.809 166.614C397.322 167.45 397.416 168.724 398.032 169.332C398.957 170.244 400.574 170.521 405.283 170.539C410.469 170.553 410.946 170.685 413.477 172.843L415.068 174.21L414.243 175.253C412.423 177.611 411.978 179.536 412.742 181.808C413.159 183.063 413.162 183.404 412.808 183.967C410.521 187.418 410.176 189.137 411.296 191.22C412.003 192.525 411.986 192.542 410.894 194.505C409.887 196.246 409.439 197.864 409.634 199.002C409.847 200.259 412.03 203.626 414.379 206.347C415.493 207.648 417.396 209.827 418.562 211.18C421.476 214.559 421.598 215.017 420.376 217.763C418.753 221.328 418.598 223.403 419.721 226.064C421.312 229.759 423.831 230.149 428.98 227.46C433.333 225.202 438.019 221.853 444.88 216.025C448.462 212.973 450.573 211.003 455.975 205.524C462.71 198.726 465.509 195.544 470.327 189.321C475.297 182.877 478.62 176.801 478.719 173.995C478.79 172.141 477.727 170.754 475.459 169.835C472.748 168.716 470.488 168.953 466.93 170.678C465.185 171.523 464.369 171.529 463.038 170.757C462.73 170.555 460.593 168.785 458.317 166.812C453.682 162.816 452.382 161.839 450.284 160.749C447.895 159.508 447.045 159.581 443.725 161.339L441.862 162.339L440.566 161.668C439.866 161.282 438.929 160.966 438.521 160.969C437.5 160.942 435.822 161.651 434.13 162.785L432.777 163.713L431.107 163.18C428.96 162.515 427.245 162.885 425.03 164.482L423.558 165.563L422.255 164.042C420.062 161.542 419.852 160.795 419.762 155.373C419.673 150.052 419.341 148.677 417.96 148.194C417.568 148.044 416.838 148.1 416.21 148.325C415.362 148.637 415.073 148.622 414.696 148.285C413.977 147.576 414.004 146.454 414.831 143.32C415.841 139.555 415.772 139.318 413.414 137.567C412.115 136.624 411.687 136.202 411.668 135.879C411.632 135.641 411.34 135.286 410.999 135.051C410.384 134.647 410.021 133.884 408.288 129.306C407.907 128.357 407.388 127.069 407.112 126.458C406.836 125.849 406.61 125.255 406.644 125.153C406.66 125.034 407.103 125.268 407.633 125.656C409.137 126.801 410.65 126.739 412.291 125.521C415.25 123.34 415.066 118.938 411.997 117.736C410.531 117.169 408.511 117.608 407.38 118.755C406.975 119.166 406.875 119.439 406.512 120.971L406.346 121.585L406.204 120.702C405.938 119.225 406.167 117.897 407.428 113.569C409.454 106.686 409.938 103.147 409.841 96.67C409.716 88.7481 408.767 84.267 406.199 79.3718C404.492 76.1705 403.119 74.3101 400.534 71.7612C398.445 69.7359 397.847 69.2813 396.123 68.3585C391.601 65.9254 386.768 65.3476 382.919 66.7521C379.494 68.0008 376.76 70.8762 375.41 74.6093C374.643 76.7568 374.554 78.6613 375.112 80.5959L375.548 82.0377L373.337 79.6563C371.659 77.866 371.144 77.1895 371.227 76.9C371.376 76.4062 371.017 76.0515 370.422 76.1071C369.929 76.1613 369.415 75.5529 369.033 74.4674C368.599 73.2295 367.906 73.7276 360.593 80.5969C355.966 84.948 337.902 102.962 333.262 107.841ZM323.624 131.966C324.301 131.553 325.403 131.086 326.047 130.911C327.388 130.545 330.296 130.609 331.93 131.006C333.481 131.42 336.109 132.931 337.308 134.113L338.318 135.108L337.197 135.185C335.922 135.278 334.5 136.037 333.928 136.925C332.919 138.53 333.565 140.855 335.273 141.931C337.1 143.057 338.782 142.892 340.233 141.419C341.651 139.981 341.913 138.619 341.085 136.857C340.757 136.128 340.378 135.451 340.241 135.316C340.104 135.181 340.052 134.994 340.136 134.909C340.204 134.84 341.092 135.48 342.102 136.34C343.88 137.857 346.89 140.216 349.624 142.237C359.075 149.157 363.209 151.882 368.823 154.851C369.028 154.951 368.076 155.061 366.716 155.07C365.204 155.098 362.536 155.44 359.855 156.003C354.422 157.13 352.061 157.402 347.81 157.33C338.969 157.223 330.328 154.241 325.722 149.701C321.818 145.852 319.381 137.81 321.108 134.449C321.712 133.289 322.185 132.843 323.624 131.966ZM383.331 72.0536C385.043 71.3445 388.242 71.6617 391.617 72.862C398.315 75.2793 402.365 80.6228 404.78 90.2285C406.389 96.6774 406.314 102.815 404.509 111.907C404.181 113.541 403.925 115.889 403.917 117.13C403.892 118.388 403.814 119.324 403.694 119.206C403.591 119.105 403.212 118.461 402.885 117.767C400.815 113.6 391.816 100.912 385.762 93.594C385.248 92.9856 384.579 92.1231 384.253 91.7004L383.669 90.9226L384.813 91.6115C386.947 92.8375 388.51 92.6906 390.097 91.0813C391.616 89.5402 391.722 87.6861 390.366 85.9442C388.067 82.9688 383.862 84.461 383.888 88.235L383.896 89.3229L382.542 87.7854C381.788 86.9409 380.929 85.7228 380.619 85.1133C379.531 82.8933 379.053 80.0918 379.377 77.8792C379.768 75.4281 381.534 72.8149 383.331 72.0536ZM336.256 136.79C336.543 136.499 337.479 136.645 337.873 137.033C338.113 137.269 338.589 137.368 339.065 137.296C339.558 137.208 339.898 137.307 340.002 137.545C340.295 138.172 339.913 139.348 339.153 140.152C337.854 141.538 335.556 141.13 335 139.468C334.757 138.687 335.19 137.426 335.816 137.098C335.986 136.995 336.172 136.875 336.256 136.79ZM387.646 85.8961C388.582 85.9405 389.197 86.4802 389.544 87.5318C389.858 88.5156 389.675 89.1117 388.729 90.0705C388.122 90.687 387.749 90.8594 386.95 90.9163L385.914 90.9749L386.078 90.0556C386.158 89.4938 386.07 89.0013 385.83 88.7653C384.7 87.6512 385.86 85.7896 387.646 85.8961ZM370.979 159.103C372.203 159.163 372.819 159.736 372.81 160.841C372.835 161.912 372.109 162.682 371.122 162.621C370.272 162.593 368.442 161.059 368.574 160.446C368.688 159.782 369.941 159.059 370.979 159.103ZM409.202 119.133C409.439 119.029 409.798 119.282 410.535 120.076C411.374 120.937 411.563 121.292 411.499 121.837C411.309 123.777 408.76 123.965 408.152 122.082C407.787 120.945 408.27 119.565 409.202 119.133Z" fill="#FDD908"/>
<path d="M413.78 173.102L415.07 174.21L414.244 175.253C412.425 177.611 411.979 179.536 412.743 181.808C413.16 183.063 413.163 183.404 412.81 183.967C411.019 186.668 410.419 188.308 410.78 189.893C420.244 180.293 429.708 170.693 439.173 161.093C438.909 161.013 438.677 160.968 438.522 160.969C437.502 160.942 435.823 161.651 434.132 162.785L432.778 163.713L431.108 163.18C428.961 162.515 427.247 162.885 425.031 164.482L423.559 165.563L422.468 164.289L413.78 173.102Z" fill="#FFB70D"/>
<path d="M394.523 165.14H394.524C394.584 165.129 394.645 165.117 394.705 165.106C397.014 164.613 398.566 165.367 397.81 166.614C397.323 167.45 397.417 168.724 398.033 169.332C398.958 170.244 400.575 170.521 405.284 170.539C406.116 170.541 406.827 170.546 407.444 170.563C411.575 166.372 415.706 162.182 419.837 157.992C419.801 157.255 419.78 156.398 419.763 155.373C419.674 150.052 419.342 148.677 417.961 148.194C417.569 148.044 416.839 148.1 416.211 148.325C415.363 148.637 415.074 148.622 414.697 148.285C414.119 147.715 414.023 146.877 414.438 144.939L407.11 152.373L394.526 165.137L394.523 165.14Z" fill="#FFB70D"/>
<path d="M417.777 195.643L445.046 167.984L457.148 179.915L429.88 207.574L417.777 195.643Z" fill="white" fill-opacity="0.607843"/>
<path d="M389.12 111.067L392.58 114.746C399.187 122.528 403.121 130.121 404.383 137.525C405.62 144.946 403.728 150.384 398.707 153.837C393.551 156.775 386.991 156.722 379.026 153.679C376.458 152.688 373.866 151.401 371.247 149.817L367.35 147.232C364.756 145.366 362.234 143.229 359.785 140.823C352.386 133.319 347.576 125.711 345.352 118.001C343.129 110.29 344 104.234 347.966 99.8322C352.311 95.8042 358.354 94.8469 366.095 96.9603C373.837 99.0736 381.512 103.776 389.12 111.067Z" fill="white" fill-opacity="0.607843"/>
<path d="M380.682 120.595L393.193 127.11L379.367 129.904L377.037 143.816L370.107 131.529L356.156 133.613L365.7 123.226L359.407 110.601L372.235 116.468L382.298 106.582L380.682 120.595ZM391.967 126.873L380.217 120.755L373.633 123.828L373.634 123.834L373.635 123.834V123.835L391.899 126.887L391.967 126.873L391.967 126.873ZM373.644 123.89L376.773 142.525L378.953 129.507L373.644 123.89L373.644 123.89ZM357.195 132.899L357.108 132.994L370.239 131.033L370.259 131.068L373.612 123.855L373.599 123.841L357.195 132.899L357.195 132.899ZM372.28 116.819L373.619 123.803L373.616 123.799L373.588 123.798L360.191 111.345L360.167 111.334L366.09 123.217L366.17 123.418L373.588 123.798L373.61 123.819L373.624 123.831L373.631 123.813L373.622 123.805L381.697 107.683L381.712 107.551L372.279 116.819H372.28ZM373.621 123.809L373.62 123.803L373.622 123.805L373.621 123.809Z" fill="#FFB70D"/>
<path d="M373.616 123.808C373.609 123.814 373.606 123.824 373.608 123.833L373.609 123.839L373.609 123.84C373.611 123.852 373.621 123.861 373.633 123.863L391.897 126.915H391.908L391.976 126.901C391.982 126.9 391.987 126.897 391.992 126.893C391.995 126.89 391.997 126.886 391.998 126.881C392.001 126.871 391.998 126.86 391.991 126.852L391.991 126.852L391.984 126.847L380.234 120.729L380.208 120.728L373.624 123.802C373.621 123.803 373.618 123.805 373.616 123.808Z" fill="#FFB70D"/>
<path d="M373.623 123.869C373.617 123.876 373.614 123.885 373.616 123.894L376.745 142.529C376.747 142.543 376.76 142.553 376.773 142.553C376.781 142.553 376.789 142.55 376.794 142.545C376.798 142.541 376.801 142.535 376.802 142.529L378.982 129.512L378.974 129.488L373.665 123.87C373.657 123.861 373.643 123.858 373.631 123.864C373.628 123.865 373.626 123.867 373.623 123.869Z" fill="#FFB70D"/>
<path d="M357.175 132.879L357.175 132.88L357.088 132.974C357.079 132.983 357.078 132.997 357.083 133.007C357.089 133.018 357.101 133.024 357.113 133.022L370.225 131.064L370.235 131.082C370.24 131.091 370.25 131.098 370.261 131.097C370.268 131.096 370.275 131.093 370.281 131.088C370.283 131.086 370.285 131.083 370.286 131.08L373.639 123.867L373.634 123.835L373.621 123.821C373.612 123.812 373.598 123.81 373.586 123.816L357.182 132.874L357.175 132.879L357.175 132.879Z" fill="#FFB70D"/>
<path d="M360.151 111.313C360.142 111.322 360.14 111.336 360.145 111.346L366.068 123.229L366.147 123.428L366.173 123.447L373.59 123.826C373.599 123.827 373.606 123.824 373.612 123.818C373.615 123.815 373.617 123.812 373.618 123.809C373.623 123.798 373.62 123.785 373.612 123.777L373.612 123.777L373.611 123.776L360.215 111.323L360.207 111.318L360.184 111.308C360.172 111.302 360.159 111.305 360.151 111.313Z" fill="#FFB70D"/>
<path d="M372.256 116.799C372.25 116.805 372.247 116.815 372.249 116.824C372.249 116.827 372.25 116.83 372.252 116.834L372.251 116.835L373.581 123.769C373.575 123.77 373.569 123.774 373.565 123.778C373.563 123.78 373.561 123.784 373.56 123.787C373.555 123.798 373.557 123.811 373.566 123.819L373.588 123.84L373.589 123.84L373.602 123.852C373.609 123.858 373.618 123.861 373.627 123.859C373.633 123.857 373.638 123.854 373.642 123.85C373.644 123.848 373.646 123.846 373.647 123.843L373.655 123.825C373.659 123.817 373.659 123.808 373.655 123.8L373.654 123.802L381.721 107.696L381.724 107.686L381.739 107.555C381.74 107.542 381.734 107.531 381.723 107.525C381.712 107.52 381.699 107.522 381.69 107.531L372.257 116.798C372.257 116.799 372.256 116.799 372.256 116.799Z" fill="#FFB70D"/>
<path d="M417.229 224.86L445.763 195.917L474.298 166.974C477.675 170.304 481.053 173.634 484.431 176.964C465.408 196.259 446.386 215.555 427.363 234.851C423.985 231.52 420.607 228.19 417.229 224.86Z" fill="#FFB70D" fill-opacity="0.996078"/>
<path d="M414.413 95.157C414.413 95.157 413.98 95.4033 413.178 95.8254L414.413 95.157Z" fill="black"/>
<path d="M425.992 551.052C426.234 550.149 426.35 549.218 426.336 548.274C426.251 542.694 421.643 538.223 416.063 538.308C413.742 538.342 411.487 539.183 409.713 540.674C408.135 541.999 406.994 543.786 406.454 545.759C402.715 545.466 399.375 547.887 398.373 551.361C397.805 551.24 397.227 551.184 396.644 551.193C392.35 551.258 388.909 554.779 388.974 559.074C389.039 563.369 392.585 566.784 396.879 566.719L424.069 566.308C428.363 566.244 431.804 562.722 431.739 558.428C431.686 554.914 429.315 551.946 425.992 551.052Z" fill="white"/>
<path d="M315.726 51.5641C316.117 50.1072 316.303 48.6039 316.281 47.0812C316.144 38.0789 308.71 30.8655 299.707 31.0019C295.962 31.0579 292.323 32.4137 289.461 34.8192C286.916 36.9582 285.075 39.841 284.204 43.0232C278.172 42.5511 272.783 46.4566 271.166 52.0615C270.25 51.8674 269.317 51.7766 268.377 51.7914C261.449 51.8961 255.897 57.5768 256.001 64.5054C256.107 71.4346 261.828 76.9454 268.756 76.8404L312.623 76.1778C319.552 76.073 325.103 70.3915 324.999 63.4629C324.913 57.7941 321.088 53.0065 315.726 51.5641Z" fill="white"/>
<path d="M757.726 257.564C758.117 256.107 758.303 254.604 758.281 253.081C758.144 244.079 750.71 236.865 741.707 237.002C737.962 237.058 734.323 238.414 731.461 240.819C728.916 242.958 727.075 245.841 726.204 249.023C720.172 248.551 714.783 252.457 713.166 258.061C712.25 257.867 711.317 257.777 710.377 257.791C703.449 257.896 697.897 263.577 698.001 270.505C698.107 277.435 703.828 282.945 710.756 282.84L754.623 282.178C761.552 282.073 767.103 276.391 766.999 269.463C766.913 263.794 763.088 259.006 757.726 257.564Z" fill="white"/>
<g filter="url(#filter0_d_201_3)">
<path d="M666.053 618.485L666.053 618.485C672.873 623.346 679.231 627.594 685.126 631.229C683.167 629.787 681.136 628.366 679.033 626.967C676.931 625.567 674.756 624.188 672.508 622.831L666.053 618.485Z" fill="#ABC1CE"/>
<path d="M685.148 631.243L685.173 631.258L685.646 631.556C685.582 631.513 685.504 631.462 685.411 631.403C685.267 631.313 685.18 631.26 685.148 631.243Z" fill="#ABC1CE"/>
<path d="M683.849 630.808C681.927 630.53 679.48 630.157 676.931 629.701C667.313 627.989 664.276 626.67 663.32 626.032C661.884 625.078 660.781 623.759 660.126 622.219L659.899 621.687L652.357 616.727L659.468 607.551L666.179 612.232L666.772 612.239C668.445 612.247 670.088 612.759 671.526 613.712C672.479 614.351 674.872 616.641 680.157 624.853C681.558 627.032 682.852 629.148 683.849 630.808Z" fill="#FFCE54"/>
<path d="M649.58 617.186L658.366 622.967C659.135 624.776 660.452 626.417 662.261 627.623C666.885 630.702 687.491 633.237 687.491 633.237C687.491 633.237 677.209 615.205 672.582 612.121C670.776 610.921 668.75 610.336 666.782 610.325L659.069 604.947L649.58 617.186ZM664.594 613.459L665.572 614.139L666.761 614.146C668.059 614.155 669.341 614.556 670.464 615.304C670.834 615.55 672.969 617.222 678.54 625.875C679.069 626.701 679.584 627.514 680.07 628.298C679.159 628.149 678.211 627.989 677.249 627.816C667.115 626.014 664.749 624.691 664.378 624.439C663.253 623.692 662.391 622.663 661.886 621.471L661.432 620.406L660.466 619.77L655.134 616.267L659.864 610.161L664.594 613.459Z" fill="#F6BB42"/>
<path d="M665.119 601.112C664.416 600.16 663.682 599.214 662.925 598.278L643.357 579.951C642.364 579.24 641.355 578.544 640.336 577.861C639.743 577.471 639.149 577.08 638.553 576.702C648.316 574.83 659.875 577.159 670.063 583.941C673.455 586.202 676.449 588.789 679.013 591.6C679.031 591.619 679.131 591.731 679.131 591.731C679.659 592.364 679.733 593.293 679.254 594.013C679.093 594.251 678.888 594.442 678.658 594.579C678.658 594.579 678.476 594.684 678.394 594.718L665.301 601.362C665.241 601.276 665.179 601.197 665.119 601.112Z" fill="#FF000A"/>
<path d="M616.762 609.414C617.343 609.818 617.933 610.215 618.524 610.611C619.544 611.288 620.575 611.951 621.614 612.59C622.893 616.231 646.073 623.583 646.073 623.583C647.228 623.918 648.381 624.23 649.534 624.514C649.633 624.54 649.732 624.561 649.831 624.586L648.751 639.232C648.751 639.317 648.724 639.529 648.724 639.529C648.686 639.794 648.59 640.054 648.429 640.297C647.95 641.017 647.066 641.303 646.276 641.061C646.276 641.061 646.138 641.015 646.113 641.002C642.531 639.723 638.99 637.961 635.595 635.7C625.403 628.914 618.797 619.147 616.762 609.414Z" fill="#FF000A"/>
<path d="M617.274 611.24C630.045 619.742 643.734 624.974 656.362 626.888C657.068 626.981 657.793 626.687 658.212 626.054L669.887 608.529C670.304 607.896 670.298 607.113 669.941 606.498C663.304 595.581 653.201 584.971 640.43 576.469C620.593 563.255 598.796 557.977 581.657 560.693C581.146 560.773 580.624 561.066 580.313 561.53C580.004 561.998 579.934 562.59 580.058 563.097C584.161 579.959 597.438 598.031 617.274 611.24Z" fill="white"/>
<path d="M628.24 586.954C628.641 588.957 628.237 590.995 627.107 592.693C625.974 594.391 624.249 595.55 622.246 595.951C620.244 596.353 618.205 595.949 616.505 594.819C614.808 593.689 613.648 591.958 613.247 589.961C612.846 587.959 613.249 585.92 614.379 584.217C616.717 580.709 621.473 579.755 624.981 582.091C626.68 583.227 627.838 584.952 628.239 586.949C628.24 586.954 628.24 586.954 628.24 586.954Z" fill="#434A54"/>
<path d="M647.33 599.666C647.732 601.669 647.33 603.706 646.197 605.404C645.067 607.102 643.339 608.261 641.339 608.663C639.336 609.064 637.295 608.661 635.595 607.531C633.897 606.4 632.739 604.675 632.337 602.673C631.935 600.67 632.339 598.632 633.468 596.928C635.807 593.421 640.563 592.467 644.071 594.802C645.772 595.938 646.928 597.663 647.33 599.666H647.33H647.33Z" fill="#434A54"/>
<path d="M612.791 583.157C611.377 585.283 610.873 587.834 611.375 590.337C611.876 592.835 613.325 594.994 615.449 596.41C617.572 597.822 620.123 598.329 622.624 597.828C625.127 597.325 627.283 595.874 628.7 593.753C630.113 591.627 630.615 589.076 630.114 586.579C629.612 584.075 628.166 581.916 626.042 580.499C621.656 577.578 615.711 578.771 612.791 583.157ZM623.922 583.683C625.24 584.563 626.078 585.888 626.368 587.33C626.655 588.766 626.394 590.318 625.516 591.633C623.761 594.268 620.202 594.982 617.566 593.227C616.249 592.353 615.412 591.021 615.124 589.585C614.835 588.143 615.095 586.598 615.972 585.277C617.727 582.642 621.286 581.928 623.922 583.683Z" fill="#40BEAE"/>
<path d="M630.467 603.048C630.969 605.551 632.414 607.705 634.538 609.122C636.662 610.539 639.213 611.041 641.716 610.539C644.217 610.037 646.373 608.592 647.79 606.465C649.203 604.338 649.709 601.793 649.207 599.289C648.705 596.786 647.256 594.627 645.131 593.21C640.746 590.29 634.801 591.482 631.88 595.868C630.467 597.994 629.965 600.544 630.467 603.048ZM643.011 596.394C644.332 597.274 645.168 598.6 645.457 600.042C645.745 601.478 645.487 603.029 644.606 604.344C642.851 606.98 639.291 607.694 636.656 605.939C635.338 605.064 634.502 603.732 634.214 602.296C633.925 600.855 634.184 599.309 635.061 597.988C636.816 595.353 640.376 594.639 643.011 596.394Z" fill="#40BEAE"/>
<path d="M606.387 561.737L590.56 585.509C585.435 578.147 581.861 570.502 580.058 563.097C579.934 562.59 580.004 561.998 580.313 561.53C580.624 561.066 581.146 560.773 581.657 560.694C589.189 559.498 597.618 559.85 606.387 561.737Z" fill="#FF000A"/>
<path d="M586.045 587.351C586.193 587.331 586.372 587.319 586.581 587.316C586.721 587.308 587.032 587.315 587.512 587.337L586.045 587.351Z" fill="#A4AEB5" fill-opacity="0.996078"/>
</g>
<path d="M548 379.629L547.744 381.75C546.533 386.023 542.988 389.44 537.11 392.002C531.191 394.562 524.222 395.6 516.201 395.116C508.546 394.44 502.424 392.461 497.834 389.18C496.364 388.119 495.152 386.964 494.2 385.713L493 383.784C492.341 382.457 492.007 381.072 492 379.629C492.2 375.202 494.934 371.518 500.201 368.578C505.468 365.638 512.068 364.112 520 364C527.932 364.112 534.532 365.638 539.799 368.578C545.066 371.518 547.8 375.202 548 379.629Z" fill="white"/>
<path d="M528.889 393.477L528.217 394.016C525.3 396.413 522.871 398.093 520.932 399.056C520.281 399.412 519.219 399.806 517.747 400.239C516.698 400.528 515.243 400.806 513.383 401.072C514.722 400.163 515.636 399.463 516.126 398.97C516.579 398.48 516.813 398.187 516.826 398.093C516.933 397.9 516.999 397.71 517.023 397.521C517.046 397.333 517.027 397.146 516.967 396.962C516.978 396.868 516.814 396.595 516.478 396.143C516.106 395.693 515.357 395.074 514.229 394.287L521.264 394.184L528.889 393.477Z" fill="white"/>
<path d="M537.503 260.065C536.975 261.029 536.255 262.331 535.897 263.005C535.514 263.657 533.757 266.814 531.977 269.997C530.198 273.179 528.366 276.248 527.886 276.836C524.504 280.973 525.84 287.222 530.542 289.452C531.261 289.784 532.379 290.141 533.015 290.244L534.194 290.457L533.517 290.869C532.479 291.489 531.085 293.249 530.422 294.71C529.927 295.859 529.858 296.283 529.962 298.121C530.066 299.936 530.186 300.396 530.839 301.619C531.233 302.39 531.841 303.242 532.16 303.504C532.478 303.766 532.751 304.054 532.757 304.147C532.761 304.217 532.17 304.507 531.439 304.782C529.061 305.641 526.842 308.079 526.299 310.421C526.02 311.673 526.162 314.163 526.581 315.376C527.053 316.703 528.335 318.31 529.698 319.283C531.959 320.858 529.859 320.884 563.874 318.946L594.421 317.205L594.315 315.344L594.209 313.482L592.348 313.589L590.486 313.695L590.228 309.158L589.969 304.621L591.83 304.515L593.691 304.409L593.652 303.711L593.613 303.036L595.889 302.837L598.142 302.638L598.11 300.843L598.078 299.047L596.724 299.054L595.371 299.062L595.112 294.525L594.854 289.988L596.199 289.841L597.545 289.695L597.373 287.908L597.201 286.12L595.754 286.132L594.285 286.146L594.197 284.61C594.12 283.261 593.983 282.895 592.979 281.249C592.362 280.257 591.254 278.429 590.532 277.233L589.194 275.046L591.47 274.846L593.746 274.646L593.677 272.199L593.584 269.754L591.367 267.312C590.147 265.958 587.31 262.876 585.07 260.436L580.989 256L559.722 257.165L538.432 258.332L537.503 260.065ZM586.663 279.368L586.901 283.556L559.818 285.052L532.733 286.526L531.784 285.857C530.42 284.86 529.851 283.889 529.789 282.375C529.708 280.956 530.091 279.907 531.015 278.921L531.634 278.302L559.017 276.742L586.424 275.18L586.663 279.368ZM591.157 294.75L591.416 299.287L564.897 300.868C534.841 302.628 536.685 302.639 534.926 300.849C534.357 300.275 533.845 299.487 533.725 299.027C533.12 296.587 534.518 294.103 536.905 293.384C537.295 293.268 549.6 292.52 564.258 291.708L590.899 290.214L591.157 294.75ZM586.461 309.419L586.764 313.907L560.125 315.425C530.787 317.097 532.607 317.087 531.146 315.606C529.387 313.816 529.375 311.155 531.115 309.329C532.479 307.874 531.179 307.995 559.844 306.408L586.137 304.956L586.461 309.419Z" fill="#FF0000"/>
<path d="M531.631 278.248C531.618 278.249 531.605 278.255 531.596 278.264L530.978 278.883L530.977 278.884C530.042 279.882 529.653 280.945 529.735 282.379C529.799 283.911 530.378 284.896 531.753 285.9L531.754 285.901L532.702 286.57C532.712 286.577 532.724 286.581 532.736 286.58L559.821 285.106H559.821L586.905 283.609L586.905 283.61C586.919 283.609 586.933 283.602 586.942 283.592C586.952 283.581 586.957 283.567 586.956 283.552L586.717 279.365L586.479 275.177C586.477 275.147 586.451 275.125 586.421 275.126L559.015 276.688L531.631 278.248Z" fill="white"/>
<path d="M556.961 292.064C545.73 292.704 537.22 293.234 536.888 293.332L536.888 293.332C534.474 294.06 533.059 296.573 533.672 299.04L533.672 299.04C533.795 299.514 534.314 300.31 534.887 300.887L534.887 300.887C534.983 300.985 535.067 301.076 535.148 301.163L535.148 301.164C535.219 301.24 535.288 301.316 535.356 301.385C536.367 302.413 537.43 302.508 551.132 301.727C553.645 301.584 556.448 301.419 559.859 301.218L564.9 300.922L591.418 299.341C591.448 299.339 591.471 299.314 591.469 299.284L591.21 294.747L590.952 290.21C590.95 290.181 590.925 290.158 590.895 290.16L564.255 291.654L564.255 291.655C561.724 291.794 559.305 291.93 556.961 292.064Z" fill="white"/>
<path d="M547.023 307.067C532.371 307.903 532.187 308.064 531.236 309.118C531.186 309.173 531.134 309.232 531.077 309.292V309.292C529.318 311.14 529.329 313.833 531.109 315.644H531.109C531.19 315.726 531.261 315.804 531.328 315.877C531.387 315.941 531.445 316.006 531.503 316.064C532.433 317.006 533.607 316.992 551.767 315.957V315.957L555.449 315.746L560.13 315.479L586.769 313.961C586.783 313.96 586.797 313.954 586.806 313.943C586.816 313.932 586.821 313.918 586.82 313.903L586.517 309.415V309.415L586.193 304.952C586.191 304.923 586.165 304.901 586.136 304.902L559.843 306.354V306.354L557.003 306.511L554.542 306.647C551.631 306.808 549.249 306.941 547.023 307.067Z" fill="white"/>
<path d="M689.899 325.915L689.896 325.916V325.916L689.893 325.917C689.513 326.008 689.401 326.04 689.235 326.124C689.132 326.175 688.894 326.34 688.716 326.485L688.716 326.485L688.397 326.751L688.391 326.767L688.914 331.743V331.743L689.443 336.718L689.464 336.735L692.492 336.424L692.509 336.404L692.017 331.412L691.52 326.427L691.51 326.412L691.089 326.195L691.089 326.196C690.849 326.073 690.509 325.96 690.318 325.939L690.318 325.939C690.136 325.918 689.947 325.91 689.899 325.915Z" fill="#535D66"/>
<path d="M689.947 337.091C688.31 337.259 687.079 337.397 687.014 337.426V337.426C687.014 337.426 687.005 337.429 687.001 337.438L687.001 337.44C687 337.442 687 337.443 687 337.445V337.445C686.995 337.59 688.22 349.611 689.728 364.262L692.476 391.023L692.496 391.039L696.501 390.649L696.501 390.649L700.499 390.253L700.515 390.233L698.794 373.432C697.846 364.178 696.619 352.133 696.067 346.616V346.617L695.055 336.608L695.034 336.591L691.036 336.981H691.036C690.629 337.022 690.324 337.052 689.947 337.091Z" fill="#191A1A"/>
<path d="M697.573 336.365L697.557 336.385L697.632 337.122C697.644 337.235 697.692 337.721 697.766 338.457C697.948 340.275 698.289 343.681 698.667 347.414L699.631 356.961L699.651 356.978L700.43 356.918L701.203 356.859L701.22 356.839L700.163 346.529L699.108 336.226L699.087 336.209L697.573 336.365Z" fill="#191A1A"/>
<path d="M695.403 336.594L695.393 336.607L695.497 337.628L695.602 338.648L695.615 338.659L697.326 338.484L697.337 338.47L697.233 337.45L697.128 336.429L697.115 336.418L695.403 336.594Z" fill="#535D66"/>
<path d="M698.971 352.859C698.967 352.86 698.965 352.861 698.964 352.862V352.862C698.88 352.911 697.488 354.864 697.471 354.956V354.956C697.471 354.957 697.471 354.959 697.471 354.961C697.471 354.963 697.471 354.964 697.472 354.965L697.472 354.965C697.504 355.057 699.209 356.682 699.329 356.743L699.329 356.744C699.331 356.744 699.334 356.745 699.337 356.745C699.344 356.744 699.348 356.738 699.349 356.736L699.349 356.736C699.377 356.681 699.322 355.914 699.21 354.816C699.103 353.775 699.003 352.917 698.984 352.869L698.984 352.869C698.984 352.869 698.981 352.858 698.971 352.859Z" fill="#535D66"/>
<path d="M692.492 391.36L692.469 391.395L692.53 391.601V391.602C692.584 391.801 693.605 396.062 694.051 397.95C694.122 398.252 694.235 398.727 694.344 399.183V399.184L694.461 399.671C694.545 400.026 694.622 400.351 694.669 400.548C694.711 400.725 694.751 400.891 694.795 401.075V401.076C694.865 401.37 694.954 401.745 695.102 402.359V402.36C695.14 402.524 695.217 402.85 695.246 402.973L695.246 402.973L695.329 403.326C695.363 403.473 695.384 403.563 695.386 403.572L695.385 403.572C695.388 403.591 695.408 403.596 695.414 403.596H695.417C695.52 403.599 696.596 403.501 697.883 403.369L697.887 403.369L700.356 403.116L700.38 403.091L700.397 402.936C700.415 402.78 700.583 390.793 700.568 390.64V390.64V390.64C700.567 390.623 700.554 390.615 700.548 390.611C700.453 390.561 699.507 390.641 696.515 390.948L692.492 391.36Z" fill="#535D66"/>
<path d="M697.854 403.649C696.842 403.753 696.469 403.805 696.423 403.881C696.418 403.889 696.415 403.9 696.416 403.911L696.417 403.913C696.425 403.973 696.724 404.873 697.082 405.924C697.444 406.984 697.97 408.547 698.243 409.397V409.397C698.515 410.223 698.744 410.916 698.77 410.962V410.963C698.77 410.963 698.773 410.968 698.778 410.972H698.778C698.781 410.975 698.791 410.982 698.804 410.981C698.82 410.979 698.828 410.967 698.831 410.961C698.863 410.901 698.89 410.42 699.055 407.595L699.075 407.248L699.075 407.238V407.238C699.179 405.405 699.275 403.831 699.285 403.716V403.716L699.306 403.534L699.276 403.503L697.854 403.649Z" fill="black"/>
<path d="M617.756 413.543C615.326 412.555 611.805 411.946 609.22 412.061C604.67 412.244 599.619 414.225 596.33 417.085C595.507 417.799 590.111 423.324 584.298 429.374C578.507 435.438 572.645 441.516 571.306 442.904C567.47 446.85 567.19 447.219 566.54 449.009C564.64 454.353 567.936 459.98 573.541 460.942C574.8 461.141 576.887 460.846 585.76 459.119L596.456 457.074L610.376 466.458L624.295 475.842L626.425 486.504C628.652 497.849 628.841 498.441 630.987 500.538C633.14 502.671 637.165 503.496 639.933 502.421C643.436 501.037 643.995 500.299 647.834 491.712C649.563 487.862 652.905 480.426 655.253 475.198C661.145 462.051 661.318 461.61 661.877 459.542C663.671 452.61 661.583 444.824 656.576 439.716C654.933 438.02 653.884 437.281 637.375 426.182C621.157 415.248 619.766 414.372 617.756 413.543ZM615.873 429.146L613.721 432.339L616.934 434.598L620.126 436.843L618.706 438.95L617.271 441.078L614.099 438.941C611.758 437.362 610.864 436.852 610.671 437C610.528 437.12 609.617 438.426 608.648 439.909C607.679 441.391 606.74 442.739 606.547 442.888C606.232 443.171 605.927 443.027 604.096 441.793L601.989 440.373L604.121 437.073L606.238 433.795L603.046 431.55L599.833 429.291L601.254 427.184L602.688 425.055L605.987 427.281L609.286 429.504L611.51 426.205L613.749 422.884L615.898 424.426L618.026 425.954L615.873 429.146ZM648.324 446.721C648.988 447.849 648.839 449.08 647.886 450.171C647.027 451.171 645.893 451.521 644.642 451.173C642.765 450.65 641.866 448.218 642.957 446.6C644.42 444.429 647.004 444.5 648.324 446.721ZM638.287 449.21C638.498 449.817 638.508 450.628 638.327 451.218C638.066 452.064 637.873 452.305 637.073 452.757C635.859 453.455 634.641 453.47 633.726 452.853C631.641 451.447 631.741 448.543 633.933 447.358C635.504 446.498 637.684 447.442 638.287 449.21ZM650.427 457.147C651.159 458.724 650.359 460.692 648.697 461.367C645.921 462.499 643.346 459.339 645.04 456.827C645.398 456.295 645.992 455.736 646.384 455.567C647.876 454.962 649.716 455.677 650.427 457.147ZM640.362 459.679C640.857 461.654 639.073 463.795 637.088 463.571C635.459 463.37 634.149 461.961 634.157 460.388C634.166 459.961 634.462 459.2 634.85 458.626C635.438 457.753 635.688 457.612 636.764 457.439C637.818 457.253 638.167 457.333 639.061 457.935C639.891 458.495 640.16 458.831 640.362 459.679Z" fill="#FF0000"/>
<path d="M595.481 417.897C593.576 419.779 589.078 424.399 584.298 429.374C578.507 435.438 572.645 441.516 571.306 442.904C567.47 446.85 567.19 447.219 566.54 449.009C565.097 453.069 566.652 457.292 569.94 459.509C570.98 460.21 572.194 460.711 573.541 460.942C574.8 461.141 576.887 460.845 585.76 459.119L596.456 457.074L624.294 475.843L626.425 486.504C628.652 497.849 628.841 498.441 630.987 500.538C631.284 500.833 631.618 501.102 631.978 501.346C634.228 502.863 637.548 503.348 639.933 502.421C643.436 501.037 643.995 500.299 647.834 491.712C649.563 487.862 652.905 480.426 655.253 475.198C658.051 468.953 659.56 465.575 660.432 463.528L660.428 463.527C649.766 472.587 637.2 474.586 622.732 469.526C618.257 467.84 614.146 465.734 610.4 463.208C606.056 460.28 602.202 456.787 598.837 452.73C593.298 445.954 590.944 438.716 591.775 431.017C592.027 427.367 593.264 422.994 595.484 417.898L595.481 417.897Z" fill="black" fill-opacity="0.203922"/>
<path d="M591.938 451.361L569.602 459.271L569.603 459.274C569.713 459.354 569.824 459.433 569.938 459.509C570.978 460.21 572.191 460.711 573.538 460.942C574.797 461.141 576.885 460.845 585.757 459.119L596.454 457.074L624.292 475.843L626.423 486.504C628.649 497.849 628.838 498.441 630.984 500.538C631.282 500.833 631.615 501.102 631.976 501.346C632.749 501.867 633.649 502.267 634.594 502.529L634.596 502.532L634.072 479.795L634.071 479.78L591.938 451.361Z" fill="black" fill-opacity="0.0705882"/>
<path d="M613.746 422.885L615.895 424.426L618.023 425.954L615.87 429.146L613.718 432.339L616.932 434.598L620.124 436.843L618.703 438.95L617.268 441.078L614.096 438.941C611.756 437.362 610.861 436.852 610.668 437C610.525 437.121 609.614 438.426 608.646 439.909C607.677 441.391 606.737 442.739 606.544 442.888C606.229 443.171 605.924 443.027 604.094 441.793L601.986 440.373L604.118 437.073L606.235 433.795L603.043 431.55L599.83 429.291L601.251 427.184L602.686 425.055L609.283 429.505L611.507 426.205L613.746 422.885Z" fill="white"/>
<path d="M647.209 445.51C647.629 445.793 648.011 446.197 648.321 446.721C648.985 447.849 648.836 449.08 647.883 450.171C647.024 451.171 645.89 451.521 644.639 451.172C644.35 451.092 644.084 450.966 643.845 450.805C642.533 449.92 642.032 447.969 642.954 446.6C644.073 444.941 645.846 444.591 647.209 445.51Z" fill="white"/>
<path d="M649.351 455.923C649.801 456.227 650.179 456.643 650.423 457.147C651.155 458.724 650.355 460.693 648.692 461.367C647.655 461.79 646.645 461.614 645.876 461.095C644.588 460.227 643.975 458.4 645.035 456.827C645.394 456.295 645.988 455.736 646.38 455.567C647.359 455.17 648.489 455.342 649.351 455.923Z" fill="white"/>
<path d="M637.038 447.606C637.601 447.987 638.058 448.539 638.287 449.21C638.497 449.816 638.507 450.628 638.326 451.218C638.065 452.064 637.872 452.305 637.072 452.757C635.858 453.455 634.641 453.47 633.726 452.853C631.64 451.447 631.74 448.543 633.932 447.358C634.907 446.824 636.116 446.985 637.038 447.606Z" fill="white"/>
<path d="M639.058 457.936C639.888 458.495 640.157 458.831 640.359 459.679C640.854 461.654 639.07 463.795 637.085 463.571C636.549 463.505 636.047 463.307 635.615 463.017C634.736 462.424 634.149 461.443 634.154 460.388C634.164 459.961 634.46 459.2 634.847 458.626C635.435 457.753 635.685 457.612 636.761 457.44C637.816 457.253 638.164 457.333 639.058 457.936Z" fill="white"/>
<path d="M638.475 426.922C638.116 426.68 637.749 426.434 637.375 426.182C621.157 415.248 619.766 414.372 617.756 413.543C615.326 412.555 611.805 411.946 609.22 412.061C604.67 412.244 599.619 414.225 596.33 417.085C595.507 417.799 590.111 423.324 584.298 429.374C578.507 435.438 572.645 441.516 571.306 442.904C567.47 446.85 567.19 447.219 566.54 449.009C565.147 452.929 566.548 457.001 569.606 459.273L569.606 459.274C569.716 459.354 569.827 459.433 569.94 459.509C570.98 460.211 572.194 460.711 573.541 460.942C574.8 461.141 576.887 460.846 585.76 459.119L596.456 457.074L611.371 467.129L638.477 426.923L638.475 426.922Z" fill="black" fill-opacity="0.054902"/>
<path d="M594.357 411.087L594.356 411.094L594.356 411.095L594.345 411.094L594.344 411.094C594.348 411.091 594.353 411.089 594.357 411.087Z" fill="white"/>
<path d="M698.44 403.463C697.59 403.308 696.74 403.154 695.891 403L698.445 403.464L698.44 403.463Z" fill="#91959B"/>
<path d="M698.445 403.464L698.445 403.465L698.445 403.464C698.447 403.464 698.449 403.465 698.451 403.465L698.445 403.464Z" fill="#91959B"/>
<path d="M647.204 234.36C646.017 234.144 644.849 234.288 643.809 234.712L635.595 226.433C635.842 225.933 636.026 225.392 636.13 224.816C636.235 224.241 636.253 223.67 636.198 223.115L646.514 218.389C647.37 219.265 648.494 219.895 649.791 220.131C653.113 220.735 656.296 218.531 656.9 215.209C657.504 211.887 655.301 208.704 651.979 208.1C648.657 207.496 645.474 209.699 644.87 213.021C644.79 213.46 644.76 213.896 644.775 214.324L634.197 219.171C633.383 218.44 632.364 217.917 631.209 217.707C627.887 217.103 624.704 219.307 624.1 222.629C623.496 225.951 625.699 229.134 629.021 229.738C630.176 229.948 631.314 229.818 632.333 229.42L640.591 237.744C640.364 238.222 640.194 238.737 640.095 239.282C639.49 242.604 641.694 245.787 645.016 246.391C648.338 246.995 651.521 244.791 652.125 241.469C652.729 238.147 650.526 234.964 647.204 234.36Z" fill="white"/>
<g filter="url(#filter1_d_201_3)">
<path d="M466.254 15.9706L548.396 8.71062e-05L487.346 26.3414L466.254 15.9706Z" fill="#E2E2E2"/>
<path d="M548.396 3.56086e-05L487.345 26.3413L494.801 47.0859L548.396 3.56086e-05Z" fill="#BFC5C9"/>
<path d="M548.395 0.00039168L498.731 31.6135L514.935 58.9093L548.395 0.00039168Z" fill="#E2E2E2"/>
<path d="M494.801 47.0861L498.731 31.6133L503.42 39.5082L494.801 47.0861Z" fill="#3C464F"/>
<path d="M528.138 17.3943L526.918 15.9239L525.699 14.4533C516.854 20.0877 508.008 25.7221 499.163 31.3565C500.961 34.4021 502.759 37.4479 504.557 40.494C511.768 36.9442 518.979 33.3944 526.19 29.8444L528.138 17.3943Z" fill="#E2E2E2"/>
</g>
<path d="M792.726 36.5641C793.117 35.1072 793.303 33.6039 793.281 32.0812C793.144 23.0789 785.71 15.8655 776.707 16.0019C772.962 16.0579 769.323 17.4137 766.461 19.8192C763.916 21.9582 762.075 24.841 761.204 28.0232C755.172 27.5511 749.783 31.4566 748.166 37.0615C747.25 36.8674 746.317 36.7766 745.377 36.7914C738.449 36.8961 732.897 42.5768 733.001 49.5054C733.107 56.4346 738.828 61.9454 745.756 61.8404L789.623 61.1778C796.552 61.073 802.103 55.3915 801.999 48.4629C801.913 42.7941 798.088 38.0065 792.726 36.5641Z" fill="white"/>
<path d="M757.726 465.564C758.117 464.107 758.303 462.604 758.281 461.081C758.144 452.079 750.71 444.865 741.707 445.002C737.962 445.058 734.323 446.414 731.461 448.819C728.916 450.958 727.075 453.841 726.204 457.023C720.172 456.551 714.783 460.457 713.166 466.061C712.25 465.867 711.317 465.777 710.377 465.791C703.449 465.896 697.897 471.577 698.001 478.505C698.107 485.435 703.828 490.945 710.756 490.84L754.623 490.178C761.552 490.073 767.103 484.391 766.999 477.463C766.913 471.794 763.088 467.006 757.726 465.564Z" fill="white"/>
<defs>
<filter id="filter0_d_201_3" x="580" y="560" width="115.49" height="89.1458" filterUnits="userSpaceOnUse" color-interpolation-filters="sRGB">
<feFlood flood-opacity="0" result="BackgroundImageFix"/>
<feColorMatrix in="SourceAlpha" type="matrix" values="0 0 0 0 0 0 0 0 0 0 0 0 0 0 0 0 0 0 127 0" result="hardAlpha"/>
<feOffset dx="4" dy="4"/>
<feGaussianBlur stdDeviation="2"/>
<feColorMatrix type="matrix" values="0 0 0 0 0 0 0 0 0 0 0 0 0 0 0 0 0 0 0.75 0"/>
<feBlend mode="normal" in2="BackgroundImageFix" result="effect1_dropShadow_201_3"/>
<feBlend mode="normal" in="SourceGraphic" in2="effect1_dropShadow_201_3" result="shape"/>
</filter>
<filter id="filter1_d_201_3" x="466.254" y="0" width="90.1426" height="66.9092" filterUnits="userSpaceOnUse" color-interpolation-filters="sRGB">
<feFlood flood-opacity="0" result="BackgroundImageFix"/>
<feColorMatrix in="SourceAlpha" type="matrix" values="0 0 0 0 0 0 0 0 0 0 0 0 0 0 0 0 0 0 127 0" result="hardAlpha"/>
<feOffset dx="4" dy="4"/>
<feGaussianBlur stdDeviation="2"/>
<feColorMatrix type="matrix" values="0 0 0 0 0 0 0 0 0 0 0 0 0 0 0 0 0 0 0.5 0"/>
<feBlend mode="normal" in2="BackgroundImageFix" result="effect1_dropShadow_201_3"/>
<feBlend mode="normal" in="SourceGraphic" in2="effect1_dropShadow_201_3" result="shape"/>
</filter>
</defs>
</svg>
